G04*
G04 #@! TF.GenerationSoftware,Altium Limited,Altium Designer,22.9.1 (49)*
G04*
G04 Layer_Physical_Order=1*
G04 Layer_Color=255*
%FSLAX44Y44*%
%MOMM*%
G71*
G04*
G04 #@! TF.SameCoordinates,E961C7B3-AF31-4016-A867-0A9A946A4240*
G04*
G04*
G04 #@! TF.FilePolarity,Positive*
G04*
G01*
G75*
%ADD15C,0.5000*%
G04:AMPARAMS|DCode=17|XSize=0.82mm|YSize=0.929mm|CornerRadius=0.2009mm|HoleSize=0mm|Usage=FLASHONLY|Rotation=270.000|XOffset=0mm|YOffset=0mm|HoleType=Round|Shape=RoundedRectangle|*
%AMROUNDEDRECTD17*
21,1,0.8200,0.5272,0,0,270.0*
21,1,0.4182,0.9290,0,0,270.0*
1,1,0.4018,-0.2636,-0.2091*
1,1,0.4018,-0.2636,0.2091*
1,1,0.4018,0.2636,0.2091*
1,1,0.4018,0.2636,-0.2091*
%
%ADD17ROUNDEDRECTD17*%
G04:AMPARAMS|DCode=18|XSize=5.5mm|YSize=2mm|CornerRadius=0.31mm|HoleSize=0mm|Usage=FLASHONLY|Rotation=180.000|XOffset=0mm|YOffset=0mm|HoleType=Round|Shape=RoundedRectangle|*
%AMROUNDEDRECTD18*
21,1,5.5000,1.3800,0,0,180.0*
21,1,4.8800,2.0000,0,0,180.0*
1,1,0.6200,-2.4400,0.6900*
1,1,0.6200,2.4400,0.6900*
1,1,0.6200,2.4400,-0.6900*
1,1,0.6200,-2.4400,-0.6900*
%
%ADD18ROUNDEDRECTD18*%
G04:AMPARAMS|DCode=19|XSize=1.4mm|YSize=0.547mm|CornerRadius=0.1368mm|HoleSize=0mm|Usage=FLASHONLY|Rotation=0.000|XOffset=0mm|YOffset=0mm|HoleType=Round|Shape=RoundedRectangle|*
%AMROUNDEDRECTD19*
21,1,1.4000,0.2735,0,0,0.0*
21,1,1.1265,0.5470,0,0,0.0*
1,1,0.2735,0.5633,-0.1368*
1,1,0.2735,-0.5633,-0.1368*
1,1,0.2735,-0.5633,0.1368*
1,1,0.2735,0.5633,0.1368*
%
%ADD19ROUNDEDRECTD19*%
G04:AMPARAMS|DCode=20|XSize=1.4mm|YSize=0.547mm|CornerRadius=0.1368mm|HoleSize=0mm|Usage=FLASHONLY|Rotation=90.000|XOffset=0mm|YOffset=0mm|HoleType=Round|Shape=RoundedRectangle|*
%AMROUNDEDRECTD20*
21,1,1.4000,0.2735,0,0,90.0*
21,1,1.1265,0.5470,0,0,90.0*
1,1,0.2735,0.1368,0.5633*
1,1,0.2735,0.1368,-0.5633*
1,1,0.2735,-0.1368,-0.5633*
1,1,0.2735,-0.1368,0.5633*
%
%ADD20ROUNDEDRECTD20*%
G04:AMPARAMS|DCode=21|XSize=0.82mm|YSize=0.93mm|CornerRadius=0.2009mm|HoleSize=0mm|Usage=FLASHONLY|Rotation=90.000|XOffset=0mm|YOffset=0mm|HoleType=Round|Shape=RoundedRectangle|*
%AMROUNDEDRECTD21*
21,1,0.8200,0.5282,0,0,90.0*
21,1,0.4182,0.9300,0,0,90.0*
1,1,0.4018,0.2641,0.2091*
1,1,0.4018,0.2641,-0.2091*
1,1,0.4018,-0.2641,-0.2091*
1,1,0.4018,-0.2641,0.2091*
%
%ADD21ROUNDEDRECTD21*%
G04:AMPARAMS|DCode=22|XSize=0.82mm|YSize=0.93mm|CornerRadius=0.2009mm|HoleSize=0mm|Usage=FLASHONLY|Rotation=180.000|XOffset=0mm|YOffset=0mm|HoleType=Round|Shape=RoundedRectangle|*
%AMROUNDEDRECTD22*
21,1,0.8200,0.5282,0,0,180.0*
21,1,0.4182,0.9300,0,0,180.0*
1,1,0.4018,-0.2091,0.2641*
1,1,0.4018,0.2091,0.2641*
1,1,0.4018,0.2091,-0.2641*
1,1,0.4018,-0.2091,-0.2641*
%
%ADD22ROUNDEDRECTD22*%
%ADD23R,2.5000X1.4250*%
G04:AMPARAMS|DCode=24|XSize=1.75mm|YSize=0.4mm|CornerRadius=0.1mm|HoleSize=0mm|Usage=FLASHONLY|Rotation=180.000|XOffset=0mm|YOffset=0mm|HoleType=Round|Shape=RoundedRectangle|*
%AMROUNDEDRECTD24*
21,1,1.7500,0.2000,0,0,180.0*
21,1,1.5500,0.4000,0,0,180.0*
1,1,0.2000,-0.7750,0.1000*
1,1,0.2000,0.7750,0.1000*
1,1,0.2000,0.7750,-0.1000*
1,1,0.2000,-0.7750,-0.1000*
%
%ADD24ROUNDEDRECTD24*%
G04:AMPARAMS|DCode=25|XSize=0.85mm|YSize=1.42mm|CornerRadius=0.1998mm|HoleSize=0mm|Usage=FLASHONLY|Rotation=90.000|XOffset=0mm|YOffset=0mm|HoleType=Round|Shape=RoundedRectangle|*
%AMROUNDEDRECTD25*
21,1,0.8500,1.0205,0,0,90.0*
21,1,0.4505,1.4200,0,0,90.0*
1,1,0.3995,0.5103,0.2253*
1,1,0.3995,0.5103,-0.2253*
1,1,0.3995,-0.5103,-0.2253*
1,1,0.3995,-0.5103,0.2253*
%
%ADD25ROUNDEDRECTD25*%
G04:AMPARAMS|DCode=26|XSize=0.6mm|YSize=0.8mm|CornerRadius=0.15mm|HoleSize=0mm|Usage=FLASHONLY|Rotation=90.000|XOffset=0mm|YOffset=0mm|HoleType=Round|Shape=RoundedRectangle|*
%AMROUNDEDRECTD26*
21,1,0.6000,0.5000,0,0,90.0*
21,1,0.3000,0.8000,0,0,90.0*
1,1,0.3000,0.2500,0.1500*
1,1,0.3000,0.2500,-0.1500*
1,1,0.3000,-0.2500,-0.1500*
1,1,0.3000,-0.2500,0.1500*
%
%ADD26ROUNDEDRECTD26*%
G04:AMPARAMS|DCode=27|XSize=1.769mm|YSize=0.609mm|CornerRadius=0.1523mm|HoleSize=0mm|Usage=FLASHONLY|Rotation=0.000|XOffset=0mm|YOffset=0mm|HoleType=Round|Shape=RoundedRectangle|*
%AMROUNDEDRECTD27*
21,1,1.7690,0.3045,0,0,0.0*
21,1,1.4645,0.6090,0,0,0.0*
1,1,0.3045,0.7323,-0.1523*
1,1,0.3045,-0.7323,-0.1523*
1,1,0.3045,-0.7323,0.1523*
1,1,0.3045,0.7323,0.1523*
%
%ADD27ROUNDEDRECTD27*%
G04:AMPARAMS|DCode=28|XSize=0.82mm|YSize=0.929mm|CornerRadius=0.2009mm|HoleSize=0mm|Usage=FLASHONLY|Rotation=0.000|XOffset=0mm|YOffset=0mm|HoleType=Round|Shape=RoundedRectangle|*
%AMROUNDEDRECTD28*
21,1,0.8200,0.5272,0,0,0.0*
21,1,0.4182,0.9290,0,0,0.0*
1,1,0.4018,0.2091,-0.2636*
1,1,0.4018,-0.2091,-0.2636*
1,1,0.4018,-0.2091,0.2636*
1,1,0.4018,0.2091,0.2636*
%
%ADD28ROUNDEDRECTD28*%
G04:AMPARAMS|DCode=29|XSize=1.02mm|YSize=1.379mm|CornerRadius=0.1989mm|HoleSize=0mm|Usage=FLASHONLY|Rotation=180.000|XOffset=0mm|YOffset=0mm|HoleType=Round|Shape=RoundedRectangle|*
%AMROUNDEDRECTD29*
21,1,1.0200,0.9812,0,0,180.0*
21,1,0.6222,1.3790,0,0,180.0*
1,1,0.3978,-0.3111,0.4906*
1,1,0.3978,0.3111,0.4906*
1,1,0.3978,0.3111,-0.4906*
1,1,0.3978,-0.3111,-0.4906*
%
%ADD29ROUNDEDRECTD29*%
%ADD43C,1.5240*%
%ADD55C,0.2500*%
%ADD56C,0.4000*%
%ADD57C,0.3000*%
%ADD58C,0.1308*%
%ADD59C,0.2540*%
%ADD60C,2.4500*%
%ADD61C,1.5000*%
%ADD62C,2.8000*%
%ADD63C,1.3000*%
%ADD64C,1.0000*%
%ADD65C,1.9050*%
%ADD66O,2.4000X1.2000*%
%ADD67O,1.4600X0.7300*%
%ADD68C,0.6000*%
%ADD69C,0.7000*%
G36*
X766000Y1329750D02*
X787500D01*
X787710Y1329740D01*
X787920Y1329730D01*
X788130Y1329700D01*
X788330Y1329660D01*
X788540Y1329610D01*
X788740Y1329550D01*
X788930Y1329480D01*
X789130Y1329400D01*
X789320Y1329310D01*
X789500Y1329210D01*
X789680Y1329100D01*
X789850Y1328990D01*
X790020Y1328860D01*
X790180Y1328720D01*
X790330Y1328580D01*
X790470Y1328430D01*
X790610Y1328270D01*
X790740Y1328100D01*
X790850Y1327930D01*
X790960Y1327750D01*
X791060Y1327570D01*
X791150Y1327380D01*
X791230Y1327180D01*
X791300Y1326990D01*
X791360Y1326790D01*
X791410Y1326580D01*
X791450Y1326380D01*
X791480Y1326170D01*
X791490Y1325960D01*
X791500Y1325750D01*
Y1320750D01*
X791490Y1320540D01*
X791480Y1320330D01*
X791450Y1320120D01*
X791410Y1319920D01*
X791360Y1319710D01*
X791300Y1319510D01*
X791230Y1319320D01*
X791150Y1319120D01*
X791060Y1318930D01*
X790960Y1318750D01*
X790850Y1318570D01*
X790740Y1318400D01*
X790610Y1318230D01*
X790470Y1318070D01*
X790330Y1317920D01*
X790180Y1317780D01*
X790020Y1317640D01*
X789850Y1317510D01*
X789680Y1317400D01*
X789500Y1317290D01*
X789320Y1317190D01*
X789130Y1317100D01*
X788930Y1317020D01*
X788740Y1316950D01*
X788540Y1316890D01*
X788330Y1316840D01*
X788130Y1316800D01*
X787920Y1316770D01*
X787710Y1316760D01*
X787500Y1316750D01*
X759000D01*
Y1335000D01*
X766000D01*
Y1329750D01*
D02*
G37*
G36*
X756500Y1315000D02*
X741900D01*
Y1335000D01*
X756500D01*
Y1315000D01*
D02*
G37*
G36*
X787710Y1275240D02*
X787920Y1275230D01*
X788130Y1275200D01*
X788330Y1275160D01*
X788540Y1275110D01*
X788740Y1275050D01*
X788930Y1274980D01*
X789130Y1274900D01*
X789320Y1274810D01*
X789500Y1274710D01*
X789680Y1274600D01*
X789850Y1274490D01*
X790020Y1274360D01*
X790180Y1274220D01*
X790330Y1274080D01*
X790470Y1273930D01*
X790610Y1273770D01*
X790740Y1273600D01*
X790850Y1273430D01*
X790960Y1273250D01*
X791060Y1273070D01*
X791150Y1272880D01*
X791230Y1272680D01*
X791300Y1272490D01*
X791360Y1272290D01*
X791410Y1272080D01*
X791450Y1271880D01*
X791480Y1271670D01*
X791490Y1271460D01*
X791500Y1271250D01*
Y1266250D01*
X791490Y1266040D01*
X791480Y1265830D01*
X791450Y1265620D01*
X791410Y1265420D01*
X791360Y1265210D01*
X791300Y1265010D01*
X791230Y1264820D01*
X791150Y1264620D01*
X791060Y1264430D01*
X790960Y1264250D01*
X790850Y1264070D01*
X790740Y1263900D01*
X790610Y1263730D01*
X790470Y1263570D01*
X790330Y1263420D01*
X790180Y1263280D01*
X790020Y1263140D01*
X789850Y1263010D01*
X789680Y1262900D01*
X789500Y1262790D01*
X789320Y1262690D01*
X789130Y1262600D01*
X788930Y1262520D01*
X788740Y1262450D01*
X788540Y1262390D01*
X788330Y1262340D01*
X788130Y1262300D01*
X787920Y1262270D01*
X787710Y1262260D01*
X787500Y1262250D01*
X766000D01*
Y1257000D01*
X759000D01*
Y1275250D01*
X787500D01*
X787710Y1275240D01*
D02*
G37*
G36*
X756500Y1257000D02*
X741900D01*
Y1277000D01*
X756500D01*
Y1257000D01*
D02*
G37*
G36*
X626613Y1258273D02*
X627490Y1257002D01*
X627271Y1255902D01*
Y1254920D01*
X637000D01*
X646729D01*
Y1255902D01*
X646510Y1257002D01*
X647387Y1258272D01*
X664227D01*
X666500Y1256000D01*
Y1227997D01*
X664503Y1226000D01*
X611000Y1226000D01*
X608500Y1228500D01*
Y1256000D01*
X610773Y1258273D01*
X626613D01*
D02*
G37*
%LPC*%
G36*
X646729Y1252380D02*
X638270D01*
Y1246771D01*
X642103D01*
X643873Y1247123D01*
X645374Y1248126D01*
X646377Y1249627D01*
X646729Y1251397D01*
Y1252380D01*
D02*
G37*
G36*
X635730D02*
X627271D01*
Y1251397D01*
X627623Y1249627D01*
X628626Y1248126D01*
X630127Y1247123D01*
X631898Y1246771D01*
X635730D01*
Y1252380D01*
D02*
G37*
%LPD*%
D15*
X779500Y1308125D02*
Y1323250D01*
Y1308125D02*
X782000Y1305625D01*
X779500Y1268750D02*
Y1283875D01*
X782000Y1286375D01*
D17*
X359500Y1137500D02*
D03*
Y1152600D02*
D03*
X439500Y1272450D02*
D03*
Y1287550D02*
D03*
X374619Y1266591D02*
D03*
Y1251491D02*
D03*
X200619Y1266591D02*
D03*
Y1251491D02*
D03*
X205500Y1188550D02*
D03*
Y1173450D02*
D03*
D18*
X240619Y1265541D02*
D03*
X335619D02*
D03*
D19*
X339310Y1104500D02*
D03*
Y1112500D02*
D03*
Y1120500D02*
D03*
Y1128500D02*
D03*
Y1136500D02*
D03*
Y1144500D02*
D03*
Y1152500D02*
D03*
Y1160500D02*
D03*
Y1168500D02*
D03*
Y1176500D02*
D03*
Y1184500D02*
D03*
X226690D02*
D03*
Y1176500D02*
D03*
Y1168500D02*
D03*
Y1160500D02*
D03*
Y1152500D02*
D03*
Y1144500D02*
D03*
Y1136500D02*
D03*
Y1128500D02*
D03*
Y1120500D02*
D03*
Y1112500D02*
D03*
Y1104500D02*
D03*
D20*
X323000Y1200810D02*
D03*
X315000D02*
D03*
X307000D02*
D03*
X299000D02*
D03*
X291000D02*
D03*
X283000D02*
D03*
X275000D02*
D03*
X267000D02*
D03*
X259000D02*
D03*
X251000D02*
D03*
X243000D02*
D03*
Y1088190D02*
D03*
X251000D02*
D03*
X259000D02*
D03*
X267000D02*
D03*
X275000D02*
D03*
X283000D02*
D03*
X291000D02*
D03*
X299000D02*
D03*
X307000D02*
D03*
X315000D02*
D03*
X323000D02*
D03*
D21*
X455500Y1287550D02*
D03*
Y1272450D02*
D03*
X424000D02*
D03*
Y1287550D02*
D03*
D22*
X598950Y1300000D02*
D03*
X614050D02*
D03*
X598950Y1285000D02*
D03*
X614050D02*
D03*
X129950Y1040543D02*
D03*
X145050D02*
D03*
Y1025290D02*
D03*
X129950D02*
D03*
X79450Y1040543D02*
D03*
X94550D02*
D03*
Y1025290D02*
D03*
X79450D02*
D03*
D23*
X782000Y1305625D02*
D03*
Y1286375D02*
D03*
D24*
X751250Y1309000D02*
D03*
Y1302500D02*
D03*
Y1296000D02*
D03*
Y1289500D02*
D03*
Y1283000D02*
D03*
D25*
X637000Y1272350D02*
D03*
Y1253650D02*
D03*
D26*
X777000Y287500D02*
D03*
Y270500D02*
D03*
X586000Y201000D02*
D03*
Y184000D02*
D03*
X395000Y201000D02*
D03*
Y184000D02*
D03*
X586000Y387000D02*
D03*
Y370000D02*
D03*
X395000Y385500D02*
D03*
Y368500D02*
D03*
X204500Y387500D02*
D03*
Y370500D02*
D03*
X777000Y673053D02*
D03*
Y656053D02*
D03*
X586000Y578000D02*
D03*
Y561000D02*
D03*
X395000Y578000D02*
D03*
Y561000D02*
D03*
X204500Y578000D02*
D03*
Y561000D02*
D03*
X777000Y958500D02*
D03*
Y941500D02*
D03*
X586000Y768500D02*
D03*
Y751500D02*
D03*
X395000Y768500D02*
D03*
Y751500D02*
D03*
X204500Y768500D02*
D03*
Y751500D02*
D03*
X586000Y958500D02*
D03*
Y941500D02*
D03*
X395000Y958500D02*
D03*
Y941500D02*
D03*
X204500Y958500D02*
D03*
Y941500D02*
D03*
D27*
X714960Y1273300D02*
D03*
Y1286000D02*
D03*
Y1298700D02*
D03*
Y1311400D02*
D03*
X664500D02*
D03*
Y1298700D02*
D03*
Y1286000D02*
D03*
Y1273300D02*
D03*
D28*
X145050Y1055790D02*
D03*
X129950D02*
D03*
X374550Y1114000D02*
D03*
X359450D02*
D03*
X94550Y1055790D02*
D03*
X79450D02*
D03*
X300950Y1221000D02*
D03*
X316050D02*
D03*
X250169Y1070041D02*
D03*
X235069D02*
D03*
D29*
X310569Y1067041D02*
D03*
X327669D02*
D03*
D43*
X61100Y1290600D02*
D03*
X86500D02*
D03*
X111900D02*
D03*
X61100Y1316000D02*
D03*
X86500D02*
D03*
X111900D02*
D03*
X680208Y215571D02*
D03*
X489771Y124759D02*
D03*
X204250Y120501D02*
D03*
X490001Y311000D02*
D03*
X299500D02*
D03*
X109000D02*
D03*
X680208Y596570D02*
D03*
X490001Y501500D02*
D03*
X299500D02*
D03*
X109000D02*
D03*
X680501Y882500D02*
D03*
X490001Y692000D02*
D03*
X299500D02*
D03*
X109000D02*
D03*
X490001Y882500D02*
D03*
X299500D02*
D03*
X109000D02*
D03*
D55*
X83100Y1338000D02*
X389000D01*
X61100Y1316000D02*
X83100Y1338000D01*
X389000D02*
X424000Y1303000D01*
X378065Y1212565D02*
X412000Y1246500D01*
Y1276100D02*
X423450Y1287550D01*
X412000Y1246500D02*
Y1276100D01*
X424000Y1287550D02*
Y1303000D01*
X358500Y1176500D02*
X365731Y1183731D01*
X339310Y1176500D02*
X358500D01*
X339310Y1168500D02*
X369000D01*
X353500Y1184500D02*
X359500Y1190500D01*
X339310Y1184500D02*
X353500D01*
X339310Y1104500D02*
X521431D01*
X582971Y1042959D01*
X203500Y999000D02*
Y1109000D01*
X215000Y1120500D01*
X226690D01*
X203500Y999000D02*
X217000Y985500D01*
X155960Y960460D02*
X198000Y1002500D01*
Y1111500D02*
X215000Y1128500D01*
X198000Y1002500D02*
Y1111500D01*
X153872Y965500D02*
X192500Y1004128D01*
Y1115000D01*
X214000Y1136500D01*
X151785Y970540D02*
X187000Y1005755D01*
Y1116500D02*
X215000Y1144500D01*
X187000Y1005755D02*
Y1116500D01*
X182000Y1118500D02*
X216000Y1152500D01*
X149697Y975580D02*
X182000Y1007883D01*
Y1118500D01*
X177000Y1027301D02*
Y1120000D01*
X160940Y1011240D02*
X177000Y1027301D01*
Y1120000D02*
X216087Y1159088D01*
X167862Y1025290D02*
X172500Y1029928D01*
Y1122500D02*
X217088Y1167088D01*
X172500Y1029928D02*
Y1122500D01*
X145050Y1025290D02*
X167862D01*
X215000Y1128500D02*
X226690D01*
X214000Y1136500D02*
X226690D01*
X215000Y1144500D02*
X226690D01*
X216000Y1152500D02*
X226690D01*
X216087Y1159088D02*
X225278D01*
X217088Y1167088D02*
X225278D01*
X204500Y387500D02*
X585500D01*
X262000Y1218247D02*
Y1218500D01*
Y1218247D02*
X267000Y1213247D01*
Y1200810D02*
Y1213247D01*
X259000Y1072218D02*
X263000Y1068218D01*
X259000Y1072218D02*
Y1088190D01*
X263000Y1067000D02*
Y1068218D01*
X271449Y1057449D02*
Y1073551D01*
X267000Y1078000D02*
Y1088190D01*
Y1078000D02*
X271449Y1073551D01*
X271000Y1057000D02*
X271449Y1057449D01*
X275000Y1078000D02*
Y1088190D01*
Y1078000D02*
X282000Y1071000D01*
Y1053500D02*
Y1071000D01*
X294396Y1070500D02*
X295500D01*
X284412Y1080484D02*
Y1086778D01*
Y1080484D02*
X294396Y1070500D01*
X79725Y1056065D02*
Y1081225D01*
X79450Y1055790D02*
X79725Y1056065D01*
Y1081225D02*
X80000Y1081500D01*
X79450Y1040543D02*
Y1055790D01*
X129950Y1040543D02*
Y1055790D01*
X130000Y1057388D02*
Y1081500D01*
X94550Y1025290D02*
X95100Y1024740D01*
X101550D01*
X478500Y1274500D02*
X543500D01*
X204500Y973000D02*
X217000Y985500D01*
X115050Y1011240D02*
X160940D01*
X722943Y958500D02*
X777000D01*
X655769Y891326D02*
X722943Y958500D01*
X655769Y891175D02*
Y891326D01*
X586000Y821406D02*
X655769Y891175D01*
X586000Y768500D02*
Y821406D01*
X395000Y768500D02*
X586000D01*
X204500D02*
X395000D01*
X283000Y1088190D02*
X284412Y1086778D01*
X272500Y1219053D02*
Y1220000D01*
X275000Y1200810D02*
Y1216553D01*
X272500Y1219053D02*
X275000Y1216553D01*
X720760Y1273300D02*
X730460Y1283000D01*
X714960Y1273300D02*
X720760D01*
X730460Y1283000D02*
X751250D01*
X316455Y1208559D02*
X320461Y1212565D01*
X316455Y1208028D02*
Y1208559D01*
X320461Y1212565D02*
X378065D01*
X98912Y970540D02*
X151785D01*
X103500Y960460D02*
X155960D01*
X96825Y975580D02*
X149697D01*
X101412Y965500D02*
X153872D01*
X101550Y1024740D02*
X115050Y1011240D01*
X94550Y1025290D02*
Y1040543D01*
X116000Y1025290D02*
X116000Y1025290D01*
X159000Y1055790D02*
X159000Y1055790D01*
X225278Y1159088D02*
X226690Y1160500D01*
X225278Y1167088D02*
X226690Y1168500D01*
X45540Y902500D02*
X103500Y960460D01*
X40500Y905000D02*
X100500Y965000D01*
X100912D02*
X101412Y965500D01*
X100500Y965000D02*
X100912D01*
X25500Y904255D02*
X96825Y975580D01*
X35460Y907088D02*
X98912Y970540D01*
X204500Y958500D02*
Y973000D01*
Y958500D02*
X395000D01*
X108500Y1055790D02*
X108500Y1055790D01*
X65500Y1025290D02*
X65500Y1025290D01*
X79450Y1040543D02*
X79571Y1040664D01*
X145050Y1025290D02*
Y1040543D01*
X129571Y1039669D02*
X129950Y1039290D01*
X40500Y630000D02*
Y905000D01*
X35460Y426040D02*
Y907088D01*
X45540Y791424D02*
Y902500D01*
X35460Y426040D02*
X74000Y387500D01*
X25500Y254500D02*
Y904255D01*
X40500Y630000D02*
X92500Y578000D01*
X204500D01*
X25500Y254500D02*
X69000Y211000D01*
X383000D01*
X391404Y202596D01*
X393404D02*
X395000Y201000D01*
X391404Y202596D02*
X393404D01*
X68464Y768500D02*
X204500D01*
X45540Y791424D02*
X68464Y768500D01*
X204500Y578000D02*
X395000D01*
X74000Y387500D02*
X204500D01*
X588596Y203596D02*
X672500Y287500D01*
X777000D01*
X588596Y202731D02*
Y203596D01*
X586865Y201000D02*
X588596Y202731D01*
X586000Y201000D02*
X586865D01*
X395000D02*
X586000D01*
X585500Y387500D02*
X586000Y387000D01*
X609032Y593282D02*
Y593587D01*
X688498Y673053D02*
X777000D01*
X586000Y578000D02*
X593750D01*
X609032Y593282D01*
Y593587D02*
X688498Y673053D01*
X395000Y578000D02*
X586000D01*
X395000Y958500D02*
X586000D01*
X242350Y95101D02*
X377601D01*
X395000Y112500D01*
Y184000D01*
X763617Y571170D02*
X777000Y584553D01*
X718308Y571170D02*
X763617D01*
X777000Y584553D02*
Y656053D01*
X567000Y165000D02*
X586000Y184000D01*
X567000Y111500D02*
Y165000D01*
X554600Y99100D02*
X567000Y111500D01*
X528101Y99100D02*
X554600D01*
X567000Y351000D02*
X586000Y370000D01*
X567000Y297500D02*
Y351000D01*
X554600Y285100D02*
X567000Y297500D01*
X528101Y285100D02*
X554600D01*
X567000Y542000D02*
X586000Y561000D01*
X567000Y488500D02*
Y542000D01*
X554600Y476100D02*
X567000Y488500D01*
X528101Y476100D02*
X554600D01*
X528101Y666600D02*
X554600D01*
X567000Y679000D01*
Y732500D01*
X586000Y751500D01*
X768171Y190171D02*
X777000Y199000D01*
X718308Y190171D02*
X768171D01*
X777000Y199000D02*
Y270500D01*
X204500Y299000D02*
Y370500D01*
X189000Y283500D02*
X204500Y299000D01*
X149700Y283500D02*
X189000D01*
X395000Y297000D02*
Y368500D01*
X379500Y281500D02*
X395000Y297000D01*
X340200Y281500D02*
X379500D01*
X395000Y489500D02*
Y561000D01*
X379500Y474000D02*
X395000Y489500D01*
X340200Y474000D02*
X379500D01*
X204500Y489500D02*
Y561000D01*
X189000Y474000D02*
X204500Y489500D01*
X149700Y474000D02*
X189000D01*
X204500Y680000D02*
Y751500D01*
X189000Y664500D02*
X204500Y680000D01*
X149700Y664500D02*
X189000D01*
X395000Y680000D02*
Y751500D01*
X379500Y664500D02*
X395000Y680000D01*
X340200Y664500D02*
X379500D01*
X777000Y870000D02*
Y941500D01*
X761500Y854500D02*
X777000Y870000D01*
X722200Y854500D02*
X761500D01*
X586000Y870000D02*
Y941500D01*
X570500Y854500D02*
X586000Y870000D01*
X531200Y854500D02*
X570500D01*
X395000Y870000D02*
Y941500D01*
X379500Y854500D02*
X395000Y870000D01*
X340200Y854500D02*
X379500D01*
X147100Y857100D02*
X149700Y854500D01*
X189000D01*
X204500Y870000D01*
Y941500D01*
X455500Y1272450D02*
X476450D01*
X478500Y1274500D01*
D56*
X357950Y1112500D02*
X359450Y1114000D01*
X339310Y1112500D02*
X357950D01*
X216000Y1097500D02*
Y1098075D01*
X222425Y1104500D02*
X226690D01*
X216000Y1098075D02*
X222425Y1104500D01*
X372188Y1137500D02*
X373188Y1136500D01*
X359500Y1137500D02*
X372188D01*
X373188Y1136500D02*
X374000D01*
X360350Y1152550D02*
X374450D01*
X359675Y1153225D02*
X360350Y1152550D01*
X374450D02*
X374500Y1152500D01*
X359225Y1137225D02*
X359500Y1137500D01*
X340035Y1137225D02*
X359225D01*
X374550Y1114000D02*
X374800Y1114250D01*
X389750D02*
X390000Y1114500D01*
X374800Y1114250D02*
X389750D01*
X439500Y1261000D02*
Y1271900D01*
X438950Y1272450D02*
X439500Y1271900D01*
X736041Y1309000D02*
X751250D01*
X731000Y1304500D02*
X731541D01*
X736041Y1309000D01*
X327500Y1052000D02*
X327584Y1052084D01*
Y1066956D02*
X327669Y1067041D01*
X327584Y1052084D02*
Y1066956D01*
X325156Y1069553D02*
X327669Y1067041D01*
X310500Y1052000D02*
X310534Y1052034D01*
Y1067006D01*
X312000Y1068472D01*
X193225Y1173225D02*
X205275D01*
X193000Y1173000D02*
X193225Y1173225D01*
X205275D02*
X205500Y1173450D01*
X374559Y1237059D02*
Y1251431D01*
X374619Y1251491D01*
X374500Y1237000D02*
X374559Y1237059D01*
X650900Y1319600D02*
X658500Y1312000D01*
X424000Y1263000D02*
Y1272450D01*
X339310Y1152500D02*
X340035Y1153225D01*
X359675D01*
X339310Y1136500D02*
X340035Y1137225D01*
X664025Y1272825D02*
X664500Y1273300D01*
X637000Y1272350D02*
X637475Y1272825D01*
X664025D01*
X323000Y1078000D02*
X325156Y1075844D01*
Y1069553D02*
Y1075844D01*
X323000Y1078000D02*
Y1088190D01*
X312000Y1068472D02*
Y1077000D01*
X314275Y1079275D02*
Y1087465D01*
X315000Y1088190D01*
X312000Y1077000D02*
X314275Y1079275D01*
X250000Y1057000D02*
X250169Y1057169D01*
Y1070041D01*
X235000Y1057500D02*
X235034Y1057534D01*
Y1070006D02*
X235069Y1070041D01*
X235034Y1057534D02*
Y1070006D01*
X250275Y1087465D02*
X251000Y1088190D01*
X250169Y1070041D02*
Y1080004D01*
X250275Y1080110D01*
Y1087465D01*
X235069Y1070586D02*
X243000Y1078517D01*
Y1088190D01*
X235069Y1070041D02*
Y1070586D01*
X714960Y1311400D02*
X720760D01*
X728360Y1319000D01*
X728500D01*
X714960Y1311400D02*
X715060Y1311500D01*
X116000Y1025290D02*
X129950D01*
X145050Y1055790D02*
X159000D01*
X94550D02*
X108500D01*
X65500Y1025290D02*
X79450D01*
X193500Y1189000D02*
X205050D01*
X205500Y1188550D01*
X200500Y1239500D02*
X200619Y1239619D01*
Y1251491D01*
D57*
X300975Y1233975D02*
X301000Y1234000D01*
X300500Y1220550D02*
X300975Y1221025D01*
Y1233975D01*
X316025Y1221025D02*
X316050Y1221000D01*
X316025Y1221025D02*
Y1233475D01*
X316000Y1233500D02*
X316025Y1233475D01*
X316050Y1220180D02*
Y1221000D01*
X210370Y1184500D02*
X226690D01*
X206320Y1188550D02*
X210370Y1184500D01*
X207320Y1172450D02*
X211370Y1176500D01*
X226690D01*
X308225Y1202035D02*
Y1208682D01*
X313500Y1213957D01*
Y1217630D01*
X316050Y1220180D01*
X307000Y1200810D02*
X308225Y1202035D01*
X300500Y1213000D02*
Y1220550D01*
X299000Y1211500D02*
X300500Y1213000D01*
X299000Y1200810D02*
Y1211500D01*
X240619Y1265541D02*
X258459D01*
X283000Y1241000D01*
Y1200810D02*
Y1241000D01*
X291000Y1238500D02*
X318041Y1265541D01*
X291000Y1200810D02*
Y1238500D01*
X318041Y1265541D02*
X335619D01*
X373569D02*
X374619Y1266591D01*
X335619Y1265541D02*
X373569D01*
X239569Y1266591D02*
X240619Y1265541D01*
X200619Y1266591D02*
X239569D01*
D58*
X340951Y1126860D02*
X346402D01*
X340951Y1122141D02*
X346402D01*
X347472Y1123211D02*
X414211D01*
X346402Y1122141D02*
X347472Y1123211D01*
X347472Y1125789D02*
X413143D01*
X339310Y1128500D02*
X340951Y1126860D01*
X346402D02*
X347472Y1125789D01*
X339310Y1120500D02*
X340951Y1122141D01*
X596663Y1287287D02*
X598950Y1285000D01*
X596663Y1294555D02*
Y1297713D01*
X414211Y1123211D02*
X582211Y1291211D01*
X596663Y1297713D02*
X598950Y1300000D01*
X582211Y1291211D02*
X595896D01*
X596663Y1290444D01*
Y1287287D02*
Y1290444D01*
X413143Y1125789D02*
X581143Y1293789D01*
X595896D01*
X596663Y1294555D01*
X725461Y1291461D02*
X741108D01*
X714960Y1286000D02*
X720000D01*
X725461Y1291461D01*
X741108D02*
X741763Y1290806D01*
X749944D02*
X751250Y1289500D01*
X741763Y1290806D02*
X749944D01*
X725461Y1294039D02*
X741108D01*
X714960Y1298700D02*
X720800D01*
X725461Y1294039D01*
X741108D02*
X741763Y1294694D01*
X749944D01*
X751250Y1296000D01*
X659000Y1286000D02*
X664500D01*
X620261Y1291211D02*
X653789D01*
X659000Y1286000D01*
X614050Y1285000D02*
X620261Y1291211D01*
X658700Y1298700D02*
X664500D01*
X620261Y1293789D02*
X653789D01*
X658700Y1298700D01*
X614050Y1300000D02*
X620261Y1293789D01*
D59*
X316405Y1207978D02*
X316455Y1208028D01*
X439500Y1287550D02*
X455500D01*
X424000D02*
X439500D01*
D60*
X718308Y190171D02*
D03*
X654808Y164771D02*
D03*
X527871Y99359D02*
D03*
X464371Y73959D02*
D03*
X242350Y95101D02*
D03*
X178850Y69701D02*
D03*
X528101Y285600D02*
D03*
X464601Y260200D02*
D03*
X337600Y285600D02*
D03*
X274100Y260200D02*
D03*
X147100Y285600D02*
D03*
X83600Y260200D02*
D03*
X718308Y571170D02*
D03*
X654808Y545770D02*
D03*
X528101Y476100D02*
D03*
X464601Y450700D02*
D03*
X337600Y476100D02*
D03*
X274100Y450700D02*
D03*
X147100Y476100D02*
D03*
X83600Y450700D02*
D03*
X718601Y857100D02*
D03*
X655101Y831700D02*
D03*
X528101Y666600D02*
D03*
X464601Y641200D02*
D03*
X337600Y666600D02*
D03*
X274100Y641200D02*
D03*
X147100Y666600D02*
D03*
X83600Y641200D02*
D03*
X528101Y857100D02*
D03*
X464601Y831700D02*
D03*
X337600Y857100D02*
D03*
X274100Y831700D02*
D03*
X147100Y857100D02*
D03*
X83600Y831700D02*
D03*
D61*
X543500Y1319500D02*
D03*
X478500D02*
D03*
X543500Y1274500D02*
D03*
X478500D02*
D03*
D62*
X166000Y1156500D02*
D03*
X44000D02*
D03*
D63*
X105000Y1081500D02*
D03*
X130000D02*
D03*
X80000D02*
D03*
X130000Y1226500D02*
D03*
X80000D02*
D03*
D64*
X750208Y96071D02*
D03*
Y334071D02*
D03*
X597808Y96571D02*
D03*
Y334571D02*
D03*
X323750Y190501D02*
D03*
X85750D02*
D03*
X323250Y38101D02*
D03*
X85250D02*
D03*
X750208Y477070D02*
D03*
Y715070D02*
D03*
X597808Y477570D02*
D03*
Y715570D02*
D03*
D65*
X532171Y1042959D02*
D03*
X633771D02*
D03*
X659171D02*
D03*
X608371D02*
D03*
X582971D02*
D03*
X557571D02*
D03*
D66*
X779500Y1323250D02*
D03*
Y1268750D02*
D03*
D67*
X749200Y1320250D02*
D03*
Y1271750D02*
D03*
D68*
X359500Y1190500D02*
D03*
X366000Y1184000D02*
D03*
X369000Y1168500D02*
D03*
X216000Y1097500D02*
D03*
X731000Y1304500D02*
D03*
D69*
X374000Y1136500D02*
D03*
X374500Y1152500D02*
D03*
X390000Y1114500D02*
D03*
X439500Y1261000D02*
D03*
X301000Y1234000D02*
D03*
X316000Y1233500D02*
D03*
X327500Y1052000D02*
D03*
X310500D02*
D03*
X193000Y1173000D02*
D03*
X262000Y1218500D02*
D03*
X263000Y1067000D02*
D03*
X271000Y1057000D02*
D03*
X282000Y1053500D02*
D03*
X295500Y1070500D02*
D03*
X374500Y1237000D02*
D03*
X650900Y1319740D02*
D03*
X660000Y1247000D02*
D03*
X616000D02*
D03*
X616000Y1233000D02*
D03*
X424000Y1263000D02*
D03*
X630667Y1233000D02*
D03*
X660000D02*
D03*
X645333D02*
D03*
X217000Y985500D02*
D03*
X272500Y1220000D02*
D03*
X250000Y1057000D02*
D03*
X235000Y1057500D02*
D03*
X728500Y1319000D02*
D03*
X115500Y1025290D02*
D03*
X159500Y1055790D02*
D03*
X109000D02*
D03*
X65000Y1025290D02*
D03*
X193500Y1189000D02*
D03*
X200500Y1239500D02*
D03*
M02*
