M48
;Layer_Color=9474304
;FILE_FORMAT=4:4
METRIC,LZ
;TYPE=PLATED
T1F00S00C0.2500
T2F00S00C0.3000
T5F00S00C1.0000
T6F00S00C1.0160
T7F00S00C1.4986
T8F00S00C1.7018
T9F00S00C2.3000
T10F00S00C3.0500
T11F00S00C3.9878
T12F00S00C4.0000
%
T01
X00216Y010975
X00369Y011685
X00366Y01184
X003595Y011905
X00731Y013045
T02
X00065Y0102529
X001155
X00109Y0105579
X001595
X00235Y010575
X0025Y01057
X00271
X00282Y010535
X003105Y01052
X003275
X002955Y010705
X00263Y01067
X00217Y009855
X00193Y01173
X001935Y01189
X003745Y011525
X00374Y011365
X0039Y011145
X00424Y01263
X004395Y01261
X00616Y01247
X00616Y01233
X00630667
X00645333
X0066
X0066Y01247
X006509Y0131974
X007285Y01319
X003745Y01237
X00316Y012335
X00301Y01234
X002725Y0122
X00262Y012185
X002005Y012395
T05
X0008Y010815
X00105
X0013
X004785Y012745
Y013195
X005435
Y012745
X0013Y012265
X0008
T06
X00532171Y01042959
X00557571
X00582971
X00608371
X00633771
X00659171
X001119Y012906
X000865
X000611
Y01316
X000865
X001119
T07
X0017885Y00069701
X0024235Y00095101
X002741Y002602
X003376Y002856
X001471
X000836Y002602
X00464601
X00528101Y002856
X00527871Y00099359
X00464371Y00073959
X00654808Y00164771
X00718308Y00190171
Y0057117
X00654808Y0054577
X00528101Y004761
X00464601Y004507
Y006412
X00528101Y006666
X003376
X002741Y006412
X001471Y006666
X000836Y006412
Y004507
X001471Y004761
X002741Y004507
X003376Y004761
Y008571
X002741Y008317
X001471Y008571
X000836Y008317
X00464601
X00528101Y008571
X00655101Y008317
X00718601Y008571
T08
X0015345Y00120501
X0025505
X002487Y00311
X001598
X000582
X003503
X00439201
X00540801
X00629408Y00215571
X00731008
X00540571Y00124759
X00438971
X00439201Y005015
X00540801
X00629408Y0059657
X00731008
X00540801Y00692
X00439201
X003503
X002487
X001598
X000582
Y005015
X001598
X002487
X003503
Y008825
X002487
X001598
X000582
X00439201
X00540801
X00629701
X00731301
T09
X00044Y011565
X00166
T10
X0008575Y00190501
X0032375
X00750208Y00096071
Y00334071
Y0047707
Y0071507
T11
X0020425Y00120501
X00109Y00311
X002995
X00490001
X00489771Y00124759
X00680208Y00215571
Y0059657
X00490001Y005015
Y00692
X002995
X00109
Y005015
X002995
Y008825
X00109
X00490001
X00680501
T12
X0008525Y00038101
X0032325
X00597808Y00096571
Y00334571
Y0047757
Y0071557
M30
