G04*
G04 #@! TF.GenerationSoftware,Altium Limited,Altium Designer,22.9.1 (49)*
G04*
G04 Layer_Color=16711935*
%FSLAX25Y25*%
%MOIN*%
G70*
G04*
G04 #@! TF.SameCoordinates,9D6E7D6E-5856-4DC7-B93E-05E9B7285799*
G04*
G04*
G04 #@! TF.FilePolarity,Positive*
G04*
G01*
G75*
%ADD72C,0.04724*%
%ADD73C,0.00197*%
D72*
X5343Y11433D02*
X5343Y528134D01*
X5334Y11433D02*
X5342D01*
X5343Y528134D02*
X5435Y528904D01*
X15156Y2362D02*
X306300D01*
X307070Y2389D01*
X307841Y2480D01*
X308595Y2633D01*
X309338Y2844D01*
X310064Y3111D01*
X310764Y3436D01*
X311443Y3809D01*
X312084Y4239D01*
X312691Y4716D01*
X313254Y5243D01*
X313781Y5812D01*
X314259Y6419D01*
X314688Y7059D01*
X315067Y7739D01*
X315386Y8439D01*
X315659Y9165D01*
X315864Y9908D01*
X316022Y10662D01*
X316109Y11433D01*
X316141Y12202D01*
X9368Y4245D02*
X10008Y3816D01*
X8760Y4722D02*
X9368Y4245D01*
X8197Y5249D02*
X8760Y4722D01*
X7670Y5813D02*
X8197Y5249D01*
X7192Y6420D02*
X7670Y5813D01*
X10687Y3436D02*
X11387Y3116D01*
X10008Y3816D02*
X10687Y3436D01*
X13611Y2482D02*
X14381Y2395D01*
X12856Y2639D02*
X13611Y2482D01*
X12113Y2845D02*
X12856Y2639D01*
X11387Y3116D02*
X12113Y2845D01*
X14381Y2395D02*
X15156Y2362D01*
X6763Y7061D02*
X7192Y6420D01*
X6384Y7739D02*
X6763Y7061D01*
X6065Y8439D02*
X6384Y7739D01*
X5792Y9166D02*
X6065Y8439D01*
X5587Y9909D02*
X5792Y9166D01*
X5429Y10663D02*
X5587Y9909D01*
X5342Y11433D02*
X5429Y10663D01*
X316147Y527363D02*
X316147Y12202D01*
X316115Y528132D02*
X316147Y527363D01*
X316029Y528903D02*
X316115Y528132D01*
X315871Y529658D02*
X316029Y528903D01*
X315666Y530401D02*
X315871Y529658D01*
X315393Y531127D02*
X315666Y530401D01*
X315074Y531827D02*
X315393Y531127D01*
X314695Y532506D02*
X315074Y531827D01*
X314265Y533147D02*
X314695Y532506D01*
X313788Y533753D02*
X314265Y533147D01*
X313261Y534323D02*
X313788Y533753D01*
X312697Y534849D02*
X313261Y534323D01*
X312090Y535327D02*
X312697Y534849D01*
X311450Y535756D02*
X312090Y535327D01*
X310771Y536130D02*
X311450Y535756D01*
X310071Y536455D02*
X310771Y536130D01*
X309345Y536721D02*
X310071Y536455D01*
X308602Y536932D02*
X309345Y536721D01*
X307847Y537085D02*
X308602Y536932D01*
X307077Y537177D02*
X307847Y537085D01*
X306307Y537203D02*
X307077Y537177D01*
X15157Y537205D02*
X305512Y537203D01*
X14387Y537172D02*
X15157Y537205D01*
X13617Y537085D02*
X14387Y537172D01*
X12863Y536928D02*
X13617Y537085D01*
X12119Y536722D02*
X12863Y536928D01*
X11392Y536451D02*
X12119Y536722D01*
X10692Y536131D02*
X11392Y536451D01*
X10014Y535751D02*
X10692Y536131D01*
X9374Y535322D02*
X10014Y535751D01*
X8766Y534845D02*
X9374Y535322D01*
X8197Y534318D02*
X8766Y534845D01*
X7671Y533754D02*
X8197Y534318D01*
X7193Y533147D02*
X7671Y533754D01*
X6764Y532506D02*
X7193Y533147D01*
X6390Y531828D02*
X6764Y532506D01*
X6065Y531128D02*
X6390Y531828D01*
X5799Y530401D02*
X6065Y531128D01*
X5587Y529658D02*
X5799Y530401D01*
X5435Y528904D02*
X5587Y529658D01*
D73*
X90355Y374998D02*
X145471Y319883D01*
X90355Y374998D02*
X145471D01*
X90355Y319883D02*
X145471D01*
X90355Y94884D02*
X145471Y149998D01*
X90355Y94883D02*
Y149998D01*
X145471D01*
X276965Y295078D02*
Y298328D01*
X289682Y268506D02*
Y295078D01*
X258856Y262498D02*
Y268506D01*
X276965D02*
X289682D01*
X236536Y288292D02*
X241262D01*
X265942Y298328D02*
X276965D01*
Y262498D02*
Y268506D01*
X241262D02*
Y275297D01*
X236536D02*
X241262D01*
Y295078D02*
X265942D01*
Y298328D01*
X240356Y262498D02*
X258856D01*
X241262Y268506D02*
X258856D01*
X241262Y288292D02*
Y295078D01*
X236536Y275297D02*
Y288292D01*
X276965Y295078D02*
X289682D01*
X15355Y94883D02*
Y149998D01*
Y94884D02*
X70471Y149998D01*
X15355Y224998D02*
X70471D01*
X15355Y149998D02*
X70471Y94884D01*
X15355Y169884D02*
Y224998D01*
Y94883D02*
X70471D01*
X15355Y149998D02*
X70471D01*
X15355Y169884D02*
X70471Y224998D01*
X15355Y169884D02*
X70471D01*
X15355Y224998D02*
X70471Y169884D01*
X165356Y19883D02*
Y74999D01*
X295471Y57383D02*
Y112499D01*
X276965D02*
X295471D01*
X276965Y57383D02*
X295471D01*
X289682Y24804D02*
Y51377D01*
X240356Y112499D02*
X295472Y57384D01*
X20276Y20789D02*
Y45474D01*
X165356Y74999D02*
X220472Y19884D01*
X165356D02*
X220472Y74999D01*
X52855D02*
X107971Y19884D01*
X52855D02*
X107971Y74999D01*
X140550Y20789D02*
Y45474D01*
X240356Y57384D02*
X295472Y112499D01*
X220471Y19883D02*
Y74999D01*
X276965Y262498D02*
X295471D01*
X240356Y207383D02*
X295472Y262498D01*
X240356Y207383D02*
Y262498D01*
X295472Y207383D01*
X295471D02*
Y262498D01*
X276965Y207383D02*
X295471D01*
X240356Y319883D02*
X295472Y374998D01*
X240356D02*
X295472Y319883D01*
X240356D02*
X295471D01*
X240356D02*
Y374998D01*
X295471D01*
Y319883D02*
Y374998D01*
X145471Y319883D02*
Y374998D01*
X90355Y319883D02*
Y374998D01*
Y319883D02*
X145471Y374998D01*
X165356Y319883D02*
X220471D01*
X165356Y374998D02*
X220471D01*
X165356D02*
X220472Y319883D01*
X220471D02*
Y374998D01*
X165356Y319883D02*
Y374998D01*
Y319883D02*
X220472Y374998D01*
X90355Y299998D02*
X145471D01*
X90355Y244883D02*
X145471Y299998D01*
X145471Y244883D02*
Y299998D01*
X90355D02*
X145471Y244883D01*
X90355D02*
Y299998D01*
Y244883D02*
X145471D01*
X165356D02*
X220471D01*
X165356D02*
Y299998D01*
X220472Y244883D01*
X165356Y299998D02*
X220471D01*
X165356Y244883D02*
X220472Y299998D01*
X220471Y244883D02*
Y299998D01*
X15355Y244883D02*
X70471Y299998D01*
Y244883D02*
Y299998D01*
X15355D02*
X70471D01*
X15355Y319883D02*
X70471D01*
X15355Y299998D02*
X70471Y244883D01*
X15355Y374998D02*
X70471Y319883D01*
X15355Y374998D02*
X70471D01*
X15355Y319883D02*
Y374998D01*
Y319883D02*
X70471Y374998D01*
Y319883D02*
Y374998D01*
X15355Y244883D02*
X70471D01*
X15355D02*
Y299998D01*
X165356Y74999D02*
X220471D01*
X165356Y169884D02*
X220472Y224998D01*
X220471Y94883D02*
Y149998D01*
X165356Y94884D02*
X220472Y149998D01*
X165356Y169884D02*
Y224998D01*
Y94883D02*
X220471D01*
X165356Y149998D02*
X220472Y94884D01*
X220471Y169884D02*
Y224998D01*
X165356Y149998D02*
X220471D01*
X165356Y224998D02*
X220472Y169884D01*
X165356Y224998D02*
X220471D01*
X165356Y94883D02*
Y149998D01*
Y169884D02*
X220471D01*
X52855Y56498D02*
Y74999D01*
X107971Y56498D02*
Y74999D01*
X140550Y56498D02*
Y69216D01*
X113977Y56498D02*
Y69216D01*
X143800Y45474D02*
Y56498D01*
X140550Y45474D02*
X143800D01*
X113977Y69216D02*
X140550D01*
X52855Y74999D02*
X107971D01*
Y56498D02*
X113977D01*
X140550D02*
X143800D01*
X90355Y224998D02*
X145471D01*
Y94883D02*
Y149998D01*
X90355Y224998D02*
X145471Y169884D01*
X90355D02*
X145471Y224998D01*
X70471Y94883D02*
Y149998D01*
X90355D02*
X145471Y94884D01*
X90355Y94883D02*
X145471D01*
X70471Y169884D02*
Y224998D01*
X90355Y169884D02*
X145471D01*
Y224998D01*
X90355Y169884D02*
Y224998D01*
X20276Y69216D02*
X46850D01*
X17021Y45474D02*
X20276D01*
X17021D02*
Y56498D01*
X46850D02*
Y69216D01*
X20276Y56498D02*
Y69216D01*
X46850Y56498D02*
X52855D01*
X17021D02*
X20276D01*
X236536Y181596D02*
X241262D01*
Y194590D02*
Y201378D01*
X240356Y207383D02*
X258856D01*
X276965Y171554D02*
Y174804D01*
X258856Y201378D02*
Y207383D01*
X236536Y181596D02*
Y194590D01*
X241262Y201378D02*
X258856D01*
X241262Y174804D02*
X265942D01*
X276965Y201378D02*
Y207383D01*
X241262Y174804D02*
Y181596D01*
X265942Y171554D02*
Y174804D01*
X236536Y194590D02*
X241262D01*
X265942Y171554D02*
X276965D01*
X241262Y145078D02*
X265942D01*
X236536Y125298D02*
X241262D01*
X265942Y145078D02*
Y148334D01*
X236536Y125298D02*
Y138291D01*
X241262D01*
X276965Y145078D02*
Y148334D01*
X265942D02*
X276965D01*
X241262Y138291D02*
Y145078D01*
X276965Y174804D02*
X289682D01*
X276965Y145078D02*
X289682D01*
X276965Y51377D02*
Y57383D01*
X289682Y118505D02*
Y145078D01*
X276965Y51377D02*
X289682D01*
X276965Y201378D02*
X289682D01*
Y174804D02*
Y201378D01*
X276965Y118505D02*
X289682D01*
X276965Y112499D02*
Y118505D01*
X236536Y31596D02*
Y44590D01*
X258856Y51377D02*
Y57383D01*
X236536Y44590D02*
X241262D01*
Y51377D01*
X240356Y57383D02*
X258856D01*
X240356D02*
Y112499D01*
X258856D01*
Y118505D01*
X241262D02*
X258856D01*
X241262D02*
Y125298D01*
Y51377D02*
X258856D01*
X107971Y38389D02*
X113977D01*
X52855Y19883D02*
X107971D01*
X52855D02*
Y38389D01*
X46850D02*
X52855D01*
X107971Y19883D02*
Y38389D01*
X46850Y20789D02*
Y38389D01*
X113977Y20789D02*
Y38389D01*
X120764Y16063D02*
X133758D01*
X113977Y20789D02*
X120764D01*
X133758Y16063D02*
Y20789D01*
X120764Y16063D02*
Y20789D01*
X165356Y19883D02*
X220471D01*
X133758Y20789D02*
X140550D01*
X236536Y31596D02*
X241262D01*
X276965Y24804D02*
X289682D01*
X241262D02*
Y31596D01*
X265942Y21554D02*
Y24804D01*
X241262D02*
X265942D01*
Y21554D02*
X276965D01*
Y24804D01*
X40057Y16063D02*
Y20789D01*
X27063Y16063D02*
Y20789D01*
X20276D02*
X27063D01*
Y16063D02*
X40057D01*
Y20789D02*
X46850D01*
M02*
