M48
;Layer_Color=9474304
;FILE_FORMAT=2:5
INCH,TZ
;TYPE=PLATED
T1F00S00C0.00984
T2F00S00C0.01181
T5F00S00C0.03937
T6F00S00C0.04000
T7F00S00C0.05900
T8F00S00C0.06700
T9F00S00C0.09055
T10F00S00C0.12008
T11F00S00C0.15700
T12F00S00C0.15748
%
T01
X85039Y432087
X145276Y460039
X144095Y466142
X141535Y468701
X287795Y513583
T02
X25591Y403658
X45472
X42913Y415665
X62795
X92520Y416339
X98425Y416142
X106693
X111024Y414764
X122244Y414173
X128937
X116339Y421457
X103543Y420079
X85433Y387992
X75984Y461811
X76181Y468110
X147441Y453740
X147244Y447441
X153543Y438779
X166929Y497244
X173031Y496457
X242520Y490945
X242520Y485433
X248294
X254068
X259842
X259842Y490945
X256260Y519583
X286811Y519291
X147441Y487008
X124409Y485630
X118504Y485827
X107283Y480315
X103150Y479724
X78937Y487992
T05
X31496Y425787
X41339
X51181
X188386Y501772
Y519488
X213976
Y501772
X51181Y482874
X31496
T06
X209516Y410614
X219516
X229516
X239516
X249516
X259516
X44055Y508110
X34055
X24055
Y518110
X34055
X44055
T07
X70413Y27441
X95413Y37441
X107913Y102441
X132913Y112441
X57913
X32913Y102441
X182914
X207914Y112441
X207823Y39118
X182823Y29118
X257799Y64871
X282799Y74871
Y224870
X257799Y214870
X207914Y187441
X182914Y177441
Y252441
X207914Y262441
X132913
X107913Y252441
X57913Y262441
X32913Y252441
Y177441
X57913Y187441
X107913Y177441
X132913Y187441
Y337441
X107913Y327441
X57913Y337441
X32913Y327441
X182914
X207914Y337441
X257914Y327441
X282914Y337441
T08
X60413Y47441
X100413
X97913Y122441
X62913
X22913
X137913
X172914
X212914
X247799Y84870
X287799
X212823Y49118
X172823
X172914Y197441
X212914
X247799Y234870
X287799
X212914Y272441
X172914
X137913
X97913
X62913
X22913
Y197441
X62913
X97913
X137913
Y347441
X97913
X62913
X22913
X172914
X212914
X247914
X287914
T09
X17323Y455315
X65354
T10
X33760Y75000
X127461
X295358Y37823
Y131524
Y187823
Y281524
T11
X80413Y47441
X42913Y122441
X117913
X192914
X192823Y49118
X267799Y84870
Y234870
X192914Y197441
Y272441
X117913
X42913
Y197441
X117913
Y347441
X42913
X192914
X267914
T12
X33563Y15000
X127264
X235358Y38020
Y131721
Y188020
Y281720
M30
