G04*
G04 #@! TF.GenerationSoftware,Altium Limited,Altium Designer,22.9.1 (49)*
G04*
G04 Layer_Color=8388736*
%FSLAX44Y44*%
%MOMM*%
G71*
G04*
G04 #@! TF.SameCoordinates,E961C7B3-AF31-4016-A867-0A9A946A4240*
G04*
G04*
G04 #@! TF.FilePolarity,Negative*
G04*
G01*
G75*
G04:AMPARAMS|DCode=30|XSize=0.97mm|YSize=1.079mm|CornerRadius=0.2759mm|HoleSize=0mm|Usage=FLASHONLY|Rotation=270.000|XOffset=0mm|YOffset=0mm|HoleType=Round|Shape=RoundedRectangle|*
%AMROUNDEDRECTD30*
21,1,0.9700,0.5272,0,0,270.0*
21,1,0.4182,1.0790,0,0,270.0*
1,1,0.5518,-0.2636,-0.2091*
1,1,0.5518,-0.2636,0.2091*
1,1,0.5518,0.2636,0.2091*
1,1,0.5518,0.2636,-0.2091*
%
%ADD30ROUNDEDRECTD30*%
G04:AMPARAMS|DCode=31|XSize=5.65mm|YSize=2.15mm|CornerRadius=0.385mm|HoleSize=0mm|Usage=FLASHONLY|Rotation=180.000|XOffset=0mm|YOffset=0mm|HoleType=Round|Shape=RoundedRectangle|*
%AMROUNDEDRECTD31*
21,1,5.6500,1.3800,0,0,180.0*
21,1,4.8800,2.1500,0,0,180.0*
1,1,0.7700,-2.4400,0.6900*
1,1,0.7700,2.4400,0.6900*
1,1,0.7700,2.4400,-0.6900*
1,1,0.7700,-2.4400,-0.6900*
%
%ADD31ROUNDEDRECTD31*%
G04:AMPARAMS|DCode=32|XSize=1.55mm|YSize=0.697mm|CornerRadius=0.2117mm|HoleSize=0mm|Usage=FLASHONLY|Rotation=0.000|XOffset=0mm|YOffset=0mm|HoleType=Round|Shape=RoundedRectangle|*
%AMROUNDEDRECTD32*
21,1,1.5500,0.2735,0,0,0.0*
21,1,1.1265,0.6970,0,0,0.0*
1,1,0.4235,0.5633,-0.1368*
1,1,0.4235,-0.5633,-0.1368*
1,1,0.4235,-0.5633,0.1368*
1,1,0.4235,0.5633,0.1368*
%
%ADD32ROUNDEDRECTD32*%
G04:AMPARAMS|DCode=33|XSize=1.55mm|YSize=0.697mm|CornerRadius=0.2117mm|HoleSize=0mm|Usage=FLASHONLY|Rotation=90.000|XOffset=0mm|YOffset=0mm|HoleType=Round|Shape=RoundedRectangle|*
%AMROUNDEDRECTD33*
21,1,1.5500,0.2735,0,0,90.0*
21,1,1.1265,0.6970,0,0,90.0*
1,1,0.4235,0.1368,0.5633*
1,1,0.4235,0.1368,-0.5633*
1,1,0.4235,-0.1368,-0.5633*
1,1,0.4235,-0.1368,0.5633*
%
%ADD33ROUNDEDRECTD33*%
G04:AMPARAMS|DCode=34|XSize=0.97mm|YSize=1.08mm|CornerRadius=0.2759mm|HoleSize=0mm|Usage=FLASHONLY|Rotation=90.000|XOffset=0mm|YOffset=0mm|HoleType=Round|Shape=RoundedRectangle|*
%AMROUNDEDRECTD34*
21,1,0.9700,0.5282,0,0,90.0*
21,1,0.4182,1.0800,0,0,90.0*
1,1,0.5518,0.2641,0.2091*
1,1,0.5518,0.2641,-0.2091*
1,1,0.5518,-0.2641,-0.2091*
1,1,0.5518,-0.2641,0.2091*
%
%ADD34ROUNDEDRECTD34*%
G04:AMPARAMS|DCode=35|XSize=0.97mm|YSize=1.08mm|CornerRadius=0.2759mm|HoleSize=0mm|Usage=FLASHONLY|Rotation=180.000|XOffset=0mm|YOffset=0mm|HoleType=Round|Shape=RoundedRectangle|*
%AMROUNDEDRECTD35*
21,1,0.9700,0.5282,0,0,180.0*
21,1,0.4182,1.0800,0,0,180.0*
1,1,0.5518,-0.2091,0.2641*
1,1,0.5518,0.2091,0.2641*
1,1,0.5518,0.2091,-0.2641*
1,1,0.5518,-0.2091,-0.2641*
%
%ADD35ROUNDEDRECTD35*%
%ADD36R,2.6500X1.5750*%
G04:AMPARAMS|DCode=37|XSize=1.9mm|YSize=0.55mm|CornerRadius=0.175mm|HoleSize=0mm|Usage=FLASHONLY|Rotation=180.000|XOffset=0mm|YOffset=0mm|HoleType=Round|Shape=RoundedRectangle|*
%AMROUNDEDRECTD37*
21,1,1.9000,0.2000,0,0,180.0*
21,1,1.5500,0.5500,0,0,180.0*
1,1,0.3500,-0.7750,0.1000*
1,1,0.3500,0.7750,0.1000*
1,1,0.3500,0.7750,-0.1000*
1,1,0.3500,-0.7750,-0.1000*
%
%ADD37ROUNDEDRECTD37*%
G04:AMPARAMS|DCode=38|XSize=1mm|YSize=1.57mm|CornerRadius=0.2748mm|HoleSize=0mm|Usage=FLASHONLY|Rotation=90.000|XOffset=0mm|YOffset=0mm|HoleType=Round|Shape=RoundedRectangle|*
%AMROUNDEDRECTD38*
21,1,1.0000,1.0205,0,0,90.0*
21,1,0.4505,1.5700,0,0,90.0*
1,1,0.5495,0.5103,0.2253*
1,1,0.5495,0.5103,-0.2253*
1,1,0.5495,-0.5103,-0.2253*
1,1,0.5495,-0.5103,0.2253*
%
%ADD38ROUNDEDRECTD38*%
G04:AMPARAMS|DCode=39|XSize=0.75mm|YSize=0.95mm|CornerRadius=0.225mm|HoleSize=0mm|Usage=FLASHONLY|Rotation=90.000|XOffset=0mm|YOffset=0mm|HoleType=Round|Shape=RoundedRectangle|*
%AMROUNDEDRECTD39*
21,1,0.7500,0.5000,0,0,90.0*
21,1,0.3000,0.9500,0,0,90.0*
1,1,0.4500,0.2500,0.1500*
1,1,0.4500,0.2500,-0.1500*
1,1,0.4500,-0.2500,-0.1500*
1,1,0.4500,-0.2500,0.1500*
%
%ADD39ROUNDEDRECTD39*%
G04:AMPARAMS|DCode=40|XSize=1.919mm|YSize=0.759mm|CornerRadius=0.2273mm|HoleSize=0mm|Usage=FLASHONLY|Rotation=0.000|XOffset=0mm|YOffset=0mm|HoleType=Round|Shape=RoundedRectangle|*
%AMROUNDEDRECTD40*
21,1,1.9190,0.3045,0,0,0.0*
21,1,1.4645,0.7590,0,0,0.0*
1,1,0.4545,0.7323,-0.1523*
1,1,0.4545,-0.7323,-0.1523*
1,1,0.4545,-0.7323,0.1523*
1,1,0.4545,0.7323,0.1523*
%
%ADD40ROUNDEDRECTD40*%
G04:AMPARAMS|DCode=41|XSize=0.97mm|YSize=1.079mm|CornerRadius=0.2759mm|HoleSize=0mm|Usage=FLASHONLY|Rotation=0.000|XOffset=0mm|YOffset=0mm|HoleType=Round|Shape=RoundedRectangle|*
%AMROUNDEDRECTD41*
21,1,0.9700,0.5272,0,0,0.0*
21,1,0.4182,1.0790,0,0,0.0*
1,1,0.5518,0.2091,-0.2636*
1,1,0.5518,-0.2091,-0.2636*
1,1,0.5518,-0.2091,0.2636*
1,1,0.5518,0.2091,0.2636*
%
%ADD41ROUNDEDRECTD41*%
G04:AMPARAMS|DCode=42|XSize=1.17mm|YSize=1.529mm|CornerRadius=0.2739mm|HoleSize=0mm|Usage=FLASHONLY|Rotation=180.000|XOffset=0mm|YOffset=0mm|HoleType=Round|Shape=RoundedRectangle|*
%AMROUNDEDRECTD42*
21,1,1.1700,0.9812,0,0,180.0*
21,1,0.6222,1.5290,0,0,180.0*
1,1,0.5478,-0.3111,0.4906*
1,1,0.5478,0.3111,0.4906*
1,1,0.5478,0.3111,-0.4906*
1,1,0.5478,-0.3111,-0.4906*
%
%ADD42ROUNDEDRECTD42*%
%ADD43C,1.5240*%
%ADD44C,1.6740*%
%ADD45C,2.6000*%
%ADD46C,0.1500*%
%ADD47C,1.6500*%
%ADD48C,2.9500*%
%ADD49C,1.4500*%
%ADD50C,1.1500*%
%ADD51C,2.0550*%
%ADD52O,2.5500X1.3500*%
%ADD53C,0.7500*%
%ADD54C,0.8500*%
G36*
X757500Y1278000D02*
Y1256000D01*
X740900D01*
Y1278000D01*
X757500D01*
D02*
G37*
G36*
X787500Y1276250D02*
X787760Y1276240D01*
X788020Y1276220D01*
X788280Y1276190D01*
X788540Y1276140D01*
X788790Y1276080D01*
X789050Y1276010D01*
X789290Y1275920D01*
X789530Y1275820D01*
X789770Y1275710D01*
X790000Y1275580D01*
X790220Y1275440D01*
X790440Y1275300D01*
X790650Y1275140D01*
X790850Y1274970D01*
X791040Y1274790D01*
X791220Y1274600D01*
X791390Y1274400D01*
X791550Y1274190D01*
X791690Y1273970D01*
X791830Y1273750D01*
X791960Y1273520D01*
X792070Y1273280D01*
X792170Y1273040D01*
X792260Y1272800D01*
X792330Y1272540D01*
X792390Y1272290D01*
X792440Y1272030D01*
X792470Y1271770D01*
X792490Y1271510D01*
X792500Y1271250D01*
Y1266250D01*
X792490Y1265990D01*
X792470Y1265730D01*
X792440Y1265470D01*
X792390Y1265210D01*
X792330Y1264960D01*
X792260Y1264700D01*
X792170Y1264460D01*
X792070Y1264220D01*
X791960Y1263980D01*
X791830Y1263750D01*
X791690Y1263530D01*
X791550Y1263310D01*
X791390Y1263100D01*
X791220Y1262900D01*
X791040Y1262710D01*
X790850Y1262530D01*
X790650Y1262360D01*
X790440Y1262200D01*
X790220Y1262060D01*
X790000Y1261920D01*
X789770Y1261790D01*
X789530Y1261680D01*
X789290Y1261580D01*
X789050Y1261490D01*
X788790Y1261420D01*
X788540Y1261360D01*
X788280Y1261310D01*
X788020Y1261280D01*
X787760Y1261260D01*
X787500Y1261250D01*
X767000D01*
Y1256000D01*
X758000D01*
Y1276250D01*
X787500D01*
D02*
G37*
G36*
X757500Y1336000D02*
Y1314000D01*
X740900D01*
Y1336000D01*
X757500D01*
D02*
G37*
G36*
X767000D02*
Y1330750D01*
X787500D01*
X787760Y1330740D01*
X788020Y1330720D01*
X788280Y1330690D01*
X788540Y1330640D01*
X788790Y1330580D01*
X789050Y1330510D01*
X789290Y1330420D01*
X789530Y1330320D01*
X789770Y1330210D01*
X790000Y1330080D01*
X790220Y1329940D01*
X790440Y1329800D01*
X790650Y1329640D01*
X790850Y1329470D01*
X791040Y1329290D01*
X791220Y1329100D01*
X791390Y1328900D01*
X791550Y1328690D01*
X791690Y1328470D01*
X791830Y1328250D01*
X791960Y1328020D01*
X792070Y1327780D01*
X792170Y1327540D01*
X792260Y1327300D01*
X792330Y1327040D01*
X792390Y1326790D01*
X792440Y1326530D01*
X792470Y1326270D01*
X792490Y1326010D01*
X792500Y1325750D01*
Y1320750D01*
X792490Y1320490D01*
X792470Y1320230D01*
X792440Y1319970D01*
X792390Y1319710D01*
X792330Y1319460D01*
X792260Y1319200D01*
X792170Y1318960D01*
X792070Y1318720D01*
X791960Y1318480D01*
X791830Y1318250D01*
X791690Y1318030D01*
X791550Y1317810D01*
X791390Y1317600D01*
X791220Y1317400D01*
X791040Y1317210D01*
X790850Y1317030D01*
X790650Y1316860D01*
X790440Y1316700D01*
X790220Y1316560D01*
X790000Y1316420D01*
X789770Y1316290D01*
X789530Y1316180D01*
X789290Y1316080D01*
X789050Y1315990D01*
X788790Y1315920D01*
X788540Y1315860D01*
X788280Y1315810D01*
X788020Y1315780D01*
X787760Y1315760D01*
X787500Y1315750D01*
X758000D01*
Y1336000D01*
X767000D01*
D02*
G37*
D30*
X359500Y1137500D02*
D03*
Y1152600D02*
D03*
X439500Y1272450D02*
D03*
Y1287550D02*
D03*
X374619Y1266591D02*
D03*
Y1251491D02*
D03*
X200619Y1266591D02*
D03*
Y1251491D02*
D03*
X205500Y1188550D02*
D03*
Y1173450D02*
D03*
D31*
X240619Y1265541D02*
D03*
X335619D02*
D03*
D32*
X339310Y1104500D02*
D03*
Y1112500D02*
D03*
Y1120500D02*
D03*
Y1128500D02*
D03*
Y1136500D02*
D03*
Y1144500D02*
D03*
Y1152500D02*
D03*
Y1160500D02*
D03*
Y1168500D02*
D03*
Y1176500D02*
D03*
Y1184500D02*
D03*
X226690D02*
D03*
Y1176500D02*
D03*
Y1168500D02*
D03*
Y1160500D02*
D03*
Y1152500D02*
D03*
Y1144500D02*
D03*
Y1136500D02*
D03*
Y1128500D02*
D03*
Y1120500D02*
D03*
Y1112500D02*
D03*
Y1104500D02*
D03*
D33*
X323000Y1200810D02*
D03*
X315000D02*
D03*
X307000D02*
D03*
X299000D02*
D03*
X291000D02*
D03*
X283000D02*
D03*
X275000D02*
D03*
X267000D02*
D03*
X259000D02*
D03*
X251000D02*
D03*
X243000D02*
D03*
Y1088190D02*
D03*
X251000D02*
D03*
X259000D02*
D03*
X267000D02*
D03*
X275000D02*
D03*
X283000D02*
D03*
X291000D02*
D03*
X299000D02*
D03*
X307000D02*
D03*
X315000D02*
D03*
X323000D02*
D03*
D34*
X455500Y1287550D02*
D03*
Y1272450D02*
D03*
X424000D02*
D03*
Y1287550D02*
D03*
D35*
X598950Y1300000D02*
D03*
X614050D02*
D03*
X598950Y1285000D02*
D03*
X614050D02*
D03*
X129950Y1040543D02*
D03*
X145050D02*
D03*
Y1025290D02*
D03*
X129950D02*
D03*
X79450Y1040543D02*
D03*
X94550D02*
D03*
Y1025290D02*
D03*
X79450D02*
D03*
D36*
X782000Y1305625D02*
D03*
Y1286375D02*
D03*
D37*
X751250Y1309000D02*
D03*
Y1302500D02*
D03*
Y1296000D02*
D03*
Y1289500D02*
D03*
Y1283000D02*
D03*
D38*
X637000Y1272350D02*
D03*
Y1253650D02*
D03*
D39*
X777000Y287500D02*
D03*
Y270500D02*
D03*
X586000Y201000D02*
D03*
Y184000D02*
D03*
X395000Y201000D02*
D03*
Y184000D02*
D03*
X586000Y387000D02*
D03*
Y370000D02*
D03*
X395000Y385500D02*
D03*
Y368500D02*
D03*
X204500Y387500D02*
D03*
Y370500D02*
D03*
X777000Y673053D02*
D03*
Y656053D02*
D03*
X586000Y578000D02*
D03*
Y561000D02*
D03*
X395000Y578000D02*
D03*
Y561000D02*
D03*
X204500Y578000D02*
D03*
Y561000D02*
D03*
X777000Y958500D02*
D03*
Y941500D02*
D03*
X586000Y768500D02*
D03*
Y751500D02*
D03*
X395000Y768500D02*
D03*
Y751500D02*
D03*
X204500Y768500D02*
D03*
Y751500D02*
D03*
X586000Y958500D02*
D03*
Y941500D02*
D03*
X395000Y958500D02*
D03*
Y941500D02*
D03*
X204500Y958500D02*
D03*
Y941500D02*
D03*
D40*
X714960Y1273300D02*
D03*
Y1286000D02*
D03*
Y1298700D02*
D03*
Y1311400D02*
D03*
X664500D02*
D03*
Y1298700D02*
D03*
Y1286000D02*
D03*
Y1273300D02*
D03*
D41*
X145050Y1055790D02*
D03*
X129950D02*
D03*
X374550Y1114000D02*
D03*
X359450D02*
D03*
X94550Y1055790D02*
D03*
X79450D02*
D03*
X300950Y1221000D02*
D03*
X316050D02*
D03*
X250169Y1070041D02*
D03*
X235069D02*
D03*
D42*
X310569Y1067041D02*
D03*
X327669D02*
D03*
D43*
X61100Y1290600D02*
D03*
X86500D02*
D03*
X111900D02*
D03*
X61100Y1316000D02*
D03*
X86500D02*
D03*
X111900D02*
D03*
D44*
X680208Y215571D02*
D03*
X489771Y124759D02*
D03*
X204250Y120501D02*
D03*
X490001Y311000D02*
D03*
X299500D02*
D03*
X109000D02*
D03*
X680208Y596570D02*
D03*
X490001Y501500D02*
D03*
X299500D02*
D03*
X109000D02*
D03*
X680501Y882500D02*
D03*
X490001Y692000D02*
D03*
X299500D02*
D03*
X109000D02*
D03*
X490001Y882500D02*
D03*
X299500D02*
D03*
X109000D02*
D03*
D45*
X718308Y190171D02*
D03*
X654808Y164771D02*
D03*
X527871Y99359D02*
D03*
X464371Y73959D02*
D03*
X242350Y95101D02*
D03*
X178850Y69701D02*
D03*
X528101Y285600D02*
D03*
X464601Y260200D02*
D03*
X337600Y285600D02*
D03*
X274100Y260200D02*
D03*
X147100Y285600D02*
D03*
X83600Y260200D02*
D03*
X718308Y571170D02*
D03*
X654808Y545770D02*
D03*
X528101Y476100D02*
D03*
X464601Y450700D02*
D03*
X337600Y476100D02*
D03*
X274100Y450700D02*
D03*
X147100Y476100D02*
D03*
X83600Y450700D02*
D03*
X718601Y857100D02*
D03*
X655101Y831700D02*
D03*
X528101Y666600D02*
D03*
X464601Y641200D02*
D03*
X337600Y666600D02*
D03*
X274100Y641200D02*
D03*
X147100Y666600D02*
D03*
X83600Y641200D02*
D03*
X528101Y857100D02*
D03*
X464601Y831700D02*
D03*
X337600Y857100D02*
D03*
X274100Y831700D02*
D03*
X147100Y857100D02*
D03*
X83600Y831700D02*
D03*
D46*
X629408Y215571D02*
D03*
X731008D02*
D03*
X438971Y124759D02*
D03*
X540571D02*
D03*
X153450Y120501D02*
D03*
X255050D02*
D03*
X439201Y311000D02*
D03*
X540801D02*
D03*
X248700D02*
D03*
X350300D02*
D03*
X58200D02*
D03*
X159800D02*
D03*
X629408Y596570D02*
D03*
X731008D02*
D03*
X439201Y501500D02*
D03*
X540801D02*
D03*
X248700D02*
D03*
X350300D02*
D03*
X58200D02*
D03*
X159800D02*
D03*
X629701Y882500D02*
D03*
X731301D02*
D03*
X439201Y692000D02*
D03*
X540801D02*
D03*
X248700D02*
D03*
X350300D02*
D03*
X58200D02*
D03*
X159800D02*
D03*
X439201Y882500D02*
D03*
X540801D02*
D03*
X248700D02*
D03*
X350300D02*
D03*
X58200D02*
D03*
X159800D02*
D03*
D47*
X543500Y1319500D02*
D03*
X478500D02*
D03*
X543500Y1274500D02*
D03*
X478500D02*
D03*
D48*
X166000Y1156500D02*
D03*
X44000D02*
D03*
D49*
X105000Y1081500D02*
D03*
X130000D02*
D03*
X80000D02*
D03*
X130000Y1226500D02*
D03*
X80000D02*
D03*
D50*
X750208Y96071D02*
D03*
Y334071D02*
D03*
X597808Y96571D02*
D03*
Y334571D02*
D03*
X323750Y190501D02*
D03*
X85750D02*
D03*
X323250Y38101D02*
D03*
X85250D02*
D03*
X750208Y477070D02*
D03*
Y715070D02*
D03*
X597808Y477570D02*
D03*
Y715570D02*
D03*
D51*
X532171Y1042959D02*
D03*
X633771D02*
D03*
X659171D02*
D03*
X608371D02*
D03*
X582971D02*
D03*
X557571D02*
D03*
D52*
X779500Y1323250D02*
D03*
Y1268750D02*
D03*
D53*
X359500Y1190500D02*
D03*
X366000Y1184000D02*
D03*
X369000Y1168500D02*
D03*
X216000Y1097500D02*
D03*
X731000Y1304500D02*
D03*
D54*
X374000Y1136500D02*
D03*
X374500Y1152500D02*
D03*
X390000Y1114500D02*
D03*
X439500Y1261000D02*
D03*
X301000Y1234000D02*
D03*
X316000Y1233500D02*
D03*
X327500Y1052000D02*
D03*
X310500D02*
D03*
X193000Y1173000D02*
D03*
X262000Y1218500D02*
D03*
X263000Y1067000D02*
D03*
X271000Y1057000D02*
D03*
X282000Y1053500D02*
D03*
X295500Y1070500D02*
D03*
X374500Y1237000D02*
D03*
X650900Y1319740D02*
D03*
X660000Y1247000D02*
D03*
X616000D02*
D03*
X616000Y1233000D02*
D03*
X424000Y1263000D02*
D03*
X630667Y1233000D02*
D03*
X660000D02*
D03*
X645333D02*
D03*
X217000Y985500D02*
D03*
X272500Y1220000D02*
D03*
X250000Y1057000D02*
D03*
X235000Y1057500D02*
D03*
X728500Y1319000D02*
D03*
X115500Y1025290D02*
D03*
X159500Y1055790D02*
D03*
X109000D02*
D03*
X65000Y1025290D02*
D03*
X193500Y1189000D02*
D03*
X200500Y1239500D02*
D03*
M02*
