G04*
G04 #@! TF.GenerationSoftware,Altium Limited,Altium Designer,22.9.1 (49)*
G04*
G04 Layer_Color=2752767*
%FSLAX44Y44*%
%MOMM*%
G71*
G04*
G04 #@! TF.SameCoordinates,E961C7B3-AF31-4016-A867-0A9A946A4240*
G04*
G04*
G04 #@! TF.FilePolarity,Positive*
G04*
G01*
G75*
%ADD74C,0.0508*%
%ADD75C,0.0677*%
%ADD76C,0.0339*%
D74*
X59068Y1288568D02*
X60084Y1290600D01*
X59068Y1292632D01*
X61100Y1291616D01*
X63132Y1292632D01*
X62116Y1290600D01*
X63132Y1288568D01*
X61100Y1289584D01*
X59068Y1288568D01*
X84468D02*
X85484Y1290600D01*
X84468Y1292632D01*
X86500Y1291616D01*
X88532Y1292632D01*
X87516Y1290600D01*
X88532Y1288568D01*
X86500Y1289584D01*
X84468Y1288568D01*
X109868D02*
X110884Y1290600D01*
X109868Y1292632D01*
X111900Y1291616D01*
X113932Y1292632D01*
X112916Y1290600D01*
X113932Y1288568D01*
X111900Y1289584D01*
X109868Y1288568D01*
X59068Y1313968D02*
X60084Y1316000D01*
X59068Y1318032D01*
X61100Y1317016D01*
X63132Y1318032D01*
X62116Y1316000D01*
X63132Y1313968D01*
X61100Y1314984D01*
X59068Y1313968D01*
X84468D02*
X85484Y1316000D01*
X84468Y1318032D01*
X86500Y1317016D01*
X88532Y1318032D01*
X87516Y1316000D01*
X88532Y1313968D01*
X86500Y1314984D01*
X84468Y1313968D01*
X109868D02*
X110884Y1316000D01*
X109868Y1318032D01*
X111900Y1317016D01*
X113932Y1318032D01*
X112916Y1316000D01*
X113932Y1313968D01*
X111900Y1314984D01*
X109868Y1313968D01*
X680208Y213539D02*
X681224Y214555D01*
X682240D01*
X681224Y215571D01*
X682240Y216587D01*
X681224D01*
X680208Y217603D01*
X679192Y216587D01*
X678176D01*
X679192Y215571D01*
X678176Y214555D01*
X679192D01*
X680208Y213539D01*
X718308Y188139D02*
X716276Y192203D01*
X720340D01*
X718308Y188139D01*
X654808Y162739D02*
X652776Y166803D01*
X656840D01*
X654808Y162739D01*
X489771Y122727D02*
X490787Y123743D01*
X491803D01*
X490787Y124759D01*
X491803Y125775D01*
X490787D01*
X489771Y126791D01*
X488755Y125775D01*
X487739D01*
X488755Y124759D01*
X487739Y123743D01*
X488755D01*
X489771Y122727D01*
X527871Y97327D02*
X525839Y101391D01*
X529903D01*
X527871Y97327D01*
X464371Y71927D02*
X462339Y75991D01*
X466403D01*
X464371Y71927D01*
X204250Y118469D02*
X205266Y119485D01*
X206282D01*
X205266Y120501D01*
X206282Y121517D01*
X205266D01*
X204250Y122533D01*
X203234Y121517D01*
X202218D01*
X203234Y120501D01*
X202218Y119485D01*
X203234D01*
X204250Y118469D01*
X242350Y93069D02*
X240318Y97133D01*
X244382D01*
X242350Y93069D01*
X178850Y67669D02*
X176818Y71733D01*
X180882D01*
X178850Y67669D01*
X490001Y308968D02*
X491017Y309984D01*
X492033D01*
X491017Y311000D01*
X492033Y312016D01*
X491017D01*
X490001Y313032D01*
X488985Y312016D01*
X487969D01*
X488985Y311000D01*
X487969Y309984D01*
X488985D01*
X490001Y308968D01*
X528101Y283568D02*
X526069Y287632D01*
X530133D01*
X528101Y283568D01*
X464601Y258168D02*
X462569Y262232D01*
X466633D01*
X464601Y258168D01*
X299500Y308968D02*
X300516Y309984D01*
X301532D01*
X300516Y311000D01*
X301532Y312016D01*
X300516D01*
X299500Y313032D01*
X298484Y312016D01*
X297468D01*
X298484Y311000D01*
X297468Y309984D01*
X298484D01*
X299500Y308968D01*
X337600Y283568D02*
X335568Y287632D01*
X339632D01*
X337600Y283568D01*
X274100Y258168D02*
X272068Y262232D01*
X276132D01*
X274100Y258168D01*
X109000Y308968D02*
X110016Y309984D01*
X111032D01*
X110016Y311000D01*
X111032Y312016D01*
X110016D01*
X109000Y313032D01*
X107984Y312016D01*
X106968D01*
X107984Y311000D01*
X106968Y309984D01*
X107984D01*
X109000Y308968D01*
X147100Y283568D02*
X145068Y287632D01*
X149132D01*
X147100Y283568D01*
X83600Y258168D02*
X81568Y262232D01*
X85632D01*
X83600Y258168D01*
X680208Y594538D02*
X681224Y595554D01*
X682240D01*
X681224Y596570D01*
X682240Y597586D01*
X681224D01*
X680208Y598602D01*
X679192Y597586D01*
X678176D01*
X679192Y596570D01*
X678176Y595554D01*
X679192D01*
X680208Y594538D01*
X718308Y569138D02*
X716276Y573202D01*
X720340D01*
X718308Y569138D01*
X654808Y543738D02*
X652776Y547802D01*
X656840D01*
X654808Y543738D01*
X490001Y499468D02*
X491017Y500484D01*
X492033D01*
X491017Y501500D01*
X492033Y502516D01*
X491017D01*
X490001Y503532D01*
X488985Y502516D01*
X487969D01*
X488985Y501500D01*
X487969Y500484D01*
X488985D01*
X490001Y499468D01*
X528101Y474068D02*
X526069Y478132D01*
X530133D01*
X528101Y474068D01*
X464601Y448668D02*
X462569Y452732D01*
X466633D01*
X464601Y448668D01*
X299500Y499468D02*
X300516Y500484D01*
X301532D01*
X300516Y501500D01*
X301532Y502516D01*
X300516D01*
X299500Y503532D01*
X298484Y502516D01*
X297468D01*
X298484Y501500D01*
X297468Y500484D01*
X298484D01*
X299500Y499468D01*
X337600Y474068D02*
X335568Y478132D01*
X339632D01*
X337600Y474068D01*
X274100Y448668D02*
X272068Y452732D01*
X276132D01*
X274100Y448668D01*
X109000Y499468D02*
X110016Y500484D01*
X111032D01*
X110016Y501500D01*
X111032Y502516D01*
X110016D01*
X109000Y503532D01*
X107984Y502516D01*
X106968D01*
X107984Y501500D01*
X106968Y500484D01*
X107984D01*
X109000Y499468D01*
X147100Y474068D02*
X145068Y478132D01*
X149132D01*
X147100Y474068D01*
X83600Y448668D02*
X81568Y452732D01*
X85632D01*
X83600Y448668D01*
X541468Y1317468D02*
Y1321532D01*
X545532D01*
Y1317468D01*
X541468D01*
X476468D02*
Y1321532D01*
X480532D01*
Y1317468D01*
X476468D01*
X541468Y1272468D02*
Y1276532D01*
X545532D01*
Y1272468D01*
X541468D01*
X476468D02*
Y1276532D01*
X480532D01*
Y1272468D01*
X476468D01*
X680501Y880468D02*
X681517Y881484D01*
X682533D01*
X681517Y882500D01*
X682533Y883516D01*
X681517D01*
X680501Y884532D01*
X679485Y883516D01*
X678469D01*
X679485Y882500D01*
X678469Y881484D01*
X679485D01*
X680501Y880468D01*
X718601Y855068D02*
X716569Y859132D01*
X720633D01*
X718601Y855068D01*
X655101Y829668D02*
X653069Y833732D01*
X657133D01*
X655101Y829668D01*
X490001Y689968D02*
X491017Y690984D01*
X492033D01*
X491017Y692000D01*
X492033Y693016D01*
X491017D01*
X490001Y694032D01*
X488985Y693016D01*
X487969D01*
X488985Y692000D01*
X487969Y690984D01*
X488985D01*
X490001Y689968D01*
X528101Y664568D02*
X526069Y668632D01*
X530133D01*
X528101Y664568D01*
X464601Y639168D02*
X462569Y643232D01*
X466633D01*
X464601Y639168D01*
X299500Y689968D02*
X300516Y690984D01*
X301532D01*
X300516Y692000D01*
X301532Y693016D01*
X300516D01*
X299500Y694032D01*
X298484Y693016D01*
X297468D01*
X298484Y692000D01*
X297468Y690984D01*
X298484D01*
X299500Y689968D01*
X337600Y664568D02*
X335568Y668632D01*
X339632D01*
X337600Y664568D01*
X274100Y639168D02*
X272068Y643232D01*
X276132D01*
X274100Y639168D01*
X109000Y689968D02*
X110016Y690984D01*
X111032D01*
X110016Y692000D01*
X111032Y693016D01*
X110016D01*
X109000Y694032D01*
X107984Y693016D01*
X106968D01*
X107984Y692000D01*
X106968Y690984D01*
X107984D01*
X109000Y689968D01*
X147100Y664568D02*
X145068Y668632D01*
X149132D01*
X147100Y664568D01*
X83600Y639168D02*
X81568Y643232D01*
X85632D01*
X83600Y639168D01*
X490001Y880468D02*
X491017Y881484D01*
X492033D01*
X491017Y882500D01*
X492033Y883516D01*
X491017D01*
X490001Y884532D01*
X488985Y883516D01*
X487969D01*
X488985Y882500D01*
X487969Y881484D01*
X488985D01*
X490001Y880468D01*
X528101Y855068D02*
X526069Y859132D01*
X530133D01*
X528101Y855068D01*
X464601Y829668D02*
X462569Y833732D01*
X466633D01*
X464601Y829668D01*
X299500Y880468D02*
X300516Y881484D01*
X301532D01*
X300516Y882500D01*
X301532Y883516D01*
X300516D01*
X299500Y884532D01*
X298484Y883516D01*
X297468D01*
X298484Y882500D01*
X297468Y881484D01*
X298484D01*
X299500Y880468D01*
X337600Y855068D02*
X335568Y859132D01*
X339632D01*
X337600Y855068D01*
X274100Y829668D02*
X272068Y833732D01*
X276132D01*
X274100Y829668D01*
X109000Y880468D02*
X110016Y881484D01*
X111032D01*
X110016Y882500D01*
X111032Y883516D01*
X110016D01*
X109000Y884532D01*
X107984Y883516D01*
X106968D01*
X107984Y882500D01*
X106968Y881484D01*
X107984D01*
X109000Y880468D01*
X147100Y855068D02*
X145068Y859132D01*
X149132D01*
X147100Y855068D01*
X83600Y829668D02*
X81568Y833732D01*
X85632D01*
X83600Y829668D01*
X163968Y1156500D02*
X166000Y1158532D01*
X168032Y1156500D01*
X166000Y1154468D01*
X163968Y1156500D01*
X41968D02*
X44000Y1158532D01*
X46032Y1156500D01*
X44000Y1154468D01*
X41968Y1156500D01*
X102968Y1079468D02*
Y1083532D01*
X107032D01*
Y1079468D01*
X102968D01*
X127968D02*
Y1083532D01*
X132032D01*
Y1079468D01*
X127968D01*
X77968D02*
Y1083532D01*
X82032D01*
Y1079468D01*
X77968D01*
X127968Y1224468D02*
Y1228532D01*
X132032D01*
Y1224468D01*
X127968D01*
X77968D02*
Y1228532D01*
X82032D01*
Y1224468D01*
X77968D01*
X748176Y94039D02*
Y98103D01*
X752240D01*
Y94039D01*
X748176D01*
X749192Y95055D02*
Y97087D01*
X751224D01*
Y95055D01*
X749192D01*
X748176Y332039D02*
Y336103D01*
X752240D01*
Y332039D01*
X748176D01*
X749192Y333055D02*
Y335087D01*
X751224D01*
Y333055D01*
X749192D01*
X321718Y188469D02*
Y192533D01*
X325782D01*
Y188469D01*
X321718D01*
X322734Y189485D02*
Y191517D01*
X324766D01*
Y189485D01*
X322734D01*
X83718Y188469D02*
Y192533D01*
X87782D01*
Y188469D01*
X83718D01*
X84734Y189485D02*
Y191517D01*
X86766D01*
Y189485D01*
X84734D01*
X748176Y475038D02*
Y479102D01*
X752240D01*
Y475038D01*
X748176D01*
X749192Y476054D02*
Y478086D01*
X751224D01*
Y476054D01*
X749192D01*
X748176Y713038D02*
Y717102D01*
X752240D01*
Y713038D01*
X748176D01*
X749192Y714054D02*
Y716086D01*
X751224D01*
Y714054D01*
X749192D01*
X530139Y1040927D02*
X531155Y1042959D01*
X530139Y1044991D01*
X532171Y1043975D01*
X534203Y1044991D01*
X533187Y1042959D01*
X534203Y1040927D01*
X532171Y1041943D01*
X530139Y1040927D01*
X631739D02*
X632755Y1042959D01*
X631739Y1044991D01*
X633771Y1043975D01*
X635803Y1044991D01*
X634787Y1042959D01*
X635803Y1040927D01*
X633771Y1041943D01*
X631739Y1040927D01*
X657139D02*
X658155Y1042959D01*
X657139Y1044991D01*
X659171Y1043975D01*
X661203Y1044991D01*
X660187Y1042959D01*
X661203Y1040927D01*
X659171Y1041943D01*
X657139Y1040927D01*
X606339D02*
X607355Y1042959D01*
X606339Y1044991D01*
X608371Y1043975D01*
X610403Y1044991D01*
X609387Y1042959D01*
X610403Y1040927D01*
X608371Y1041943D01*
X606339Y1040927D01*
X580939D02*
X581955Y1042959D01*
X580939Y1044991D01*
X582971Y1043975D01*
X585003Y1044991D01*
X583987Y1042959D01*
X585003Y1040927D01*
X582971Y1041943D01*
X580939Y1040927D01*
X555539D02*
X556555Y1042959D01*
X555539Y1044991D01*
X557571Y1043975D01*
X559603Y1044991D01*
X558587Y1042959D01*
X559603Y1040927D01*
X557571Y1041943D01*
X555539Y1040927D01*
X778484Y1322234D02*
Y1321218D01*
X780516D01*
Y1322234D01*
X781532D01*
Y1324266D01*
X780516D01*
Y1325282D01*
X778484D01*
Y1324266D01*
X777468D01*
Y1322234D01*
X778484D01*
Y1267734D02*
Y1266718D01*
X780516D01*
Y1267734D01*
X781532D01*
Y1269766D01*
X780516D01*
Y1270782D01*
X778484D01*
Y1269766D01*
X777468D01*
Y1267734D01*
X778484D01*
X747168Y1318218D02*
X748184D01*
X749200Y1319234D01*
X750216Y1318218D01*
X751232D01*
Y1319234D01*
X750216Y1320250D01*
X751232Y1321266D01*
Y1322282D01*
X750216D01*
X749200Y1321266D01*
X748184Y1322282D01*
X747168D01*
Y1321266D01*
X748184Y1320250D01*
X747168Y1319234D01*
Y1318218D01*
Y1269718D02*
X748184D01*
X749200Y1270734D01*
X750216Y1269718D01*
X751232D01*
Y1270734D01*
X750216Y1271750D01*
X751232Y1272766D01*
Y1273782D01*
X750216D01*
X749200Y1272766D01*
X748184Y1273782D01*
X747168D01*
Y1272766D01*
X748184Y1271750D01*
X747168Y1270734D01*
Y1269718D01*
X359500Y1188468D02*
X357468Y1192532D01*
X361532D01*
X359500Y1188468D01*
Y1189484D02*
X358484Y1191516D01*
X360516D01*
X359500Y1189484D01*
X366000Y1181968D02*
X363968Y1186032D01*
X368032D01*
X366000Y1181968D01*
Y1182984D02*
X364984Y1185016D01*
X367016D01*
X366000Y1182984D01*
X369000Y1166468D02*
X366968Y1170532D01*
X371032D01*
X369000Y1166468D01*
Y1167484D02*
X367984Y1169516D01*
X370016D01*
X369000Y1167484D01*
X216000Y1095468D02*
X213968Y1099532D01*
X218032D01*
X216000Y1095468D01*
Y1096484D02*
X214984Y1098516D01*
X217016D01*
X216000Y1096484D01*
X374000Y1134468D02*
X375016Y1135484D01*
X376032D01*
X375016Y1136500D01*
X376032Y1137516D01*
X375016D01*
X374000Y1138532D01*
X372984Y1137516D01*
X371968D01*
X372984Y1136500D01*
X371968Y1135484D01*
X372984D01*
X374000Y1134468D01*
Y1135484D02*
X374508Y1135992D01*
X375016D01*
X374508Y1136500D01*
X375016Y1137008D01*
X374508D01*
X374000Y1137516D01*
X373492Y1137008D01*
X372984D01*
X373492Y1136500D01*
X372984Y1135992D01*
X373492D01*
X374000Y1135484D01*
X374500Y1150468D02*
X375516Y1151484D01*
X376532D01*
X375516Y1152500D01*
X376532Y1153516D01*
X375516D01*
X374500Y1154532D01*
X373484Y1153516D01*
X372468D01*
X373484Y1152500D01*
X372468Y1151484D01*
X373484D01*
X374500Y1150468D01*
Y1151484D02*
X375008Y1151992D01*
X375516D01*
X375008Y1152500D01*
X375516Y1153008D01*
X375008D01*
X374500Y1153516D01*
X373992Y1153008D01*
X373484D01*
X373992Y1152500D01*
X373484Y1151992D01*
X373992D01*
X374500Y1151484D01*
X390000Y1112468D02*
X391016Y1113484D01*
X392032D01*
X391016Y1114500D01*
X392032Y1115516D01*
X391016D01*
X390000Y1116532D01*
X388984Y1115516D01*
X387968D01*
X388984Y1114500D01*
X387968Y1113484D01*
X388984D01*
X390000Y1112468D01*
Y1113484D02*
X390508Y1113992D01*
X391016D01*
X390508Y1114500D01*
X391016Y1115008D01*
X390508D01*
X390000Y1115516D01*
X389492Y1115008D01*
X388984D01*
X389492Y1114500D01*
X388984Y1113992D01*
X389492D01*
X390000Y1113484D01*
X439500Y1258968D02*
X440516Y1259984D01*
X441532D01*
X440516Y1261000D01*
X441532Y1262016D01*
X440516D01*
X439500Y1263032D01*
X438484Y1262016D01*
X437468D01*
X438484Y1261000D01*
X437468Y1259984D01*
X438484D01*
X439500Y1258968D01*
Y1259984D02*
X440008Y1260492D01*
X440516D01*
X440008Y1261000D01*
X440516Y1261508D01*
X440008D01*
X439500Y1262016D01*
X438992Y1261508D01*
X438484D01*
X438992Y1261000D01*
X438484Y1260492D01*
X438992D01*
X439500Y1259984D01*
X731000Y1302468D02*
X728968Y1306532D01*
X733032D01*
X731000Y1302468D01*
Y1303484D02*
X729984Y1305516D01*
X732016D01*
X731000Y1303484D01*
X301000Y1231968D02*
X302016Y1232984D01*
X303032D01*
X302016Y1234000D01*
X303032Y1235016D01*
X302016D01*
X301000Y1236032D01*
X299984Y1235016D01*
X298968D01*
X299984Y1234000D01*
X298968Y1232984D01*
X299984D01*
X301000Y1231968D01*
Y1232984D02*
X301508Y1233492D01*
X302016D01*
X301508Y1234000D01*
X302016Y1234508D01*
X301508D01*
X301000Y1235016D01*
X300492Y1234508D01*
X299984D01*
X300492Y1234000D01*
X299984Y1233492D01*
X300492D01*
X301000Y1232984D01*
X316000Y1231468D02*
X317016Y1232484D01*
X318032D01*
X317016Y1233500D01*
X318032Y1234516D01*
X317016D01*
X316000Y1235532D01*
X314984Y1234516D01*
X313968D01*
X314984Y1233500D01*
X313968Y1232484D01*
X314984D01*
X316000Y1231468D01*
Y1232484D02*
X316508Y1232992D01*
X317016D01*
X316508Y1233500D01*
X317016Y1234008D01*
X316508D01*
X316000Y1234516D01*
X315492Y1234008D01*
X314984D01*
X315492Y1233500D01*
X314984Y1232992D01*
X315492D01*
X316000Y1232484D01*
X327500Y1049968D02*
X328516Y1050984D01*
X329532D01*
X328516Y1052000D01*
X329532Y1053016D01*
X328516D01*
X327500Y1054032D01*
X326484Y1053016D01*
X325468D01*
X326484Y1052000D01*
X325468Y1050984D01*
X326484D01*
X327500Y1049968D01*
Y1050984D02*
X328008Y1051492D01*
X328516D01*
X328008Y1052000D01*
X328516Y1052508D01*
X328008D01*
X327500Y1053016D01*
X326992Y1052508D01*
X326484D01*
X326992Y1052000D01*
X326484Y1051492D01*
X326992D01*
X327500Y1050984D01*
X310500Y1049968D02*
X311516Y1050984D01*
X312532D01*
X311516Y1052000D01*
X312532Y1053016D01*
X311516D01*
X310500Y1054032D01*
X309484Y1053016D01*
X308468D01*
X309484Y1052000D01*
X308468Y1050984D01*
X309484D01*
X310500Y1049968D01*
Y1050984D02*
X311008Y1051492D01*
X311516D01*
X311008Y1052000D01*
X311516Y1052508D01*
X311008D01*
X310500Y1053016D01*
X309992Y1052508D01*
X309484D01*
X309992Y1052000D01*
X309484Y1051492D01*
X309992D01*
X310500Y1050984D01*
X193000Y1170968D02*
X194016Y1171984D01*
X195032D01*
X194016Y1173000D01*
X195032Y1174016D01*
X194016D01*
X193000Y1175032D01*
X191984Y1174016D01*
X190968D01*
X191984Y1173000D01*
X190968Y1171984D01*
X191984D01*
X193000Y1170968D01*
Y1171984D02*
X193508Y1172492D01*
X194016D01*
X193508Y1173000D01*
X194016Y1173508D01*
X193508D01*
X193000Y1174016D01*
X192492Y1173508D01*
X191984D01*
X192492Y1173000D01*
X191984Y1172492D01*
X192492D01*
X193000Y1171984D01*
X262000Y1216468D02*
X263016Y1217484D01*
X264032D01*
X263016Y1218500D01*
X264032Y1219516D01*
X263016D01*
X262000Y1220532D01*
X260984Y1219516D01*
X259968D01*
X260984Y1218500D01*
X259968Y1217484D01*
X260984D01*
X262000Y1216468D01*
Y1217484D02*
X262508Y1217992D01*
X263016D01*
X262508Y1218500D01*
X263016Y1219008D01*
X262508D01*
X262000Y1219516D01*
X261492Y1219008D01*
X260984D01*
X261492Y1218500D01*
X260984Y1217992D01*
X261492D01*
X262000Y1217484D01*
X263000Y1064968D02*
X264016Y1065984D01*
X265032D01*
X264016Y1067000D01*
X265032Y1068016D01*
X264016D01*
X263000Y1069032D01*
X261984Y1068016D01*
X260968D01*
X261984Y1067000D01*
X260968Y1065984D01*
X261984D01*
X263000Y1064968D01*
Y1065984D02*
X263508Y1066492D01*
X264016D01*
X263508Y1067000D01*
X264016Y1067508D01*
X263508D01*
X263000Y1068016D01*
X262492Y1067508D01*
X261984D01*
X262492Y1067000D01*
X261984Y1066492D01*
X262492D01*
X263000Y1065984D01*
X271000Y1054968D02*
X272016Y1055984D01*
X273032D01*
X272016Y1057000D01*
X273032Y1058016D01*
X272016D01*
X271000Y1059032D01*
X269984Y1058016D01*
X268968D01*
X269984Y1057000D01*
X268968Y1055984D01*
X269984D01*
X271000Y1054968D01*
Y1055984D02*
X271508Y1056492D01*
X272016D01*
X271508Y1057000D01*
X272016Y1057508D01*
X271508D01*
X271000Y1058016D01*
X270492Y1057508D01*
X269984D01*
X270492Y1057000D01*
X269984Y1056492D01*
X270492D01*
X271000Y1055984D01*
X282000Y1051468D02*
X283016Y1052484D01*
X284032D01*
X283016Y1053500D01*
X284032Y1054516D01*
X283016D01*
X282000Y1055532D01*
X280984Y1054516D01*
X279968D01*
X280984Y1053500D01*
X279968Y1052484D01*
X280984D01*
X282000Y1051468D01*
Y1052484D02*
X282508Y1052992D01*
X283016D01*
X282508Y1053500D01*
X283016Y1054008D01*
X282508D01*
X282000Y1054516D01*
X281492Y1054008D01*
X280984D01*
X281492Y1053500D01*
X280984Y1052992D01*
X281492D01*
X282000Y1052484D01*
X295500Y1068468D02*
X296516Y1069484D01*
X297532D01*
X296516Y1070500D01*
X297532Y1071516D01*
X296516D01*
X295500Y1072532D01*
X294484Y1071516D01*
X293468D01*
X294484Y1070500D01*
X293468Y1069484D01*
X294484D01*
X295500Y1068468D01*
Y1069484D02*
X296008Y1069992D01*
X296516D01*
X296008Y1070500D01*
X296516Y1071008D01*
X296008D01*
X295500Y1071516D01*
X294992Y1071008D01*
X294484D01*
X294992Y1070500D01*
X294484Y1069992D01*
X294992D01*
X295500Y1069484D01*
X374500Y1234968D02*
X375516Y1235984D01*
X376532D01*
X375516Y1237000D01*
X376532Y1238016D01*
X375516D01*
X374500Y1239032D01*
X373484Y1238016D01*
X372468D01*
X373484Y1237000D01*
X372468Y1235984D01*
X373484D01*
X374500Y1234968D01*
Y1235984D02*
X375008Y1236492D01*
X375516D01*
X375008Y1237000D01*
X375516Y1237508D01*
X375008D01*
X374500Y1238016D01*
X373992Y1237508D01*
X373484D01*
X373992Y1237000D01*
X373484Y1236492D01*
X373992D01*
X374500Y1235984D01*
X650900Y1317708D02*
X651916Y1318724D01*
X652932D01*
X651916Y1319740D01*
X652932Y1320756D01*
X651916D01*
X650900Y1321772D01*
X649884Y1320756D01*
X648868D01*
X649884Y1319740D01*
X648868Y1318724D01*
X649884D01*
X650900Y1317708D01*
Y1318724D02*
X651408Y1319232D01*
X651916D01*
X651408Y1319740D01*
X651916Y1320248D01*
X651408D01*
X650900Y1320756D01*
X650392Y1320248D01*
X649884D01*
X650392Y1319740D01*
X649884Y1319232D01*
X650392D01*
X650900Y1318724D01*
X660000Y1244968D02*
X661016Y1245984D01*
X662032D01*
X661016Y1247000D01*
X662032Y1248016D01*
X661016D01*
X660000Y1249032D01*
X658984Y1248016D01*
X657968D01*
X658984Y1247000D01*
X657968Y1245984D01*
X658984D01*
X660000Y1244968D01*
Y1245984D02*
X660508Y1246492D01*
X661016D01*
X660508Y1247000D01*
X661016Y1247508D01*
X660508D01*
X660000Y1248016D01*
X659492Y1247508D01*
X658984D01*
X659492Y1247000D01*
X658984Y1246492D01*
X659492D01*
X660000Y1245984D01*
X616000Y1244968D02*
X617016Y1245984D01*
X618032D01*
X617016Y1247000D01*
X618032Y1248016D01*
X617016D01*
X616000Y1249032D01*
X614984Y1248016D01*
X613968D01*
X614984Y1247000D01*
X613968Y1245984D01*
X614984D01*
X616000Y1244968D01*
Y1245984D02*
X616508Y1246492D01*
X617016D01*
X616508Y1247000D01*
X617016Y1247508D01*
X616508D01*
X616000Y1248016D01*
X615492Y1247508D01*
X614984D01*
X615492Y1247000D01*
X614984Y1246492D01*
X615492D01*
X616000Y1245984D01*
X616000Y1230968D02*
X617016Y1231984D01*
X618032D01*
X617016Y1233000D01*
X618032Y1234016D01*
X617016D01*
X616000Y1235032D01*
X614984Y1234016D01*
X613968D01*
X614984Y1233000D01*
X613968Y1231984D01*
X614984D01*
X616000Y1230968D01*
Y1231984D02*
X616508Y1232492D01*
X617016D01*
X616508Y1233000D01*
X617016Y1233508D01*
X616508D01*
X616000Y1234016D01*
X615492Y1233508D01*
X614984D01*
X615492Y1233000D01*
X614984Y1232492D01*
X615492D01*
X616000Y1231984D01*
X424000Y1260968D02*
X425016Y1261984D01*
X426032D01*
X425016Y1263000D01*
X426032Y1264016D01*
X425016D01*
X424000Y1265032D01*
X422984Y1264016D01*
X421968D01*
X422984Y1263000D01*
X421968Y1261984D01*
X422984D01*
X424000Y1260968D01*
Y1261984D02*
X424508Y1262492D01*
X425016D01*
X424508Y1263000D01*
X425016Y1263508D01*
X424508D01*
X424000Y1264016D01*
X423492Y1263508D01*
X422984D01*
X423492Y1263000D01*
X422984Y1262492D01*
X423492D01*
X424000Y1261984D01*
X630667Y1230968D02*
X631683Y1231984D01*
X632699D01*
X631683Y1233000D01*
X632699Y1234016D01*
X631683D01*
X630667Y1235032D01*
X629651Y1234016D01*
X628635D01*
X629651Y1233000D01*
X628635Y1231984D01*
X629651D01*
X630667Y1230968D01*
Y1231984D02*
X631175Y1232492D01*
X631683D01*
X631175Y1233000D01*
X631683Y1233508D01*
X631175D01*
X630667Y1234016D01*
X630159Y1233508D01*
X629651D01*
X630159Y1233000D01*
X629651Y1232492D01*
X630159D01*
X630667Y1231984D01*
X660000Y1230968D02*
X661016Y1231984D01*
X662032D01*
X661016Y1233000D01*
X662032Y1234016D01*
X661016D01*
X660000Y1235032D01*
X658984Y1234016D01*
X657968D01*
X658984Y1233000D01*
X657968Y1231984D01*
X658984D01*
X660000Y1230968D01*
Y1231984D02*
X660508Y1232492D01*
X661016D01*
X660508Y1233000D01*
X661016Y1233508D01*
X660508D01*
X660000Y1234016D01*
X659492Y1233508D01*
X658984D01*
X659492Y1233000D01*
X658984Y1232492D01*
X659492D01*
X660000Y1231984D01*
X645333Y1230968D02*
X646349Y1231984D01*
X647365D01*
X646349Y1233000D01*
X647365Y1234016D01*
X646349D01*
X645333Y1235032D01*
X644317Y1234016D01*
X643301D01*
X644317Y1233000D01*
X643301Y1231984D01*
X644317D01*
X645333Y1230968D01*
Y1231984D02*
X645841Y1232492D01*
X646349D01*
X645841Y1233000D01*
X646349Y1233508D01*
X645841D01*
X645333Y1234016D01*
X644825Y1233508D01*
X644317D01*
X644825Y1233000D01*
X644317Y1232492D01*
X644825D01*
X645333Y1231984D01*
X217000Y983468D02*
X218016Y984484D01*
X219032D01*
X218016Y985500D01*
X219032Y986516D01*
X218016D01*
X217000Y987532D01*
X215984Y986516D01*
X214968D01*
X215984Y985500D01*
X214968Y984484D01*
X215984D01*
X217000Y983468D01*
Y984484D02*
X217508Y984992D01*
X218016D01*
X217508Y985500D01*
X218016Y986008D01*
X217508D01*
X217000Y986516D01*
X216492Y986008D01*
X215984D01*
X216492Y985500D01*
X215984Y984992D01*
X216492D01*
X217000Y984484D01*
X272500Y1217968D02*
X273516Y1218984D01*
X274532D01*
X273516Y1220000D01*
X274532Y1221016D01*
X273516D01*
X272500Y1222032D01*
X271484Y1221016D01*
X270468D01*
X271484Y1220000D01*
X270468Y1218984D01*
X271484D01*
X272500Y1217968D01*
Y1218984D02*
X273008Y1219492D01*
X273516D01*
X273008Y1220000D01*
X273516Y1220508D01*
X273008D01*
X272500Y1221016D01*
X271992Y1220508D01*
X271484D01*
X271992Y1220000D01*
X271484Y1219492D01*
X271992D01*
X272500Y1218984D01*
X250000Y1054968D02*
X251016Y1055984D01*
X252032D01*
X251016Y1057000D01*
X252032Y1058016D01*
X251016D01*
X250000Y1059032D01*
X248984Y1058016D01*
X247968D01*
X248984Y1057000D01*
X247968Y1055984D01*
X248984D01*
X250000Y1054968D01*
Y1055984D02*
X250508Y1056492D01*
X251016D01*
X250508Y1057000D01*
X251016Y1057508D01*
X250508D01*
X250000Y1058016D01*
X249492Y1057508D01*
X248984D01*
X249492Y1057000D01*
X248984Y1056492D01*
X249492D01*
X250000Y1055984D01*
X235000Y1055468D02*
X236016Y1056484D01*
X237032D01*
X236016Y1057500D01*
X237032Y1058516D01*
X236016D01*
X235000Y1059532D01*
X233984Y1058516D01*
X232968D01*
X233984Y1057500D01*
X232968Y1056484D01*
X233984D01*
X235000Y1055468D01*
Y1056484D02*
X235508Y1056992D01*
X236016D01*
X235508Y1057500D01*
X236016Y1058008D01*
X235508D01*
X235000Y1058516D01*
X234492Y1058008D01*
X233984D01*
X234492Y1057500D01*
X233984Y1056992D01*
X234492D01*
X235000Y1056484D01*
X728500Y1316968D02*
X729516Y1317984D01*
X730532D01*
X729516Y1319000D01*
X730532Y1320016D01*
X729516D01*
X728500Y1321032D01*
X727484Y1320016D01*
X726468D01*
X727484Y1319000D01*
X726468Y1317984D01*
X727484D01*
X728500Y1316968D01*
Y1317984D02*
X729008Y1318492D01*
X729516D01*
X729008Y1319000D01*
X729516Y1319508D01*
X729008D01*
X728500Y1320016D01*
X727992Y1319508D01*
X727484D01*
X727992Y1319000D01*
X727484Y1318492D01*
X727992D01*
X728500Y1317984D01*
X115500Y1023258D02*
X116516Y1024274D01*
X117532D01*
X116516Y1025290D01*
X117532Y1026306D01*
X116516D01*
X115500Y1027322D01*
X114484Y1026306D01*
X113468D01*
X114484Y1025290D01*
X113468Y1024274D01*
X114484D01*
X115500Y1023258D01*
Y1024274D02*
X116008Y1024782D01*
X116516D01*
X116008Y1025290D01*
X116516Y1025798D01*
X116008D01*
X115500Y1026306D01*
X114992Y1025798D01*
X114484D01*
X114992Y1025290D01*
X114484Y1024782D01*
X114992D01*
X115500Y1024274D01*
X159500Y1053758D02*
X160516Y1054774D01*
X161532D01*
X160516Y1055790D01*
X161532Y1056806D01*
X160516D01*
X159500Y1057822D01*
X158484Y1056806D01*
X157468D01*
X158484Y1055790D01*
X157468Y1054774D01*
X158484D01*
X159500Y1053758D01*
Y1054774D02*
X160008Y1055282D01*
X160516D01*
X160008Y1055790D01*
X160516Y1056298D01*
X160008D01*
X159500Y1056806D01*
X158992Y1056298D01*
X158484D01*
X158992Y1055790D01*
X158484Y1055282D01*
X158992D01*
X159500Y1054774D01*
X109000Y1053758D02*
X110016Y1054774D01*
X111032D01*
X110016Y1055790D01*
X111032Y1056806D01*
X110016D01*
X109000Y1057822D01*
X107984Y1056806D01*
X106968D01*
X107984Y1055790D01*
X106968Y1054774D01*
X107984D01*
X109000Y1053758D01*
Y1054774D02*
X109508Y1055282D01*
X110016D01*
X109508Y1055790D01*
X110016Y1056298D01*
X109508D01*
X109000Y1056806D01*
X108492Y1056298D01*
X107984D01*
X108492Y1055790D01*
X107984Y1055282D01*
X108492D01*
X109000Y1054774D01*
X65000Y1023258D02*
X66016Y1024274D01*
X67032D01*
X66016Y1025290D01*
X67032Y1026306D01*
X66016D01*
X65000Y1027322D01*
X63984Y1026306D01*
X62968D01*
X63984Y1025290D01*
X62968Y1024274D01*
X63984D01*
X65000Y1023258D01*
Y1024274D02*
X65508Y1024782D01*
X66016D01*
X65508Y1025290D01*
X66016Y1025798D01*
X65508D01*
X65000Y1026306D01*
X64492Y1025798D01*
X63984D01*
X64492Y1025290D01*
X63984Y1024782D01*
X64492D01*
X65000Y1024274D01*
X193500Y1186968D02*
X194516Y1187984D01*
X195532D01*
X194516Y1189000D01*
X195532Y1190016D01*
X194516D01*
X193500Y1191032D01*
X192484Y1190016D01*
X191468D01*
X192484Y1189000D01*
X191468Y1187984D01*
X192484D01*
X193500Y1186968D01*
Y1187984D02*
X194008Y1188492D01*
X194516D01*
X194008Y1189000D01*
X194516Y1189508D01*
X194008D01*
X193500Y1190016D01*
X192992Y1189508D01*
X192484D01*
X192992Y1189000D01*
X192484Y1188492D01*
X192992D01*
X193500Y1187984D01*
X200500Y1237468D02*
X201516Y1238484D01*
X202532D01*
X201516Y1239500D01*
X202532Y1240516D01*
X201516D01*
X200500Y1241532D01*
X199484Y1240516D01*
X198468D01*
X199484Y1239500D01*
X198468Y1238484D01*
X199484D01*
X200500Y1237468D01*
Y1238484D02*
X201008Y1238992D01*
X201516D01*
X201008Y1239500D01*
X201516Y1240008D01*
X201008D01*
X200500Y1240516D01*
X199992Y1240008D01*
X199484D01*
X199992Y1239500D01*
X199484Y1238992D01*
X199992D01*
X200500Y1238484D01*
D75*
X631440Y215571D02*
G03*
X631440Y215571I-2032J0D01*
G01*
X733040D02*
G03*
X733040Y215571I-2032J0D01*
G01*
X441003Y124759D02*
G03*
X441003Y124759I-2032J0D01*
G01*
X542603D02*
G03*
X542603Y124759I-2032J0D01*
G01*
X155482Y120501D02*
G03*
X155482Y120501I-2032J0D01*
G01*
X257082D02*
G03*
X257082Y120501I-2032J0D01*
G01*
X441233Y311000D02*
G03*
X441233Y311000I-2032J0D01*
G01*
X542833D02*
G03*
X542833Y311000I-2032J0D01*
G01*
X250732D02*
G03*
X250732Y311000I-2032J0D01*
G01*
X352332D02*
G03*
X352332Y311000I-2032J0D01*
G01*
X60232D02*
G03*
X60232Y311000I-2032J0D01*
G01*
X161832D02*
G03*
X161832Y311000I-2032J0D01*
G01*
X631440Y596570D02*
G03*
X631440Y596570I-2032J0D01*
G01*
X733040D02*
G03*
X733040Y596570I-2032J0D01*
G01*
X441233Y501500D02*
G03*
X441233Y501500I-2032J0D01*
G01*
X542833D02*
G03*
X542833Y501500I-2032J0D01*
G01*
X250732D02*
G03*
X250732Y501500I-2032J0D01*
G01*
X352332D02*
G03*
X352332Y501500I-2032J0D01*
G01*
X60232D02*
G03*
X60232Y501500I-2032J0D01*
G01*
X161832D02*
G03*
X161832Y501500I-2032J0D01*
G01*
X631733Y882500D02*
G03*
X631733Y882500I-2032J0D01*
G01*
X733333D02*
G03*
X733333Y882500I-2032J0D01*
G01*
X441233Y692000D02*
G03*
X441233Y692000I-2032J0D01*
G01*
X542833D02*
G03*
X542833Y692000I-2032J0D01*
G01*
X250732D02*
G03*
X250732Y692000I-2032J0D01*
G01*
X352332D02*
G03*
X352332Y692000I-2032J0D01*
G01*
X60232D02*
G03*
X60232Y692000I-2032J0D01*
G01*
X161832D02*
G03*
X161832Y692000I-2032J0D01*
G01*
X441233Y882500D02*
G03*
X441233Y882500I-2032J0D01*
G01*
X542833D02*
G03*
X542833Y882500I-2032J0D01*
G01*
X250732D02*
G03*
X250732Y882500I-2032J0D01*
G01*
X352332D02*
G03*
X352332Y882500I-2032J0D01*
G01*
X60232D02*
G03*
X60232Y882500I-2032J0D01*
G01*
X161832D02*
G03*
X161832Y882500I-2032J0D01*
G01*
X599840Y96571D02*
G03*
X599840Y96571I-2032J0D01*
G01*
Y334571D02*
G03*
X599840Y334571I-2032J0D01*
G01*
X325282Y38101D02*
G03*
X325282Y38101I-2032J0D01*
G01*
X87282D02*
G03*
X87282Y38101I-2032J0D01*
G01*
X599840Y477570D02*
G03*
X599840Y477570I-2032J0D01*
G01*
Y715570D02*
G03*
X599840Y715570I-2032J0D01*
G01*
D76*
X598824Y96571D02*
G03*
X598824Y96571I-1016J0D01*
G01*
Y334571D02*
G03*
X598824Y334571I-1016J0D01*
G01*
X324266Y38101D02*
G03*
X324266Y38101I-1016J0D01*
G01*
X86266D02*
G03*
X86266Y38101I-1016J0D01*
G01*
X598824Y477570D02*
G03*
X598824Y477570I-1016J0D01*
G01*
Y715570D02*
G03*
X598824Y715570I-1016J0D01*
G01*
M02*
