G04*
G04 #@! TF.GenerationSoftware,Altium Limited,Altium Designer,22.9.1 (49)*
G04*
G04 Layer_Color=2752767*
%FSLAX25Y25*%
%MOIN*%
G70*
G04*
G04 #@! TF.SameCoordinates,9D6E7D6E-5856-4DC7-B93E-05E9B7285799*
G04*
G04*
G04 #@! TF.FilePolarity,Positive*
G04*
G01*
G75*
%ADD74C,0.00200*%
%ADD75C,0.00267*%
%ADD76C,0.00133*%
D74*
X23255Y507310D02*
X23655Y508110D01*
X23255Y508910D01*
X24055Y508510D01*
X24855Y508910D01*
X24455Y508110D01*
X24855Y507310D01*
X24055Y507710D01*
X23255Y507310D01*
X33255D02*
X33655Y508110D01*
X33255Y508910D01*
X34055Y508510D01*
X34855Y508910D01*
X34455Y508110D01*
X34855Y507310D01*
X34055Y507710D01*
X33255Y507310D01*
X43255D02*
X43655Y508110D01*
X43255Y508910D01*
X44055Y508510D01*
X44855Y508910D01*
X44455Y508110D01*
X44855Y507310D01*
X44055Y507710D01*
X43255Y507310D01*
X23255Y517310D02*
X23655Y518110D01*
X23255Y518910D01*
X24055Y518510D01*
X24855Y518910D01*
X24455Y518110D01*
X24855Y517310D01*
X24055Y517710D01*
X23255Y517310D01*
X33255D02*
X33655Y518110D01*
X33255Y518910D01*
X34055Y518510D01*
X34855Y518910D01*
X34455Y518110D01*
X34855Y517310D01*
X34055Y517710D01*
X33255Y517310D01*
X43255D02*
X43655Y518110D01*
X43255Y518910D01*
X44055Y518510D01*
X44855Y518910D01*
X44455Y518110D01*
X44855Y517310D01*
X44055Y517710D01*
X43255Y517310D01*
X267799Y84070D02*
X268199Y84470D01*
X268599D01*
X268199Y84870D01*
X268599Y85271D01*
X268199D01*
X267799Y85671D01*
X267399Y85271D01*
X266999D01*
X267399Y84870D01*
X266999Y84470D01*
X267399D01*
X267799Y84070D01*
X282799Y74071D02*
X281999Y75670D01*
X283599D01*
X282799Y74071D01*
X257799Y64070D02*
X256999Y65671D01*
X258599D01*
X257799Y64070D01*
X192823Y48318D02*
X193223Y48718D01*
X193623D01*
X193223Y49118D01*
X193623Y49518D01*
X193223D01*
X192823Y49918D01*
X192423Y49518D01*
X192023D01*
X192423Y49118D01*
X192023Y48718D01*
X192423D01*
X192823Y48318D01*
X207823Y38318D02*
X207023Y39918D01*
X208623D01*
X207823Y38318D01*
X182823Y28318D02*
X182023Y29918D01*
X183623D01*
X182823Y28318D01*
X80413Y46641D02*
X80813Y47041D01*
X81213D01*
X80813Y47441D01*
X81213Y47841D01*
X80813D01*
X80413Y48241D01*
X80013Y47841D01*
X79613D01*
X80013Y47441D01*
X79613Y47041D01*
X80013D01*
X80413Y46641D01*
X95413Y36641D02*
X94613Y38241D01*
X96213D01*
X95413Y36641D01*
X70413Y26641D02*
X69613Y28241D01*
X71213D01*
X70413Y26641D01*
X192914Y121641D02*
X193314Y122041D01*
X193714D01*
X193314Y122441D01*
X193714Y122841D01*
X193314D01*
X192914Y123241D01*
X192514Y122841D01*
X192114D01*
X192514Y122441D01*
X192114Y122041D01*
X192514D01*
X192914Y121641D01*
X207914Y111641D02*
X207114Y113241D01*
X208714D01*
X207914Y111641D01*
X182914Y101641D02*
X182114Y103241D01*
X183714D01*
X182914Y101641D01*
X117913Y121641D02*
X118313Y122041D01*
X118713D01*
X118313Y122441D01*
X118713Y122841D01*
X118313D01*
X117913Y123241D01*
X117513Y122841D01*
X117113D01*
X117513Y122441D01*
X117113Y122041D01*
X117513D01*
X117913Y121641D01*
X132913Y111641D02*
X132113Y113241D01*
X133713D01*
X132913Y111641D01*
X107913Y101641D02*
X107113Y103241D01*
X108713D01*
X107913Y101641D01*
X42913Y121641D02*
X43313Y122041D01*
X43713D01*
X43313Y122441D01*
X43713Y122841D01*
X43313D01*
X42913Y123241D01*
X42513Y122841D01*
X42113D01*
X42513Y122441D01*
X42113Y122041D01*
X42513D01*
X42913Y121641D01*
X57913Y111641D02*
X57113Y113241D01*
X58713D01*
X57913Y111641D01*
X32913Y101641D02*
X32113Y103241D01*
X33713D01*
X32913Y101641D01*
X267799Y234070D02*
X268199Y234470D01*
X268599D01*
X268199Y234870D01*
X268599Y235270D01*
X268199D01*
X267799Y235670D01*
X267399Y235270D01*
X266999D01*
X267399Y234870D01*
X266999Y234470D01*
X267399D01*
X267799Y234070D01*
X282799Y224070D02*
X281999Y225670D01*
X283599D01*
X282799Y224070D01*
X257799Y214070D02*
X256999Y215670D01*
X258599D01*
X257799Y214070D01*
X192914Y196641D02*
X193314Y197041D01*
X193714D01*
X193314Y197441D01*
X193714Y197841D01*
X193314D01*
X192914Y198241D01*
X192514Y197841D01*
X192114D01*
X192514Y197441D01*
X192114Y197041D01*
X192514D01*
X192914Y196641D01*
X207914Y186641D02*
X207114Y188241D01*
X208714D01*
X207914Y186641D01*
X182914Y176641D02*
X182114Y178241D01*
X183714D01*
X182914Y176641D01*
X117913Y196641D02*
X118313Y197041D01*
X118713D01*
X118313Y197441D01*
X118713Y197841D01*
X118313D01*
X117913Y198241D01*
X117513Y197841D01*
X117113D01*
X117513Y197441D01*
X117113Y197041D01*
X117513D01*
X117913Y196641D01*
X132913Y186641D02*
X132113Y188241D01*
X133713D01*
X132913Y186641D01*
X107913Y176641D02*
X107113Y178241D01*
X108713D01*
X107913Y176641D01*
X42913Y196641D02*
X43313Y197041D01*
X43713D01*
X43313Y197441D01*
X43713Y197841D01*
X43313D01*
X42913Y198241D01*
X42513Y197841D01*
X42113D01*
X42513Y197441D01*
X42113Y197041D01*
X42513D01*
X42913Y196641D01*
X57913Y186641D02*
X57113Y188241D01*
X58713D01*
X57913Y186641D01*
X32913Y176641D02*
X32113Y178241D01*
X33713D01*
X32913Y176641D01*
X213176Y518688D02*
Y520288D01*
X214776D01*
Y518688D01*
X213176D01*
X187586D02*
Y520288D01*
X189186D01*
Y518688D01*
X187586D01*
X213176Y500972D02*
Y502572D01*
X214776D01*
Y500972D01*
X213176D01*
X187586D02*
Y502572D01*
X189186D01*
Y500972D01*
X187586D01*
X267914Y346641D02*
X268314Y347041D01*
X268714D01*
X268314Y347441D01*
X268714Y347841D01*
X268314D01*
X267914Y348241D01*
X267514Y347841D01*
X267114D01*
X267514Y347441D01*
X267114Y347041D01*
X267514D01*
X267914Y346641D01*
X282914Y336641D02*
X282114Y338241D01*
X283714D01*
X282914Y336641D01*
X257914Y326641D02*
X257114Y328241D01*
X258714D01*
X257914Y326641D01*
X192914Y271641D02*
X193314Y272041D01*
X193714D01*
X193314Y272441D01*
X193714Y272841D01*
X193314D01*
X192914Y273241D01*
X192514Y272841D01*
X192114D01*
X192514Y272441D01*
X192114Y272041D01*
X192514D01*
X192914Y271641D01*
X207914Y261641D02*
X207114Y263241D01*
X208714D01*
X207914Y261641D01*
X182914Y251641D02*
X182114Y253241D01*
X183714D01*
X182914Y251641D01*
X117913Y271641D02*
X118313Y272041D01*
X118713D01*
X118313Y272441D01*
X118713Y272841D01*
X118313D01*
X117913Y273241D01*
X117513Y272841D01*
X117113D01*
X117513Y272441D01*
X117113Y272041D01*
X117513D01*
X117913Y271641D01*
X132913Y261641D02*
X132113Y263241D01*
X133713D01*
X132913Y261641D01*
X107913Y251641D02*
X107113Y253241D01*
X108713D01*
X107913Y251641D01*
X42913Y271641D02*
X43313Y272041D01*
X43713D01*
X43313Y272441D01*
X43713Y272841D01*
X43313D01*
X42913Y273241D01*
X42513Y272841D01*
X42113D01*
X42513Y272441D01*
X42113Y272041D01*
X42513D01*
X42913Y271641D01*
X57913Y261641D02*
X57113Y263241D01*
X58713D01*
X57913Y261641D01*
X32913Y251641D02*
X32113Y253241D01*
X33713D01*
X32913Y251641D01*
X192914Y346641D02*
X193314Y347041D01*
X193714D01*
X193314Y347441D01*
X193714Y347841D01*
X193314D01*
X192914Y348241D01*
X192514Y347841D01*
X192114D01*
X192514Y347441D01*
X192114Y347041D01*
X192514D01*
X192914Y346641D01*
X207914Y336641D02*
X207114Y338241D01*
X208714D01*
X207914Y336641D01*
X182914Y326641D02*
X182114Y328241D01*
X183714D01*
X182914Y326641D01*
X117913Y346641D02*
X118313Y347041D01*
X118713D01*
X118313Y347441D01*
X118713Y347841D01*
X118313D01*
X117913Y348241D01*
X117513Y347841D01*
X117113D01*
X117513Y347441D01*
X117113Y347041D01*
X117513D01*
X117913Y346641D01*
X132913Y336641D02*
X132113Y338241D01*
X133713D01*
X132913Y336641D01*
X107913Y326641D02*
X107113Y328241D01*
X108713D01*
X107913Y326641D01*
X42913Y346641D02*
X43313Y347041D01*
X43713D01*
X43313Y347441D01*
X43713Y347841D01*
X43313D01*
X42913Y348241D01*
X42513Y347841D01*
X42113D01*
X42513Y347441D01*
X42113Y347041D01*
X42513D01*
X42913Y346641D01*
X57913Y336641D02*
X57113Y338241D01*
X58713D01*
X57913Y336641D01*
X32913Y326641D02*
X32113Y328241D01*
X33713D01*
X32913Y326641D01*
X64554Y455315D02*
X65354Y456115D01*
X66154Y455315D01*
X65354Y454515D01*
X64554Y455315D01*
X16523D02*
X17323Y456115D01*
X18123Y455315D01*
X17323Y454515D01*
X16523Y455315D01*
X40539Y424987D02*
Y426587D01*
X42139D01*
Y424987D01*
X40539D01*
X50381D02*
Y426587D01*
X51981D01*
Y424987D01*
X50381D01*
X30696D02*
Y426587D01*
X32296D01*
Y424987D01*
X30696D01*
X50381Y482074D02*
Y483674D01*
X51981D01*
Y482074D01*
X50381D01*
X30696D02*
Y483674D01*
X32296D01*
Y482074D01*
X30696D01*
X294558Y37023D02*
Y38623D01*
X296158D01*
Y37023D01*
X294558D01*
X294958Y37423D02*
Y38223D01*
X295758D01*
Y37423D01*
X294958D01*
X294558Y130724D02*
Y132324D01*
X296158D01*
Y130724D01*
X294558D01*
X294958Y131124D02*
Y131924D01*
X295758D01*
Y131124D01*
X294958D01*
X126661Y74200D02*
Y75800D01*
X128261D01*
Y74200D01*
X126661D01*
X127060Y74600D02*
Y75400D01*
X127860D01*
Y74600D01*
X127060D01*
X32960Y74200D02*
Y75800D01*
X34560D01*
Y74200D01*
X32960D01*
X33360Y74600D02*
Y75400D01*
X34160D01*
Y74600D01*
X33360D01*
X294558Y187023D02*
Y188623D01*
X296158D01*
Y187023D01*
X294558D01*
X294958Y187423D02*
Y188223D01*
X295758D01*
Y187423D01*
X294958D01*
X294558Y280724D02*
Y282324D01*
X296158D01*
Y280724D01*
X294558D01*
X294958Y281124D02*
Y281924D01*
X295758D01*
Y281124D01*
X294958D01*
X208716Y409814D02*
X209116Y410614D01*
X208716Y411414D01*
X209516Y411014D01*
X210316Y411414D01*
X209916Y410614D01*
X210316Y409814D01*
X209516Y410214D01*
X208716Y409814D01*
X248716D02*
X249116Y410614D01*
X248716Y411414D01*
X249516Y411014D01*
X250316Y411414D01*
X249916Y410614D01*
X250316Y409814D01*
X249516Y410214D01*
X248716Y409814D01*
X258716D02*
X259116Y410614D01*
X258716Y411414D01*
X259516Y411014D01*
X260316Y411414D01*
X259916Y410614D01*
X260316Y409814D01*
X259516Y410214D01*
X258716Y409814D01*
X238716D02*
X239116Y410614D01*
X238716Y411414D01*
X239516Y411014D01*
X240316Y411414D01*
X239916Y410614D01*
X240316Y409814D01*
X239516Y410214D01*
X238716Y409814D01*
X228716D02*
X229116Y410614D01*
X228716Y411414D01*
X229516Y411014D01*
X230316Y411414D01*
X229916Y410614D01*
X230316Y409814D01*
X229516Y410214D01*
X228716Y409814D01*
X218716D02*
X219116Y410614D01*
X218716Y411414D01*
X219516Y411014D01*
X220316Y411414D01*
X219916Y410614D01*
X220316Y409814D01*
X219516Y410214D01*
X218716Y409814D01*
X306490Y520565D02*
Y520165D01*
X307290D01*
Y520565D01*
X307690D01*
Y521365D01*
X307290D01*
Y521765D01*
X306490D01*
Y521365D01*
X306090D01*
Y520565D01*
X306490D01*
Y499108D02*
Y498708D01*
X307290D01*
Y499108D01*
X307690D01*
Y499908D01*
X307290D01*
Y500308D01*
X306490D01*
Y499908D01*
X306090D01*
Y499108D01*
X306490D01*
X294161Y518984D02*
X294561D01*
X294961Y519383D01*
X295361Y518984D01*
X295761D01*
Y519383D01*
X295361Y519783D01*
X295761Y520184D01*
Y520583D01*
X295361D01*
X294961Y520184D01*
X294561Y520583D01*
X294161D01*
Y520184D01*
X294561Y519783D01*
X294161Y519383D01*
Y518984D01*
Y499889D02*
X294561D01*
X294961Y500289D01*
X295361Y499889D01*
X295761D01*
Y500289D01*
X295361Y500689D01*
X295761Y501089D01*
Y501489D01*
X295361D01*
X294961Y501089D01*
X294561Y501489D01*
X294161D01*
Y501089D01*
X294561Y500689D01*
X294161Y500289D01*
Y499889D01*
X141535Y467901D02*
X140735Y469501D01*
X142335D01*
X141535Y467901D01*
Y468301D02*
X141135Y469101D01*
X141935D01*
X141535Y468301D01*
X144095Y465342D02*
X143295Y466942D01*
X144895D01*
X144095Y465342D01*
Y465742D02*
X143694Y466542D01*
X144494D01*
X144095Y465742D01*
X145276Y459239D02*
X144476Y460839D01*
X146076D01*
X145276Y459239D01*
Y459639D02*
X144876Y460439D01*
X145676D01*
X145276Y459639D01*
X85039Y431287D02*
X84239Y432887D01*
X85839D01*
X85039Y431287D01*
Y431687D02*
X84639Y432487D01*
X85439D01*
X85039Y431687D01*
X147244Y446641D02*
X147644Y447041D01*
X148044D01*
X147644Y447441D01*
X148044Y447841D01*
X147644D01*
X147244Y448241D01*
X146844Y447841D01*
X146444D01*
X146844Y447441D01*
X146444Y447041D01*
X146844D01*
X147244Y446641D01*
Y447041D02*
X147444Y447241D01*
X147644D01*
X147444Y447441D01*
X147644Y447641D01*
X147444D01*
X147244Y447841D01*
X147044Y447641D01*
X146844D01*
X147044Y447441D01*
X146844Y447241D01*
X147044D01*
X147244Y447041D01*
X147441Y452940D02*
X147841Y453340D01*
X148241D01*
X147841Y453740D01*
X148241Y454140D01*
X147841D01*
X147441Y454540D01*
X147041Y454140D01*
X146641D01*
X147041Y453740D01*
X146641Y453340D01*
X147041D01*
X147441Y452940D01*
Y453340D02*
X147641Y453540D01*
X147841D01*
X147641Y453740D01*
X147841Y453940D01*
X147641D01*
X147441Y454140D01*
X147241Y453940D01*
X147041D01*
X147241Y453740D01*
X147041Y453540D01*
X147241D01*
X147441Y453340D01*
X153543Y437980D02*
X153943Y438379D01*
X154343D01*
X153943Y438779D01*
X154343Y439180D01*
X153943D01*
X153543Y439579D01*
X153143Y439180D01*
X152743D01*
X153143Y438779D01*
X152743Y438379D01*
X153143D01*
X153543Y437980D01*
Y438379D02*
X153743Y438580D01*
X153943D01*
X153743Y438779D01*
X153943Y438979D01*
X153743D01*
X153543Y439180D01*
X153343Y438979D01*
X153143D01*
X153343Y438779D01*
X153143Y438580D01*
X153343D01*
X153543Y438379D01*
X173031Y495657D02*
X173432Y496057D01*
X173831D01*
X173432Y496457D01*
X173831Y496857D01*
X173432D01*
X173031Y497257D01*
X172632Y496857D01*
X172231D01*
X172632Y496457D01*
X172231Y496057D01*
X172632D01*
X173031Y495657D01*
Y496057D02*
X173231Y496257D01*
X173432D01*
X173231Y496457D01*
X173432Y496657D01*
X173231D01*
X173031Y496857D01*
X172831Y496657D01*
X172632D01*
X172831Y496457D01*
X172632Y496257D01*
X172831D01*
X173031Y496057D01*
X287795Y512783D02*
X286995Y514383D01*
X288595D01*
X287795Y512783D01*
Y513183D02*
X287395Y513983D01*
X288195D01*
X287795Y513183D01*
X118504Y485027D02*
X118904Y485427D01*
X119304D01*
X118904Y485827D01*
X119304Y486227D01*
X118904D01*
X118504Y486627D01*
X118104Y486227D01*
X117704D01*
X118104Y485827D01*
X117704Y485427D01*
X118104D01*
X118504Y485027D01*
Y485427D02*
X118704Y485627D01*
X118904D01*
X118704Y485827D01*
X118904Y486027D01*
X118704D01*
X118504Y486227D01*
X118304Y486027D01*
X118104D01*
X118304Y485827D01*
X118104Y485627D01*
X118304D01*
X118504Y485427D01*
X124409Y484830D02*
X124809Y485230D01*
X125209D01*
X124809Y485630D01*
X125209Y486030D01*
X124809D01*
X124409Y486430D01*
X124009Y486030D01*
X123609D01*
X124009Y485630D01*
X123609Y485230D01*
X124009D01*
X124409Y484830D01*
Y485230D02*
X124609Y485430D01*
X124809D01*
X124609Y485630D01*
X124809Y485830D01*
X124609D01*
X124409Y486030D01*
X124209Y485830D01*
X124009D01*
X124209Y485630D01*
X124009Y485430D01*
X124209D01*
X124409Y485230D01*
X128937Y413373D02*
X129337Y413773D01*
X129737D01*
X129337Y414173D01*
X129737Y414573D01*
X129337D01*
X128937Y414973D01*
X128537Y414573D01*
X128137D01*
X128537Y414173D01*
X128137Y413773D01*
X128537D01*
X128937Y413373D01*
Y413773D02*
X129137Y413973D01*
X129337D01*
X129137Y414173D01*
X129337Y414373D01*
X129137D01*
X128937Y414573D01*
X128737Y414373D01*
X128537D01*
X128737Y414173D01*
X128537Y413973D01*
X128737D01*
X128937Y413773D01*
X122244Y413373D02*
X122644Y413773D01*
X123044D01*
X122644Y414173D01*
X123044Y414573D01*
X122644D01*
X122244Y414973D01*
X121844Y414573D01*
X121444D01*
X121844Y414173D01*
X121444Y413773D01*
X121844D01*
X122244Y413373D01*
Y413773D02*
X122444Y413973D01*
X122644D01*
X122444Y414173D01*
X122644Y414373D01*
X122444D01*
X122244Y414573D01*
X122044Y414373D01*
X121844D01*
X122044Y414173D01*
X121844Y413973D01*
X122044D01*
X122244Y413773D01*
X75984Y461011D02*
X76384Y461411D01*
X76784D01*
X76384Y461811D01*
X76784Y462211D01*
X76384D01*
X75984Y462611D01*
X75584Y462211D01*
X75184D01*
X75584Y461811D01*
X75184Y461411D01*
X75584D01*
X75984Y461011D01*
Y461411D02*
X76184Y461611D01*
X76384D01*
X76184Y461811D01*
X76384Y462011D01*
X76184D01*
X75984Y462211D01*
X75784Y462011D01*
X75584D01*
X75784Y461811D01*
X75584Y461611D01*
X75784D01*
X75984Y461411D01*
X103150Y478924D02*
X103550Y479324D01*
X103950D01*
X103550Y479724D01*
X103950Y480124D01*
X103550D01*
X103150Y480524D01*
X102750Y480124D01*
X102350D01*
X102750Y479724D01*
X102350Y479324D01*
X102750D01*
X103150Y478924D01*
Y479324D02*
X103350Y479524D01*
X103550D01*
X103350Y479724D01*
X103550Y479924D01*
X103350D01*
X103150Y480124D01*
X102950Y479924D01*
X102750D01*
X102950Y479724D01*
X102750Y479524D01*
X102950D01*
X103150Y479324D01*
X103543Y419279D02*
X103943Y419679D01*
X104343D01*
X103943Y420079D01*
X104343Y420479D01*
X103943D01*
X103543Y420879D01*
X103143Y420479D01*
X102743D01*
X103143Y420079D01*
X102743Y419679D01*
X103143D01*
X103543Y419279D01*
Y419679D02*
X103743Y419879D01*
X103943D01*
X103743Y420079D01*
X103943Y420279D01*
X103743D01*
X103543Y420479D01*
X103343Y420279D01*
X103143D01*
X103343Y420079D01*
X103143Y419879D01*
X103343D01*
X103543Y419679D01*
X106693Y415342D02*
X107093Y415742D01*
X107493D01*
X107093Y416142D01*
X107493Y416542D01*
X107093D01*
X106693Y416942D01*
X106293Y416542D01*
X105893D01*
X106293Y416142D01*
X105893Y415742D01*
X106293D01*
X106693Y415342D01*
Y415742D02*
X106893Y415942D01*
X107093D01*
X106893Y416142D01*
X107093Y416342D01*
X106893D01*
X106693Y416542D01*
X106493Y416342D01*
X106293D01*
X106493Y416142D01*
X106293Y415942D01*
X106493D01*
X106693Y415742D01*
X111024Y413964D02*
X111424Y414364D01*
X111824D01*
X111424Y414764D01*
X111824Y415164D01*
X111424D01*
X111024Y415564D01*
X110624Y415164D01*
X110224D01*
X110624Y414764D01*
X110224Y414364D01*
X110624D01*
X111024Y413964D01*
Y414364D02*
X111224Y414564D01*
X111424D01*
X111224Y414764D01*
X111424Y414964D01*
X111224D01*
X111024Y415164D01*
X110824Y414964D01*
X110624D01*
X110824Y414764D01*
X110624Y414564D01*
X110824D01*
X111024Y414364D01*
X116339Y420657D02*
X116739Y421057D01*
X117139D01*
X116739Y421457D01*
X117139Y421857D01*
X116739D01*
X116339Y422257D01*
X115939Y421857D01*
X115539D01*
X115939Y421457D01*
X115539Y421057D01*
X115939D01*
X116339Y420657D01*
Y421057D02*
X116539Y421257D01*
X116739D01*
X116539Y421457D01*
X116739Y421657D01*
X116539D01*
X116339Y421857D01*
X116139Y421657D01*
X115939D01*
X116139Y421457D01*
X115939Y421257D01*
X116139D01*
X116339Y421057D01*
X147441Y486208D02*
X147841Y486608D01*
X148241D01*
X147841Y487008D01*
X148241Y487408D01*
X147841D01*
X147441Y487808D01*
X147041Y487408D01*
X146641D01*
X147041Y487008D01*
X146641Y486608D01*
X147041D01*
X147441Y486208D01*
Y486608D02*
X147641Y486808D01*
X147841D01*
X147641Y487008D01*
X147841Y487208D01*
X147641D01*
X147441Y487408D01*
X147241Y487208D01*
X147041D01*
X147241Y487008D01*
X147041Y486808D01*
X147241D01*
X147441Y486608D01*
X256260Y518783D02*
X256660Y519183D01*
X257060D01*
X256660Y519583D01*
X257060Y519983D01*
X256660D01*
X256260Y520383D01*
X255860Y519983D01*
X255460D01*
X255860Y519583D01*
X255460Y519183D01*
X255860D01*
X256260Y518783D01*
Y519183D02*
X256460Y519383D01*
X256660D01*
X256460Y519583D01*
X256660Y519783D01*
X256460D01*
X256260Y519983D01*
X256060Y519783D01*
X255860D01*
X256060Y519583D01*
X255860Y519383D01*
X256060D01*
X256260Y519183D01*
X259842Y490145D02*
X260243Y490545D01*
X260643D01*
X260243Y490945D01*
X260643Y491345D01*
X260243D01*
X259842Y491745D01*
X259442Y491345D01*
X259043D01*
X259442Y490945D01*
X259043Y490545D01*
X259442D01*
X259842Y490145D01*
Y490545D02*
X260043Y490745D01*
X260243D01*
X260043Y490945D01*
X260243Y491145D01*
X260043D01*
X259842Y491345D01*
X259643Y491145D01*
X259442D01*
X259643Y490945D01*
X259442Y490745D01*
X259643D01*
X259842Y490545D01*
X242520Y490145D02*
X242920Y490545D01*
X243320D01*
X242920Y490945D01*
X243320Y491345D01*
X242920D01*
X242520Y491745D01*
X242120Y491345D01*
X241720D01*
X242120Y490945D01*
X241720Y490545D01*
X242120D01*
X242520Y490145D01*
Y490545D02*
X242720Y490745D01*
X242920D01*
X242720Y490945D01*
X242920Y491145D01*
X242720D01*
X242520Y491345D01*
X242320Y491145D01*
X242120D01*
X242320Y490945D01*
X242120Y490745D01*
X242320D01*
X242520Y490545D01*
X242520Y484633D02*
X242920Y485033D01*
X243320D01*
X242920Y485433D01*
X243320Y485833D01*
X242920D01*
X242520Y486233D01*
X242120Y485833D01*
X241720D01*
X242120Y485433D01*
X241720Y485033D01*
X242120D01*
X242520Y484633D01*
Y485033D02*
X242720Y485233D01*
X242920D01*
X242720Y485433D01*
X242920Y485633D01*
X242720D01*
X242520Y485833D01*
X242320Y485633D01*
X242120D01*
X242320Y485433D01*
X242120Y485233D01*
X242320D01*
X242520Y485033D01*
X166929Y496444D02*
X167329Y496844D01*
X167729D01*
X167329Y497244D01*
X167729Y497644D01*
X167329D01*
X166929Y498044D01*
X166529Y497644D01*
X166129D01*
X166529Y497244D01*
X166129Y496844D01*
X166529D01*
X166929Y496444D01*
Y496844D02*
X167129Y497044D01*
X167329D01*
X167129Y497244D01*
X167329Y497444D01*
X167129D01*
X166929Y497644D01*
X166729Y497444D01*
X166529D01*
X166729Y497244D01*
X166529Y497044D01*
X166729D01*
X166929Y496844D01*
X248294Y484633D02*
X248694Y485033D01*
X249094D01*
X248694Y485433D01*
X249094Y485833D01*
X248694D01*
X248294Y486233D01*
X247894Y485833D01*
X247494D01*
X247894Y485433D01*
X247494Y485033D01*
X247894D01*
X248294Y484633D01*
Y485033D02*
X248494Y485233D01*
X248694D01*
X248494Y485433D01*
X248694Y485633D01*
X248494D01*
X248294Y485833D01*
X248094Y485633D01*
X247894D01*
X248094Y485433D01*
X247894Y485233D01*
X248094D01*
X248294Y485033D01*
X259842Y484633D02*
X260243Y485033D01*
X260643D01*
X260243Y485433D01*
X260643Y485833D01*
X260243D01*
X259842Y486233D01*
X259442Y485833D01*
X259043D01*
X259442Y485433D01*
X259043Y485033D01*
X259442D01*
X259842Y484633D01*
Y485033D02*
X260043Y485233D01*
X260243D01*
X260043Y485433D01*
X260243Y485633D01*
X260043D01*
X259842Y485833D01*
X259643Y485633D01*
X259442D01*
X259643Y485433D01*
X259442Y485233D01*
X259643D01*
X259842Y485033D01*
X254068Y484633D02*
X254468Y485033D01*
X254868D01*
X254468Y485433D01*
X254868Y485833D01*
X254468D01*
X254068Y486233D01*
X253668Y485833D01*
X253268D01*
X253668Y485433D01*
X253268Y485033D01*
X253668D01*
X254068Y484633D01*
Y485033D02*
X254268Y485233D01*
X254468D01*
X254268Y485433D01*
X254468Y485633D01*
X254268D01*
X254068Y485833D01*
X253868Y485633D01*
X253668D01*
X253868Y485433D01*
X253668Y485233D01*
X253868D01*
X254068Y485033D01*
X85433Y387192D02*
X85833Y387592D01*
X86233D01*
X85833Y387992D01*
X86233Y388392D01*
X85833D01*
X85433Y388792D01*
X85033Y388392D01*
X84633D01*
X85033Y387992D01*
X84633Y387592D01*
X85033D01*
X85433Y387192D01*
Y387592D02*
X85633Y387792D01*
X85833D01*
X85633Y387992D01*
X85833Y388192D01*
X85633D01*
X85433Y388392D01*
X85233Y388192D01*
X85033D01*
X85233Y387992D01*
X85033Y387792D01*
X85233D01*
X85433Y387592D01*
X107283Y479515D02*
X107684Y479915D01*
X108083D01*
X107684Y480315D01*
X108083Y480715D01*
X107684D01*
X107283Y481115D01*
X106884Y480715D01*
X106483D01*
X106884Y480315D01*
X106483Y479915D01*
X106884D01*
X107283Y479515D01*
Y479915D02*
X107483Y480115D01*
X107684D01*
X107483Y480315D01*
X107684Y480515D01*
X107483D01*
X107283Y480715D01*
X107083Y480515D01*
X106884D01*
X107083Y480315D01*
X106884Y480115D01*
X107083D01*
X107283Y479915D01*
X98425Y415342D02*
X98825Y415742D01*
X99225D01*
X98825Y416142D01*
X99225Y416542D01*
X98825D01*
X98425Y416942D01*
X98025Y416542D01*
X97625D01*
X98025Y416142D01*
X97625Y415742D01*
X98025D01*
X98425Y415342D01*
Y415742D02*
X98625Y415942D01*
X98825D01*
X98625Y416142D01*
X98825Y416342D01*
X98625D01*
X98425Y416542D01*
X98225Y416342D01*
X98025D01*
X98225Y416142D01*
X98025Y415942D01*
X98225D01*
X98425Y415742D01*
X92520Y415539D02*
X92920Y415939D01*
X93320D01*
X92920Y416339D01*
X93320Y416739D01*
X92920D01*
X92520Y417139D01*
X92120Y416739D01*
X91720D01*
X92120Y416339D01*
X91720Y415939D01*
X92120D01*
X92520Y415539D01*
Y415939D02*
X92720Y416139D01*
X92920D01*
X92720Y416339D01*
X92920Y416539D01*
X92720D01*
X92520Y416739D01*
X92320Y416539D01*
X92120D01*
X92320Y416339D01*
X92120Y416139D01*
X92320D01*
X92520Y415939D01*
X286811Y518491D02*
X287211Y518891D01*
X287611D01*
X287211Y519291D01*
X287611Y519691D01*
X287211D01*
X286811Y520091D01*
X286411Y519691D01*
X286011D01*
X286411Y519291D01*
X286011Y518891D01*
X286411D01*
X286811Y518491D01*
Y518891D02*
X287011Y519091D01*
X287211D01*
X287011Y519291D01*
X287211Y519491D01*
X287011D01*
X286811Y519691D01*
X286611Y519491D01*
X286411D01*
X286611Y519291D01*
X286411Y519091D01*
X286611D01*
X286811Y518891D01*
X45472Y402858D02*
X45872Y403258D01*
X46272D01*
X45872Y403658D01*
X46272Y404058D01*
X45872D01*
X45472Y404458D01*
X45072Y404058D01*
X44672D01*
X45072Y403658D01*
X44672Y403258D01*
X45072D01*
X45472Y402858D01*
Y403258D02*
X45672Y403458D01*
X45872D01*
X45672Y403658D01*
X45872Y403858D01*
X45672D01*
X45472Y404058D01*
X45272Y403858D01*
X45072D01*
X45272Y403658D01*
X45072Y403458D01*
X45272D01*
X45472Y403258D01*
X62795Y414865D02*
X63195Y415266D01*
X63595D01*
X63195Y415665D01*
X63595Y416066D01*
X63195D01*
X62795Y416466D01*
X62395Y416066D01*
X61995D01*
X62395Y415665D01*
X61995Y415266D01*
X62395D01*
X62795Y414865D01*
Y415266D02*
X62995Y415465D01*
X63195D01*
X62995Y415665D01*
X63195Y415866D01*
X62995D01*
X62795Y416066D01*
X62595Y415866D01*
X62395D01*
X62595Y415665D01*
X62395Y415465D01*
X62595D01*
X62795Y415266D01*
X42913Y414865D02*
X43313Y415266D01*
X43713D01*
X43313Y415665D01*
X43713Y416066D01*
X43313D01*
X42913Y416466D01*
X42513Y416066D01*
X42113D01*
X42513Y415665D01*
X42113Y415266D01*
X42513D01*
X42913Y414865D01*
Y415266D02*
X43113Y415465D01*
X43313D01*
X43113Y415665D01*
X43313Y415866D01*
X43113D01*
X42913Y416066D01*
X42713Y415866D01*
X42513D01*
X42713Y415665D01*
X42513Y415465D01*
X42713D01*
X42913Y415266D01*
X25591Y402858D02*
X25991Y403258D01*
X26391D01*
X25991Y403658D01*
X26391Y404058D01*
X25991D01*
X25591Y404458D01*
X25191Y404058D01*
X24791D01*
X25191Y403658D01*
X24791Y403258D01*
X25191D01*
X25591Y402858D01*
Y403258D02*
X25791Y403458D01*
X25991D01*
X25791Y403658D01*
X25991Y403858D01*
X25791D01*
X25591Y404058D01*
X25391Y403858D01*
X25191D01*
X25391Y403658D01*
X25191Y403458D01*
X25391D01*
X25591Y403258D01*
X76181Y467310D02*
X76581Y467710D01*
X76981D01*
X76581Y468110D01*
X76981Y468510D01*
X76581D01*
X76181Y468910D01*
X75781Y468510D01*
X75381D01*
X75781Y468110D01*
X75381Y467710D01*
X75781D01*
X76181Y467310D01*
Y467710D02*
X76381Y467910D01*
X76581D01*
X76381Y468110D01*
X76581Y468310D01*
X76381D01*
X76181Y468510D01*
X75981Y468310D01*
X75781D01*
X75981Y468110D01*
X75781Y467910D01*
X75981D01*
X76181Y467710D01*
X78937Y487192D02*
X79337Y487592D01*
X79737D01*
X79337Y487992D01*
X79737Y488392D01*
X79337D01*
X78937Y488792D01*
X78537Y488392D01*
X78137D01*
X78537Y487992D01*
X78137Y487592D01*
X78537D01*
X78937Y487192D01*
Y487592D02*
X79137Y487792D01*
X79337D01*
X79137Y487992D01*
X79337Y488192D01*
X79137D01*
X78937Y488392D01*
X78737Y488192D01*
X78537D01*
X78737Y487992D01*
X78537Y487792D01*
X78737D01*
X78937Y487592D01*
D75*
X248599Y84870D02*
G03*
X248599Y84870I-800J0D01*
G01*
X288599D02*
G03*
X288599Y84870I-800J0D01*
G01*
X173623Y49118D02*
G03*
X173623Y49118I-800J0D01*
G01*
X213623D02*
G03*
X213623Y49118I-800J0D01*
G01*
X61213Y47441D02*
G03*
X61213Y47441I-800J0D01*
G01*
X101213D02*
G03*
X101213Y47441I-800J0D01*
G01*
X173714Y122441D02*
G03*
X173714Y122441I-800J0D01*
G01*
X213714D02*
G03*
X213714Y122441I-800J0D01*
G01*
X98713D02*
G03*
X98713Y122441I-800J0D01*
G01*
X138713D02*
G03*
X138713Y122441I-800J0D01*
G01*
X23713D02*
G03*
X23713Y122441I-800J0D01*
G01*
X63713D02*
G03*
X63713Y122441I-800J0D01*
G01*
X248599Y234870D02*
G03*
X248599Y234870I-800J0D01*
G01*
X288599D02*
G03*
X288599Y234870I-800J0D01*
G01*
X173714Y197441D02*
G03*
X173714Y197441I-800J0D01*
G01*
X213714D02*
G03*
X213714Y197441I-800J0D01*
G01*
X98713D02*
G03*
X98713Y197441I-800J0D01*
G01*
X138713D02*
G03*
X138713Y197441I-800J0D01*
G01*
X23713D02*
G03*
X23713Y197441I-800J0D01*
G01*
X63713D02*
G03*
X63713Y197441I-800J0D01*
G01*
X248714Y347441D02*
G03*
X248714Y347441I-800J0D01*
G01*
X288714D02*
G03*
X288714Y347441I-800J0D01*
G01*
X173714Y272441D02*
G03*
X173714Y272441I-800J0D01*
G01*
X213714D02*
G03*
X213714Y272441I-800J0D01*
G01*
X98713D02*
G03*
X98713Y272441I-800J0D01*
G01*
X138713D02*
G03*
X138713Y272441I-800J0D01*
G01*
X23713D02*
G03*
X23713Y272441I-800J0D01*
G01*
X63713D02*
G03*
X63713Y272441I-800J0D01*
G01*
X173714Y347441D02*
G03*
X173714Y347441I-800J0D01*
G01*
X213714D02*
G03*
X213714Y347441I-800J0D01*
G01*
X98713D02*
G03*
X98713Y347441I-800J0D01*
G01*
X138713D02*
G03*
X138713Y347441I-800J0D01*
G01*
X23713D02*
G03*
X23713Y347441I-800J0D01*
G01*
X63713D02*
G03*
X63713Y347441I-800J0D01*
G01*
X236158Y38020D02*
G03*
X236158Y38020I-800J0D01*
G01*
Y131721D02*
G03*
X236158Y131721I-800J0D01*
G01*
X128064Y15000D02*
G03*
X128064Y15000I-800J0D01*
G01*
X34363D02*
G03*
X34363Y15000I-800J0D01*
G01*
X236158Y188020D02*
G03*
X236158Y188020I-800J0D01*
G01*
Y281720D02*
G03*
X236158Y281720I-800J0D01*
G01*
D76*
X235758Y38020D02*
G03*
X235758Y38020I-400J0D01*
G01*
Y131721D02*
G03*
X235758Y131721I-400J0D01*
G01*
X127664Y15000D02*
G03*
X127664Y15000I-400J0D01*
G01*
X33963D02*
G03*
X33963Y15000I-400J0D01*
G01*
X235758Y188020D02*
G03*
X235758Y188020I-400J0D01*
G01*
Y281720D02*
G03*
X235758Y281720I-400J0D01*
G01*
M02*
