  0
SECTION
  2
HEADER
  9
$ACADVER
  1
AC1009
  9
$FILLMODE
 70
 0
  9
$SPLFRAME
 70
 1
  9
$EXTMIN
 10
0
 20
0
 30
0.0
  9
$EXTMAX
 10
1058.33
 20
1058.33
 30
0.0
  0
ENDSEC
  0
SECTION
  2
TABLES
  0
TABLE
  2
LAYER
 70
1
  0
LAYER
  2
0
 70
     0
 62
     7
  6
CONTINUOUS
  0
ENDTAB
  0
ENDSEC
  0
SECTION
  2
ENTITIES
  0
LINE
  8
0
 62
     0
 10
73.7969
 20
95.5075
 30
0.0
 11
73.9923
 21
95.5008
 31
0.0
  0
LINE
  8
0
 62
     0
 10
73.9923
 20
95.5008
 30
0.0
 11
74.1881
 21
95.4775
 31
0.0
  0
LINE
  8
0
 62
     0
 10
74.1881
 20
95.4775
 30
0.0
 11
74.3797
 21
95.4387
 31
0.0
  0
LINE
  8
0
 62
     0
 10
74.3797
 20
95.4387
 30
0.0
 11
74.5684
 21
95.3851
 31
0.0
  0
LINE
  8
0
 62
     0
 10
74.5684
 20
95.3851
 30
0.0
 11
74.7529
 21
95.3174
 31
0.0
  0
LINE
  8
0
 62
     0
 10
74.7529
 20
95.3174
 30
0.0
 11
74.9307
 21
95.2348
 31
0.0
  0
LINE
  8
0
 62
     0
 10
74.9307
 20
95.2348
 30
0.0
 11
75.1032
 21
95.1399
 31
0.0
  0
LINE
  8
0
 62
     0
 10
75.1032
 20
95.1399
 30
0.0
 11
75.2658
 21
95.0309
 31
0.0
  0
LINE
  8
0
 62
     0
 10
75.2658
 20
95.0309
 30
0.0
 11
75.42
 21
94.9096
 31
0.0
  0
LINE
  8
0
 62
     0
 10
75.42
 20
94.9096
 30
0.0
 11
75.5632
 21
94.7759
 31
0.0
  0
LINE
  8
0
 62
     0
 10
75.5632
 20
94.7759
 30
0.0
 11
75.6969
 21
94.6312
 31
0.0
  0
LINE
  8
0
 62
     0
 10
75.6969
 20
94.6312
 30
0.0
 11
75.8183
 21
94.4771
 31
0.0
  0
LINE
  8
0
 62
     0
 10
75.8183
 20
94.4771
 30
0.0
 11
75.9273
 21
94.3144
 31
0.0
  0
LINE
  8
0
 62
     0
 10
75.9273
 20
94.3144
 30
0.0
 11
76.0236
 21
94.1419
 31
0.0
  0
LINE
  8
0
 62
     0
 10
76.0236
 20
94.1419
 30
0.0
 11
76.1047
 21
93.9641
 31
0.0
  0
LINE
  8
0
 62
     0
 10
76.1047
 20
93.9641
 30
0.0
 11
76.1739
 21
93.7796
 31
0.0
  0
LINE
  8
0
 62
     0
 10
76.1739
 20
93.7796
 30
0.0
 11
76.2261
 21
93.5909
 31
0.0
  0
LINE
  8
0
 62
     0
 10
76.2261
 20
93.5909
 30
0.0
 11
76.2663
 21
93.3993
 31
0.0
  0
LINE
  8
0
 62
     0
 10
76.2663
 20
93.3993
 30
0.0
 11
76.2882
 21
93.2035
 31
0.0
  0
LINE
  8
0
 62
     0
 10
76.2882
 20
93.2035
 30
0.0
 11
76.2963
 21
93.0081
 31
0.0
  0
LINE
  8
0
 62
     0
 10
76.2963
 20
93.0081
 30
0.0
 11
76.2963
 21
2.75608
 31
0.0
  0
LINE
  8
0
 62
     0
 10
76.2963
 20
2.75608
 30
0.0
 11
76.2882
 21
2.56039
 31
0.0
  0
LINE
  8
0
 62
     0
 10
76.2882
 20
2.56039
 30
0.0
 11
76.2663
 21
2.36472
 31
0.0
  0
LINE
  8
0
 62
     0
 10
76.2663
 20
2.36472
 30
0.0
 11
76.2261
 21
2.17317
 31
0.0
  0
LINE
  8
0
 62
     0
 10
76.2261
 20
2.17317
 30
0.0
 11
76.1739
 21
1.98438
 31
0.0
  0
LINE
  8
0
 62
     0
 10
76.1739
 20
1.98438
 30
0.0
 11
76.1047
 21
1.79972
 31
0.0
  0
LINE
  8
0
 62
     0
 10
76.1047
 20
1.79972
 30
0.0
 11
76.0236
 21
1.62195
 31
0.0
  0
LINE
  8
0
 62
     0
 10
76.0236
 20
1.62195
 30
0.0
 11
75.9273
 21
1.4497
 31
0.0
  0
LINE
  8
0
 62
     0
 10
75.9273
 20
1.4497
 30
0.0
 11
75.8183
 21
1.28709
 31
0.0
  0
LINE
  8
0
 62
     0
 10
75.8183
 20
1.28709
 30
0.0
 11
75.6969
 21
1.13275
 31
0.0
  0
LINE
  8
0
 62
     0
 10
75.6969
 20
1.13275
 30
0.0
 11
75.5632
 21
0.989432
 31
0.0
  0
LINE
  8
0
 62
     0
 10
75.5632
 20
0.989432
 30
0.0
 11
75.42
 21
0.855761
 31
0.0
  0
LINE
  8
0
 62
     0
 10
75.42
 20
0.855761
 30
0.0
 11
75.2658
 21
0.734494
 31
0.0
  0
LINE
  8
0
 62
     0
 10
75.2658
 20
0.734494
 30
0.0
 11
75.1032
 21
0.62563
 31
0.0
  0
LINE
  8
0
 62
     0
 10
75.1032
 20
0.62563
 30
0.0
 11
74.9307
 21
0.529167
 31
0.0
  0
LINE
  8
0
 62
     0
 10
74.9307
 20
0.529167
 30
0.0
 11
74.7529
 21
0.447862
 31
0.0
  0
LINE
  8
0
 62
     0
 10
74.7529
 20
0.447862
 30
0.0
 11
74.5684
 21
0.378961
 31
0.0
  0
LINE
  8
0
 62
     0
 10
74.5684
 20
0.378961
 30
0.0
 11
74.3797
 21
0.326595
 31
0.0
  0
LINE
  8
0
 62
     0
 10
74.3797
 20
0.326595
 30
0.0
 11
74.1881
 21
0.286632
 31
0.0
  0
LINE
  8
0
 62
     0
 10
74.1881
 20
0.286632
 30
0.0
 11
73.9923
 21
0.264583
 31
0.0
  0
LINE
  8
0
 62
     0
 10
73.9923
 20
0.264583
 30
0.0
 11
73.7955
 21
0.256315
 31
0.0
  0
LINE
  8
0
 62
     0
 10
73.7955
 20
0.256315
 30
0.0
 11
2.59485
 21
0.256315
 31
0.0
  0
LINE
  8
0
 62
     0
 10
2.59485
 20
0.256315
 30
0.0
 11
2.39916
 21
0.264583
 31
0.0
  0
LINE
  8
0
 62
     0
 10
2.39916
 20
0.264583
 30
0.0
 11
2.20348
 21
0.286632
 31
0.0
  0
LINE
  8
0
 62
     0
 10
2.20348
 20
0.286632
 30
0.0
 11
2.01194
 21
0.326595
 31
0.0
  0
LINE
  8
0
 62
     0
 10
2.01194
 20
0.326595
 30
0.0
 11
1.82315
 21
0.378961
 31
0.0
  0
LINE
  8
0
 62
     0
 10
1.82315
 20
0.378961
 30
0.0
 11
1.63849
 21
0.447862
 31
0.0
  0
LINE
  8
0
 62
     0
 10
1.63849
 20
0.447862
 30
0.0
 11
1.46072
 21
0.529167
 31
0.0
  0
LINE
  8
0
 62
     0
 10
1.46072
 20
0.529167
 30
0.0
 11
1.28846
 21
0.62563
 31
0.0
  0
LINE
  8
0
 62
     0
 10
1.28846
 20
0.62563
 30
0.0
 11
1.12586
 21
0.734494
 31
0.0
  0
LINE
  8
0
 62
     0
 10
1.12586
 20
0.734494
 30
0.0
 11
0.971518
 21
0.855761
 31
0.0
  0
LINE
  8
0
 62
     0
 10
0.971518
 20
0.855761
 30
0.0
 11
0.826823
 21
0.989432
 31
0.0
  0
LINE
  8
0
 62
     0
 10
0.826823
 20
0.989432
 30
0.0
 11
0.693152
 21
1.13275
 31
0.0
  0
LINE
  8
0
 62
     0
 10
0.693152
 20
1.13275
 30
0.0
 11
0.571885
 21
1.28709
 31
0.0
  0
LINE
  8
0
 62
     0
 10
0.571885
 20
1.28709
 30
0.0
 11
0.463021
 21
1.4497
 31
0.0
  0
LINE
  8
0
 62
     0
 10
0.463021
 20
1.4497
 30
0.0
 11
0.367937
 21
1.62195
 31
0.0
  0
LINE
  8
0
 62
     0
 10
0.367937
 20
1.62195
 30
0.0
 11
0.285254
 21
1.79972
 31
0.0
  0
LINE
  8
0
 62
     0
 10
0.285254
 20
1.79972
 30
0.0
 11
0.21773
 21
1.98438
 31
0.0
  0
LINE
  8
0
 62
     0
 10
0.21773
 20
1.98438
 30
0.0
 11
0.163987
 21
2.17317
 31
0.0
  0
LINE
  8
0
 62
     0
 10
0.163987
 20
2.17317
 30
0.0
 11
0.125402
 21
2.36472
 31
0.0
  0
LINE
  8
0
 62
     0
 10
0.125402
 20
2.36472
 30
0.0
 11
0.101975
 21
2.56039
 31
0.0
  0
LINE
  8
0
 62
     0
 10
0.101975
 20
2.56039
 30
0.0
 11
0.0950846
 21
2.75608
 31
0.0
  0
LINE
  8
0
 62
     0
 10
0.0950846
 20
2.75608
 30
0.0
 11
0.0950846
 21
93.0081
 31
0.0
  0
LINE
  8
0
 62
     0
 10
0.0950846
 20
93.0081
 30
0.0
 11
0.101975
 21
93.2035
 31
0.0
  0
LINE
  8
0
 62
     0
 10
0.101975
 20
93.2035
 30
0.0
 11
0.125402
 21
93.3993
 31
0.0
  0
LINE
  8
0
 62
     0
 10
0.125402
 20
93.3993
 30
0.0
 11
0.163987
 21
93.5909
 31
0.0
  0
LINE
  8
0
 62
     0
 10
0.163987
 20
93.5909
 30
0.0
 11
0.21773
 21
93.7796
 31
0.0
  0
LINE
  8
0
 62
     0
 10
0.21773
 20
93.7796
 30
0.0
 11
0.285254
 21
93.9641
 31
0.0
  0
LINE
  8
0
 62
     0
 10
0.285254
 20
93.9641
 30
0.0
 11
0.367937
 21
94.1419
 31
0.0
  0
LINE
  8
0
 62
     0
 10
0.367937
 20
94.1419
 30
0.0
 11
0.463021
 21
94.3144
 31
0.0
  0
LINE
  8
0
 62
     0
 10
0.463021
 20
94.3144
 30
0.0
 11
0.571885
 21
94.4771
 31
0.0
  0
LINE
  8
0
 62
     0
 10
0.571885
 20
94.4771
 30
0.0
 11
0.693152
 21
94.6312
 31
0.0
  0
LINE
  8
0
 62
     0
 10
0.693152
 20
94.6312
 30
0.0
 11
0.826823
 21
94.7759
 31
0.0
  0
LINE
  8
0
 62
     0
 10
0.826823
 20
94.7759
 30
0.0
 11
0.971518
 21
94.9096
 31
0.0
  0
LINE
  8
0
 62
     0
 10
0.971518
 20
94.9096
 30
0.0
 11
1.12586
 21
95.0309
 31
0.0
  0
LINE
  8
0
 62
     0
 10
1.12586
 20
95.0309
 30
0.0
 11
1.28846
 21
95.1399
 31
0.0
  0
LINE
  8
0
 62
     0
 10
1.28846
 20
95.1399
 30
0.0
 11
1.46072
 21
95.2348
 31
0.0
  0
LINE
  8
0
 62
     0
 10
1.46072
 20
95.2348
 30
0.0
 11
1.63849
 21
95.3174
 31
0.0
  0
LINE
  8
0
 62
     0
 10
1.63849
 20
95.3174
 30
0.0
 11
1.82315
 21
95.3851
 31
0.0
  0
LINE
  8
0
 62
     0
 10
1.82315
 20
95.3851
 30
0.0
 11
2.01194
 21
95.4387
 31
0.0
  0
LINE
  8
0
 62
     0
 10
2.01194
 20
95.4387
 30
0.0
 11
2.20348
 21
95.4775
 31
0.0
  0
LINE
  8
0
 62
     0
 10
2.20348
 20
95.4775
 30
0.0
 11
2.39916
 21
95.5008
 31
0.0
  0
LINE
  8
0
 62
     0
 10
2.39916
 20
95.5008
 30
0.0
 11
2.59485
 21
95.5075
 31
0.0
  0
LINE
  8
0
 62
     0
 10
2.59485
 20
95.5075
 30
0.0
 11
73.7969
 21
95.5075
 31
0.0
  0
LINE
  8
0
 62
     0
 10
12.146
 20
16.7817
 30
0.0
 11
12.146
 21
12.0826
 31
0.0
  0
LINE
  8
0
 62
     0
 10
12.146
 20
12.0826
 30
0.0
 11
10.6206
 21
12.0826
 31
0.0
  0
LINE
  8
0
 62
     0
 10
10.6206
 20
12.0826
 30
0.0
 11
10.6206
 21
15.3128
 31
0.0
  0
LINE
  8
0
 62
     0
 10
10.6206
 20
15.3128
 30
0.0
 11
3.87092
 21
15.3128
 31
0.0
  0
LINE
  8
0
 62
     0
 10
3.87092
 20
15.3128
 30
0.0
 11
3.87092
 21
12.0826
 31
0.0
  0
LINE
  8
0
 62
     0
 10
3.87092
 20
12.0826
 30
0.0
 11
3.04409
 21
12.0826
 31
0.0
  0
LINE
  8
0
 62
     0
 10
3.04409
 20
12.0826
 30
0.0
 11
3.04409
 21
9.28247
 31
0.0
  0
LINE
  8
0
 62
     0
 10
3.04409
 20
9.28247
 30
0.0
 11
3.87092
 21
9.28247
 31
0.0
  0
LINE
  8
0
 62
     0
 10
3.87092
 20
9.28247
 30
0.0
 11
3.87092
 21
3.01239
 31
0.0
  0
LINE
  8
0
 62
     0
 10
3.87092
 20
3.01239
 30
0.0
 11
5.59484
 21
3.01239
 31
0.0
  0
LINE
  8
0
 62
     0
 10
5.59484
 20
3.01239
 30
0.0
 11
5.59484
 21
1.81212
 31
0.0
  0
LINE
  8
0
 62
     0
 10
5.59484
 20
1.81212
 30
0.0
 11
8.89522
 21
1.81212
 31
0.0
  0
LINE
  8
0
 62
     0
 10
8.89522
 20
1.81212
 30
0.0
 11
8.89522
 21
3.01239
 31
0.0
  0
LINE
  8
0
 62
     0
 10
8.89522
 20
3.01239
 30
0.0
 11
10.6206
 21
3.01239
 31
0.0
  0
LINE
  8
0
 62
     0
 10
10.6206
 20
3.01239
 30
0.0
 11
10.6206
 21
7.48273
 31
0.0
  0
LINE
  8
0
 62
     0
 10
10.6206
 20
7.48273
 30
0.0
 11
12.146
 21
7.48273
 31
0.0
  0
LINE
  8
0
 62
     0
 10
12.146
 20
7.48273
 30
0.0
 11
12.146
 21
2.78226
 31
0.0
  0
LINE
  8
0
 62
     0
 10
12.146
 20
2.78226
 30
0.0
 11
26.1455
 21
2.78226
 31
0.0
  0
LINE
  8
0
 62
     0
 10
26.1455
 20
2.78226
 30
0.0
 11
26.1455
 21
7.48273
 31
0.0
  0
LINE
  8
0
 62
     0
 10
26.1455
 20
7.48273
 30
0.0
 11
27.671
 21
7.48273
 31
0.0
  0
LINE
  8
0
 62
     0
 10
27.671
 20
7.48273
 30
0.0
 11
27.671
 21
3.01239
 31
0.0
  0
LINE
  8
0
 62
     0
 10
27.671
 20
3.01239
 30
0.0
 11
29.3949
 21
3.01239
 31
0.0
  0
LINE
  8
0
 62
     0
 10
29.3949
 20
3.01239
 30
0.0
 11
29.3949
 21
1.81212
 31
0.0
  0
LINE
  8
0
 62
     0
 10
29.3949
 20
1.81212
 30
0.0
 11
32.6953
 21
1.81212
 31
0.0
  0
LINE
  8
0
 62
     0
 10
32.6953
 20
1.81212
 30
0.0
 11
32.6953
 21
3.01239
 31
0.0
  0
LINE
  8
0
 62
     0
 10
32.6953
 20
3.01239
 30
0.0
 11
34.4206
 21
3.01239
 31
0.0
  0
LINE
  8
0
 62
     0
 10
34.4206
 20
3.01239
 30
0.0
 11
34.4206
 21
9.28247
 31
0.0
  0
LINE
  8
0
 62
     0
 10
34.4206
 20
9.28247
 30
0.0
 11
35.2461
 21
9.28247
 31
0.0
  0
LINE
  8
0
 62
     0
 10
35.2461
 20
9.28247
 30
0.0
 11
35.2461
 21
12.0826
 31
0.0
  0
LINE
  8
0
 62
     0
 10
35.2461
 20
12.0826
 30
0.0
 11
34.4206
 21
12.0826
 31
0.0
  0
LINE
  8
0
 62
     0
 10
34.4206
 20
12.0826
 30
0.0
 11
34.4206
 21
15.3128
 31
0.0
  0
LINE
  8
0
 62
     0
 10
34.4206
 20
15.3128
 30
0.0
 11
27.671
 21
15.3128
 31
0.0
  0
LINE
  8
0
 62
     0
 10
27.671
 20
15.3128
 30
0.0
 11
27.671
 21
12.0826
 31
0.0
  0
LINE
  8
0
 62
     0
 10
27.671
 20
12.0826
 30
0.0
 11
26.1455
 21
12.0826
 31
0.0
  0
LINE
  8
0
 62
     0
 10
26.1455
 20
12.0826
 30
0.0
 11
26.1455
 21
16.7817
 31
0.0
  0
LINE
  8
0
 62
     0
 10
26.1455
 20
16.7817
 30
0.0
 11
12.146
 21
16.7817
 31
0.0
  0
LINE
  8
0
 62
     0
 10
40.7211
 20
16.7817
 30
0.0
 11
54.7204
 21
16.7817
 31
0.0
  0
LINE
  8
0
 62
     0
 10
54.7204
 20
16.7817
 30
0.0
 11
54.7204
 21
2.78226
 31
0.0
  0
LINE
  8
0
 62
     0
 10
54.7204
 20
2.78226
 30
0.0
 11
40.7211
 21
2.78226
 31
0.0
  0
LINE
  8
0
 62
     0
 10
40.7211
 20
2.78226
 30
0.0
 11
40.7211
 21
16.7817
 31
0.0
  0
LINE
  8
0
 62
     0
 10
66.27
 20
35.4087
 30
0.0
 11
66.27
 21
34.5819
 31
0.0
  0
LINE
  8
0
 62
     0
 10
66.27
 20
34.5819
 30
0.0
 11
60.0012
 21
34.5819
 31
0.0
  0
LINE
  8
0
 62
     0
 10
60.0012
 20
34.5819
 30
0.0
 11
60.0012
 21
32.8579
 31
0.0
  0
LINE
  8
0
 62
     0
 10
60.0012
 20
32.8579
 30
0.0
 11
58.801
 21
32.8579
 31
0.0
  0
LINE
  8
0
 62
     0
 10
58.801
 20
32.8579
 30
0.0
 11
58.801
 21
29.5576
 31
0.0
  0
LINE
  8
0
 62
     0
 10
58.801
 20
29.5576
 30
0.0
 11
60.0012
 21
29.5576
 31
0.0
  0
LINE
  8
0
 62
     0
 10
60.0012
 20
29.5576
 30
0.0
 11
60.0012
 21
27.8322
 31
0.0
  0
LINE
  8
0
 62
     0
 10
60.0012
 20
27.8322
 30
0.0
 11
64.4701
 21
27.8322
 31
0.0
  0
LINE
  8
0
 62
     0
 10
64.4701
 20
27.8322
 30
0.0
 11
64.4701
 21
26.3067
 31
0.0
  0
LINE
  8
0
 62
     0
 10
64.4701
 20
26.3067
 30
0.0
 11
59.7711
 21
26.3067
 31
0.0
  0
LINE
  8
0
 62
     0
 10
59.7711
 20
26.3067
 30
0.0
 11
59.7711
 21
12.3073
 31
0.0
  0
LINE
  8
0
 62
     0
 10
59.7711
 20
12.3073
 30
0.0
 11
64.4701
 21
12.3073
 31
0.0
  0
LINE
  8
0
 62
     0
 10
64.4701
 20
12.3073
 30
0.0
 11
64.4701
 21
10.7818
 31
0.0
  0
LINE
  8
0
 62
     0
 10
64.4701
 20
10.7818
 30
0.0
 11
60.0012
 21
10.7818
 31
0.0
  0
LINE
  8
0
 62
     0
 10
60.0012
 20
10.7818
 30
0.0
 11
60.0012
 21
9.05785
 31
0.0
  0
LINE
  8
0
 62
     0
 10
60.0012
 20
9.05785
 30
0.0
 11
58.801
 21
9.05785
 31
0.0
  0
LINE
  8
0
 62
     0
 10
58.801
 20
9.05785
 30
0.0
 11
58.801
 21
5.75744
 31
0.0
  0
LINE
  8
0
 62
     0
 10
58.801
 20
5.75744
 30
0.0
 11
60.0012
 21
5.75744
 31
0.0
  0
LINE
  8
0
 62
     0
 10
60.0012
 20
5.75744
 30
0.0
 11
60.0012
 21
4.03214
 31
0.0
  0
LINE
  8
0
 62
     0
 10
60.0012
 20
4.03214
 30
0.0
 11
66.27
 21
4.03214
 31
0.0
  0
LINE
  8
0
 62
     0
 10
66.27
 20
4.03214
 30
0.0
 11
66.27
 21
3.20669
 31
0.0
  0
LINE
  8
0
 62
     0
 10
66.27
 20
3.20669
 30
0.0
 11
69.07
 21
3.20669
 31
0.0
  0
LINE
  8
0
 62
     0
 10
69.07
 20
3.20669
 30
0.0
 11
69.07
 21
4.03214
 31
0.0
  0
LINE
  8
0
 62
     0
 10
69.07
 20
4.03214
 30
0.0
 11
72.3
 21
4.03214
 31
0.0
  0
LINE
  8
0
 62
     0
 10
72.3
 20
4.03214
 30
0.0
 11
72.3
 21
10.7818
 31
0.0
  0
LINE
  8
0
 62
     0
 10
72.3
 20
10.7818
 30
0.0
 11
69.07
 21
10.7818
 31
0.0
  0
LINE
  8
0
 62
     0
 10
69.07
 20
10.7818
 30
0.0
 11
69.07
 21
12.3073
 31
0.0
  0
LINE
  8
0
 62
     0
 10
69.07
 20
12.3073
 30
0.0
 11
73.7704
 21
12.3073
 31
0.0
  0
LINE
  8
0
 62
     0
 10
73.7704
 20
12.3073
 30
0.0
 11
73.7704
 21
26.3067
 31
0.0
  0
LINE
  8
0
 62
     0
 10
73.7704
 20
26.3067
 30
0.0
 11
69.07
 21
26.3067
 31
0.0
  0
LINE
  8
0
 62
     0
 10
69.07
 20
26.3067
 30
0.0
 11
69.07
 21
27.8322
 31
0.0
  0
LINE
  8
0
 62
     0
 10
69.07
 20
27.8322
 30
0.0
 11
72.3
 21
27.8322
 31
0.0
  0
LINE
  8
0
 62
     0
 10
72.3
 20
27.8322
 30
0.0
 11
72.3
 21
34.5819
 31
0.0
  0
LINE
  8
0
 62
     0
 10
72.3
 20
34.5819
 30
0.0
 11
69.07
 21
34.5819
 31
0.0
  0
LINE
  8
0
 62
     0
 10
69.07
 20
34.5819
 30
0.0
 11
69.07
 21
35.4087
 31
0.0
  0
LINE
  8
0
 62
     0
 10
69.07
 20
35.4087
 30
0.0
 11
66.27
 21
35.4087
 31
0.0
  0
LINE
  8
0
 62
     0
 10
2.62103
 20
35.8316
 30
0.0
 11
16.6205
 21
35.8316
 31
0.0
  0
LINE
  8
0
 62
     0
 10
16.6205
 20
35.8316
 30
0.0
 11
16.6205
 21
21.8323
 31
0.0
  0
LINE
  8
0
 62
     0
 10
16.6205
 20
21.8323
 30
0.0
 11
2.62103
 21
21.8323
 31
0.0
  0
LINE
  8
0
 62
     0
 10
2.62103
 20
21.8323
 30
0.0
 11
2.62103
 21
35.8316
 31
0.0
  0
LINE
  8
0
 62
     0
 10
21.671
 20
35.8316
 30
0.0
 11
35.6704
 21
35.8316
 31
0.0
  0
LINE
  8
0
 62
     0
 10
35.6704
 20
35.8316
 30
0.0
 11
35.6704
 21
21.8323
 31
0.0
  0
LINE
  8
0
 62
     0
 10
35.6704
 20
21.8323
 30
0.0
 11
21.671
 21
21.8323
 31
0.0
  0
LINE
  8
0
 62
     0
 10
21.671
 20
21.8323
 30
0.0
 11
21.671
 21
35.8316
 31
0.0
  0
LINE
  8
0
 62
     0
 10
40.7211
 20
35.8316
 30
0.0
 11
54.7204
 21
35.8316
 31
0.0
  0
LINE
  8
0
 62
     0
 10
54.7204
 20
35.8316
 30
0.0
 11
54.7204
 21
21.8323
 31
0.0
  0
LINE
  8
0
 62
     0
 10
54.7204
 20
21.8323
 30
0.0
 11
40.7211
 21
21.8323
 31
0.0
  0
LINE
  8
0
 62
     0
 10
40.7211
 20
21.8323
 30
0.0
 11
40.7211
 21
35.8316
 31
0.0
  0
LINE
  8
0
 62
     0
 10
2.62103
 20
54.8816
 30
0.0
 11
16.6205
 21
54.8816
 31
0.0
  0
LINE
  8
0
 62
     0
 10
16.6205
 20
54.8816
 30
0.0
 11
16.6205
 21
40.8824
 31
0.0
  0
LINE
  8
0
 62
     0
 10
16.6205
 20
40.8824
 30
0.0
 11
2.62103
 21
40.8824
 31
0.0
  0
LINE
  8
0
 62
     0
 10
2.62103
 20
40.8824
 30
0.0
 11
2.62103
 21
54.8816
 31
0.0
  0
LINE
  8
0
 62
     0
 10
21.671
 20
54.8816
 30
0.0
 11
35.6704
 21
54.8816
 31
0.0
  0
LINE
  8
0
 62
     0
 10
35.6704
 20
54.8816
 30
0.0
 11
35.6704
 21
40.8824
 31
0.0
  0
LINE
  8
0
 62
     0
 10
35.6704
 20
40.8824
 30
0.0
 11
21.671
 21
40.8824
 31
0.0
  0
LINE
  8
0
 62
     0
 10
21.671
 20
40.8824
 30
0.0
 11
21.671
 21
54.8816
 31
0.0
  0
LINE
  8
0
 62
     0
 10
40.7211
 20
54.8816
 30
0.0
 11
54.7204
 21
54.8816
 31
0.0
  0
LINE
  8
0
 62
     0
 10
54.7204
 20
54.8816
 30
0.0
 11
54.7204
 21
40.8824
 31
0.0
  0
LINE
  8
0
 62
     0
 10
54.7204
 20
40.8824
 30
0.0
 11
40.7211
 21
40.8824
 31
0.0
  0
LINE
  8
0
 62
     0
 10
40.7211
 20
40.8824
 30
0.0
 11
40.7211
 21
54.8816
 31
0.0
  0
LINE
  8
0
 62
     0
 10
66.27
 20
73.5072
 30
0.0
 11
66.27
 21
72.6817
 31
0.0
  0
LINE
  8
0
 62
     0
 10
66.27
 20
72.6817
 30
0.0
 11
60.0012
 21
72.6817
 31
0.0
  0
LINE
  8
0
 62
     0
 10
60.0012
 20
72.6817
 30
0.0
 11
60.0012
 21
70.9581
 31
0.0
  0
LINE
  8
0
 62
     0
 10
60.0012
 20
70.9581
 30
0.0
 11
58.801
 21
70.9581
 31
0.0
  0
LINE
  8
0
 62
     0
 10
58.801
 20
70.9581
 30
0.0
 11
58.801
 21
67.6575
 31
0.0
  0
LINE
  8
0
 62
     0
 10
58.801
 20
67.6575
 30
0.0
 11
60.0012
 21
67.6575
 31
0.0
  0
LINE
  8
0
 62
     0
 10
60.0012
 20
67.6575
 30
0.0
 11
60.0012
 21
65.9324
 31
0.0
  0
LINE
  8
0
 62
     0
 10
60.0012
 20
65.9324
 30
0.0
 11
64.4701
 21
65.9324
 31
0.0
  0
LINE
  8
0
 62
     0
 10
64.4701
 20
65.9324
 30
0.0
 11
64.4701
 21
64.4066
 31
0.0
  0
LINE
  8
0
 62
     0
 10
64.4701
 20
64.4066
 30
0.0
 11
59.7711
 21
64.4066
 31
0.0
  0
LINE
  8
0
 62
     0
 10
59.7711
 20
64.4066
 30
0.0
 11
59.7711
 21
50.4074
 31
0.0
  0
LINE
  8
0
 62
     0
 10
59.7711
 20
50.4074
 30
0.0
 11
64.4701
 21
50.4074
 31
0.0
  0
LINE
  8
0
 62
     0
 10
64.4701
 20
50.4074
 30
0.0
 11
64.4701
 21
48.8819
 31
0.0
  0
LINE
  8
0
 62
     0
 10
64.4701
 20
48.8819
 30
0.0
 11
60.0012
 21
48.8819
 31
0.0
  0
LINE
  8
0
 62
     0
 10
60.0012
 20
48.8819
 30
0.0
 11
60.0012
 21
47.1579
 31
0.0
  0
LINE
  8
0
 62
     0
 10
60.0012
 20
47.1579
 30
0.0
 11
58.801
 21
47.1579
 31
0.0
  0
LINE
  8
0
 62
     0
 10
58.801
 20
47.1579
 30
0.0
 11
58.801
 21
43.8573
 31
0.0
  0
LINE
  8
0
 62
     0
 10
58.801
 20
43.8573
 30
0.0
 11
60.0012
 21
43.8573
 31
0.0
  0
LINE
  8
0
 62
     0
 10
60.0012
 20
43.8573
 30
0.0
 11
60.0012
 21
42.1323
 31
0.0
  0
LINE
  8
0
 62
     0
 10
60.0012
 20
42.1323
 30
0.0
 11
66.27
 21
42.1323
 31
0.0
  0
LINE
  8
0
 62
     0
 10
66.27
 20
42.1323
 30
0.0
 11
66.27
 21
41.3067
 31
0.0
  0
LINE
  8
0
 62
     0
 10
66.27
 20
41.3067
 30
0.0
 11
69.07
 21
41.3067
 31
0.0
  0
LINE
  8
0
 62
     0
 10
69.07
 20
41.3067
 30
0.0
 11
69.07
 21
42.1323
 31
0.0
  0
LINE
  8
0
 62
     0
 10
69.07
 20
42.1323
 30
0.0
 11
72.3
 21
42.1323
 31
0.0
  0
LINE
  8
0
 62
     0
 10
72.3
 20
42.1323
 30
0.0
 11
72.3
 21
48.8819
 31
0.0
  0
LINE
  8
0
 62
     0
 10
72.3
 20
48.8819
 30
0.0
 11
69.07
 21
48.8819
 31
0.0
  0
LINE
  8
0
 62
     0
 10
69.07
 20
48.8819
 30
0.0
 11
69.07
 21
50.4074
 31
0.0
  0
LINE
  8
0
 62
     0
 10
69.07
 20
50.4074
 30
0.0
 11
73.7704
 21
50.4074
 31
0.0
  0
LINE
  8
0
 62
     0
 10
73.7704
 20
50.4074
 30
0.0
 11
73.7704
 21
64.4066
 31
0.0
  0
LINE
  8
0
 62
     0
 10
73.7704
 20
64.4066
 30
0.0
 11
69.07
 21
64.4066
 31
0.0
  0
LINE
  8
0
 62
     0
 10
69.07
 20
64.4066
 30
0.0
 11
69.07
 21
65.9324
 31
0.0
  0
LINE
  8
0
 62
     0
 10
69.07
 20
65.9324
 30
0.0
 11
72.3
 21
65.9324
 31
0.0
  0
LINE
  8
0
 62
     0
 10
72.3
 20
65.9324
 30
0.0
 11
72.3
 21
72.6817
 31
0.0
  0
LINE
  8
0
 62
     0
 10
72.3
 20
72.6817
 30
0.0
 11
69.07
 21
72.6817
 31
0.0
  0
LINE
  8
0
 62
     0
 10
69.07
 20
72.6817
 30
0.0
 11
69.07
 21
73.5072
 31
0.0
  0
LINE
  8
0
 62
     0
 10
69.07
 20
73.5072
 30
0.0
 11
66.27
 21
73.5072
 31
0.0
  0
LINE
  8
0
 62
     0
 10
2.62103
 20
73.9316
 30
0.0
 11
16.6205
 21
73.9316
 31
0.0
  0
LINE
  8
0
 62
     0
 10
16.6205
 20
73.9316
 30
0.0
 11
16.6205
 21
59.9324
 31
0.0
  0
LINE
  8
0
 62
     0
 10
16.6205
 20
59.9324
 30
0.0
 11
2.62103
 21
59.9324
 31
0.0
  0
LINE
  8
0
 62
     0
 10
2.62103
 20
59.9324
 30
0.0
 11
2.62103
 21
73.9316
 31
0.0
  0
LINE
  8
0
 62
     0
 10
21.671
 20
73.9316
 30
0.0
 11
35.6704
 21
73.9316
 31
0.0
  0
LINE
  8
0
 62
     0
 10
35.6704
 20
73.9316
 30
0.0
 11
35.6704
 21
59.9324
 31
0.0
  0
LINE
  8
0
 62
     0
 10
35.6704
 20
59.9324
 30
0.0
 11
21.671
 21
59.9324
 31
0.0
  0
LINE
  8
0
 62
     0
 10
21.671
 20
59.9324
 30
0.0
 11
21.671
 21
73.9316
 31
0.0
  0
LINE
  8
0
 62
     0
 10
40.7211
 20
73.9316
 30
0.0
 11
54.7204
 21
73.9316
 31
0.0
  0
LINE
  8
0
 62
     0
 10
54.7204
 20
73.9316
 30
0.0
 11
54.7204
 21
59.9324
 31
0.0
  0
LINE
  8
0
 62
     0
 10
54.7204
 20
59.9324
 30
0.0
 11
40.7211
 21
59.9324
 31
0.0
  0
LINE
  8
0
 62
     0
 10
40.7211
 20
59.9324
 30
0.0
 11
40.7211
 21
73.9316
 31
0.0
  0
LINE
  8
0
 62
     0
 10
2.62103
 20
92.9816
 30
0.0
 11
16.6205
 21
92.9816
 31
0.0
  0
LINE
  8
0
 62
     0
 10
16.6205
 20
92.9816
 30
0.0
 11
16.6205
 21
78.9824
 31
0.0
  0
LINE
  8
0
 62
     0
 10
16.6205
 20
78.9824
 30
0.0
 11
2.62103
 21
78.9824
 31
0.0
  0
LINE
  8
0
 62
     0
 10
2.62103
 20
78.9824
 30
0.0
 11
2.62103
 21
92.9816
 31
0.0
  0
LINE
  8
0
 62
     0
 10
21.671
 20
92.9816
 30
0.0
 11
35.6704
 21
92.9816
 31
0.0
  0
LINE
  8
0
 62
     0
 10
35.6704
 20
92.9816
 30
0.0
 11
35.6704
 21
78.9824
 31
0.0
  0
LINE
  8
0
 62
     0
 10
35.6704
 20
78.9824
 30
0.0
 11
21.671
 21
78.9824
 31
0.0
  0
LINE
  8
0
 62
     0
 10
21.671
 20
78.9824
 30
0.0
 11
21.671
 21
92.9816
 31
0.0
  0
LINE
  8
0
 62
     0
 10
40.7211
 20
92.9816
 30
0.0
 11
54.7204
 21
92.9816
 31
0.0
  0
LINE
  8
0
 62
     0
 10
54.7204
 20
92.9816
 30
0.0
 11
54.7204
 21
78.9824
 31
0.0
  0
LINE
  8
0
 62
     0
 10
54.7204
 20
78.9824
 30
0.0
 11
40.7211
 21
78.9824
 31
0.0
  0
LINE
  8
0
 62
     0
 10
40.7211
 20
78.9824
 30
0.0
 11
40.7211
 21
92.9816
 31
0.0
  0
LINE
  8
0
 62
     0
 10
59.7711
 20
92.9816
 30
0.0
 11
73.7704
 21
92.9816
 31
0.0
  0
LINE
  8
0
 62
     0
 10
73.7704
 20
92.9816
 30
0.0
 11
73.7704
 21
78.9824
 31
0.0
  0
LINE
  8
0
 62
     0
 10
73.7704
 20
78.9824
 30
0.0
 11
59.7711
 21
78.9824
 31
0.0
  0
LINE
  8
0
 62
     0
 10
59.7711
 20
78.9824
 30
0.0
 11
59.7711
 21
92.9816
 31
0.0
  0
ENDSEC
  0
EOF
