G04*
G04 #@! TF.GenerationSoftware,Altium Limited,Altium Designer,22.9.1 (49)*
G04*
G04 Layer_Color=16711935*
%FSLAX44Y44*%
%MOMM*%
G71*
G04*
G04 #@! TF.SameCoordinates,E961C7B3-AF31-4016-A867-0A9A946A4240*
G04*
G04*
G04 #@! TF.FilePolarity,Negative*
G04*
G01*
G75*
%ADD43C,1.5240*%
%ADD44C,1.6740*%
%ADD45C,2.6000*%
%ADD46C,0.1500*%
%ADD47C,1.6500*%
%ADD48C,2.9500*%
%ADD49C,1.4500*%
%ADD50C,1.1500*%
%ADD51C,2.0550*%
%ADD52O,2.5500X1.3500*%
%ADD53C,0.7500*%
%ADD54C,0.8500*%
%ADD71O,2.2500X1.2000*%
D43*
X61100Y1290600D02*
D03*
X86500D02*
D03*
X111900D02*
D03*
X61100Y1316000D02*
D03*
X86500D02*
D03*
X111900D02*
D03*
D44*
X680208Y215571D02*
D03*
X489771Y124759D02*
D03*
X204250Y120501D02*
D03*
X490001Y311000D02*
D03*
X299500D02*
D03*
X109000D02*
D03*
X680208Y596570D02*
D03*
X490001Y501500D02*
D03*
X299500D02*
D03*
X109000D02*
D03*
X680501Y882500D02*
D03*
X490001Y692000D02*
D03*
X299500D02*
D03*
X109000D02*
D03*
X490001Y882500D02*
D03*
X299500D02*
D03*
X109000D02*
D03*
D45*
X718308Y190171D02*
D03*
X654808Y164771D02*
D03*
X527871Y99359D02*
D03*
X464371Y73959D02*
D03*
X242350Y95101D02*
D03*
X178850Y69701D02*
D03*
X528101Y285600D02*
D03*
X464601Y260200D02*
D03*
X337600Y285600D02*
D03*
X274100Y260200D02*
D03*
X147100Y285600D02*
D03*
X83600Y260200D02*
D03*
X718308Y571170D02*
D03*
X654808Y545770D02*
D03*
X528101Y476100D02*
D03*
X464601Y450700D02*
D03*
X337600Y476100D02*
D03*
X274100Y450700D02*
D03*
X147100Y476100D02*
D03*
X83600Y450700D02*
D03*
X718601Y857100D02*
D03*
X655101Y831700D02*
D03*
X528101Y666600D02*
D03*
X464601Y641200D02*
D03*
X337600Y666600D02*
D03*
X274100Y641200D02*
D03*
X147100Y666600D02*
D03*
X83600Y641200D02*
D03*
X528101Y857100D02*
D03*
X464601Y831700D02*
D03*
X337600Y857100D02*
D03*
X274100Y831700D02*
D03*
X147100Y857100D02*
D03*
X83600Y831700D02*
D03*
D46*
X629408Y215571D02*
D03*
X731008D02*
D03*
X438971Y124759D02*
D03*
X540571D02*
D03*
X153450Y120501D02*
D03*
X255050D02*
D03*
X439201Y311000D02*
D03*
X540801D02*
D03*
X248700D02*
D03*
X350300D02*
D03*
X58200D02*
D03*
X159800D02*
D03*
X629408Y596570D02*
D03*
X731008D02*
D03*
X439201Y501500D02*
D03*
X540801D02*
D03*
X248700D02*
D03*
X350300D02*
D03*
X58200D02*
D03*
X159800D02*
D03*
X629701Y882500D02*
D03*
X731301D02*
D03*
X439201Y692000D02*
D03*
X540801D02*
D03*
X248700D02*
D03*
X350300D02*
D03*
X58200D02*
D03*
X159800D02*
D03*
X439201Y882500D02*
D03*
X540801D02*
D03*
X248700D02*
D03*
X350300D02*
D03*
X58200D02*
D03*
X159800D02*
D03*
D47*
X543500Y1319500D02*
D03*
X478500D02*
D03*
X543500Y1274500D02*
D03*
X478500D02*
D03*
D48*
X166000Y1156500D02*
D03*
X44000D02*
D03*
D49*
X105000Y1081500D02*
D03*
X130000D02*
D03*
X80000D02*
D03*
X130000Y1226500D02*
D03*
X80000D02*
D03*
D50*
X750208Y96071D02*
D03*
Y334071D02*
D03*
X597808Y96571D02*
D03*
Y334571D02*
D03*
X323750Y190501D02*
D03*
X85750D02*
D03*
X323250Y38101D02*
D03*
X85250D02*
D03*
X750208Y477070D02*
D03*
Y715070D02*
D03*
X597808Y477570D02*
D03*
Y715570D02*
D03*
D51*
X532171Y1042959D02*
D03*
X633771D02*
D03*
X659171D02*
D03*
X608371D02*
D03*
X582971D02*
D03*
X557571D02*
D03*
D52*
X779500Y1323250D02*
D03*
Y1268750D02*
D03*
D53*
X359500Y1190500D02*
D03*
X366000Y1184000D02*
D03*
X369000Y1168500D02*
D03*
X216000Y1097500D02*
D03*
X731000Y1304500D02*
D03*
D54*
X374000Y1136500D02*
D03*
X374500Y1152500D02*
D03*
X390000Y1114500D02*
D03*
X439500Y1261000D02*
D03*
X301000Y1234000D02*
D03*
X316000Y1233500D02*
D03*
X327500Y1052000D02*
D03*
X310500D02*
D03*
X193000Y1173000D02*
D03*
X262000Y1218500D02*
D03*
X263000Y1067000D02*
D03*
X271000Y1057000D02*
D03*
X282000Y1053500D02*
D03*
X295500Y1070500D02*
D03*
X374500Y1237000D02*
D03*
X650900Y1319740D02*
D03*
X660000Y1247000D02*
D03*
X616000D02*
D03*
X616000Y1233000D02*
D03*
X424000Y1263000D02*
D03*
X630667Y1233000D02*
D03*
X660000D02*
D03*
X645333D02*
D03*
X217000Y985500D02*
D03*
X272500Y1220000D02*
D03*
X250000Y1057000D02*
D03*
X235000Y1057500D02*
D03*
X728500Y1319000D02*
D03*
X115500Y1025290D02*
D03*
X159500Y1055790D02*
D03*
X109000D02*
D03*
X65000Y1025290D02*
D03*
X193500Y1189000D02*
D03*
X200500Y1239500D02*
D03*
D71*
X749200Y1320250D02*
D03*
Y1271750D02*
D03*
M02*
