G04*
G04 #@! TF.GenerationSoftware,Altium Limited,Altium Designer,22.9.1 (49)*
G04*
G04 Layer_Color=16711935*
%FSLAX25Y25*%
%MOIN*%
G70*
G04*
G04 #@! TF.SameCoordinates,9D6E7D6E-5856-4DC7-B93E-05E9B7285799*
G04*
G04*
G04 #@! TF.FilePolarity,Negative*
G04*
G01*
G75*
%ADD43C,0.06000*%
%ADD44C,0.06591*%
%ADD45C,0.10236*%
%ADD46C,0.00591*%
%ADD47C,0.06496*%
%ADD48C,0.11614*%
%ADD49C,0.05709*%
%ADD50C,0.04528*%
%ADD51C,0.08091*%
%ADD52O,0.10039X0.05315*%
%ADD53C,0.02953*%
%ADD54C,0.03347*%
%ADD71O,0.08858X0.04724*%
D43*
X24055Y508110D02*
D03*
X34055D02*
D03*
X44055D02*
D03*
X24055Y518110D02*
D03*
X34055D02*
D03*
X44055D02*
D03*
D44*
X267799Y84870D02*
D03*
X192823Y49118D02*
D03*
X80413Y47441D02*
D03*
X192914Y122441D02*
D03*
X117913D02*
D03*
X42913D02*
D03*
X267799Y234870D02*
D03*
X192914Y197441D02*
D03*
X117913D02*
D03*
X42913D02*
D03*
X267914Y347441D02*
D03*
X192914Y272441D02*
D03*
X117913D02*
D03*
X42913D02*
D03*
X192914Y347441D02*
D03*
X117913D02*
D03*
X42913D02*
D03*
D45*
X282799Y74871D02*
D03*
X257799Y64871D02*
D03*
X207823Y39118D02*
D03*
X182823Y29118D02*
D03*
X95413Y37441D02*
D03*
X70413Y27441D02*
D03*
X207914Y112441D02*
D03*
X182914Y102441D02*
D03*
X132913Y112441D02*
D03*
X107913Y102441D02*
D03*
X57913Y112441D02*
D03*
X32913Y102441D02*
D03*
X282799Y224870D02*
D03*
X257799Y214870D02*
D03*
X207914Y187441D02*
D03*
X182914Y177441D02*
D03*
X132913Y187441D02*
D03*
X107913Y177441D02*
D03*
X57913Y187441D02*
D03*
X32913Y177441D02*
D03*
X282914Y337441D02*
D03*
X257914Y327441D02*
D03*
X207914Y262441D02*
D03*
X182914Y252441D02*
D03*
X132913Y262441D02*
D03*
X107913Y252441D02*
D03*
X57913Y262441D02*
D03*
X32913Y252441D02*
D03*
X207914Y337441D02*
D03*
X182914Y327441D02*
D03*
X132913Y337441D02*
D03*
X107913Y327441D02*
D03*
X57913Y337441D02*
D03*
X32913Y327441D02*
D03*
D46*
X247799Y84870D02*
D03*
X287799D02*
D03*
X172823Y49118D02*
D03*
X212823D02*
D03*
X60413Y47441D02*
D03*
X100413D02*
D03*
X172914Y122441D02*
D03*
X212914D02*
D03*
X97913D02*
D03*
X137913D02*
D03*
X22913D02*
D03*
X62913D02*
D03*
X247799Y234870D02*
D03*
X287799D02*
D03*
X172914Y197441D02*
D03*
X212914D02*
D03*
X97913D02*
D03*
X137913D02*
D03*
X22913D02*
D03*
X62913D02*
D03*
X247914Y347441D02*
D03*
X287914D02*
D03*
X172914Y272441D02*
D03*
X212914D02*
D03*
X97913D02*
D03*
X137913D02*
D03*
X22913D02*
D03*
X62913D02*
D03*
X172914Y347441D02*
D03*
X212914D02*
D03*
X97913D02*
D03*
X137913D02*
D03*
X22913D02*
D03*
X62913D02*
D03*
D47*
X213976Y519488D02*
D03*
X188386D02*
D03*
X213976Y501772D02*
D03*
X188386D02*
D03*
D48*
X65354Y455315D02*
D03*
X17323D02*
D03*
D49*
X41339Y425787D02*
D03*
X51181D02*
D03*
X31496D02*
D03*
X51181Y482874D02*
D03*
X31496D02*
D03*
D50*
X295358Y37823D02*
D03*
Y131524D02*
D03*
X235358Y38020D02*
D03*
Y131721D02*
D03*
X127461Y75000D02*
D03*
X33760D02*
D03*
X127264Y15000D02*
D03*
X33563D02*
D03*
X295358Y187823D02*
D03*
Y281524D02*
D03*
X235358Y188020D02*
D03*
Y281720D02*
D03*
D51*
X209516Y410614D02*
D03*
X249516D02*
D03*
X259516D02*
D03*
X239516D02*
D03*
X229516D02*
D03*
X219516D02*
D03*
D52*
X306890Y520965D02*
D03*
Y499508D02*
D03*
D53*
X141535Y468701D02*
D03*
X144095Y466142D02*
D03*
X145276Y460039D02*
D03*
X85039Y432087D02*
D03*
X287795Y513583D02*
D03*
D54*
X147244Y447441D02*
D03*
X147441Y453740D02*
D03*
X153543Y438779D02*
D03*
X173031Y496457D02*
D03*
X118504Y485827D02*
D03*
X124409Y485630D02*
D03*
X128937Y414173D02*
D03*
X122244D02*
D03*
X75984Y461811D02*
D03*
X103150Y479724D02*
D03*
X103543Y420079D02*
D03*
X106693Y416142D02*
D03*
X111024Y414764D02*
D03*
X116339Y421457D02*
D03*
X147441Y487008D02*
D03*
X256260Y519583D02*
D03*
X259842Y490945D02*
D03*
X242520D02*
D03*
X242520Y485433D02*
D03*
X166929Y497244D02*
D03*
X248294Y485433D02*
D03*
X259842D02*
D03*
X254068D02*
D03*
X85433Y387992D02*
D03*
X107283Y480315D02*
D03*
X98425Y416142D02*
D03*
X92520Y416339D02*
D03*
X286811Y519291D02*
D03*
X45472Y403658D02*
D03*
X62795Y415665D02*
D03*
X42913D02*
D03*
X25591Y403658D02*
D03*
X76181Y468110D02*
D03*
X78937Y487992D02*
D03*
D71*
X294961Y519783D02*
D03*
Y500689D02*
D03*
M02*
