G04*
G04 #@! TF.GenerationSoftware,Altium Limited,Altium Designer,22.9.1 (49)*
G04*
G04 Layer_Physical_Order=4*
G04 Layer_Color=16711680*
%FSLAX44Y44*%
%MOMM*%
G71*
G04*
G04 #@! TF.SameCoordinates,E961C7B3-AF31-4016-A867-0A9A946A4240*
G04*
G04*
G04 #@! TF.FilePolarity,Positive*
G04*
G01*
G75*
%ADD43C,1.5240*%
%ADD55C,0.2500*%
%ADD60C,2.4500*%
%ADD61C,1.5000*%
%ADD62C,2.8000*%
%ADD63C,1.3000*%
%ADD64C,1.0000*%
%ADD65C,1.9050*%
%ADD66O,2.4000X1.2000*%
%ADD67O,1.4600X0.7300*%
%ADD68C,0.6000*%
%ADD69C,0.7000*%
%ADD70O,2.1000X1.0500*%
D43*
X61100Y1290600D02*
D03*
X86500D02*
D03*
X111900D02*
D03*
X61100Y1316000D02*
D03*
X86500D02*
D03*
X111900D02*
D03*
X680208Y215571D02*
D03*
X489771Y124759D02*
D03*
X204250Y120501D02*
D03*
X490001Y311000D02*
D03*
X299500D02*
D03*
X109000D02*
D03*
X680208Y596570D02*
D03*
X490001Y501500D02*
D03*
X299500D02*
D03*
X109000D02*
D03*
X680501Y882500D02*
D03*
X490001Y692000D02*
D03*
X299500D02*
D03*
X109000D02*
D03*
X490001Y882500D02*
D03*
X299500D02*
D03*
X109000D02*
D03*
D55*
X352500Y1316000D02*
X402000Y1266500D01*
X111900Y1316000D02*
X352500D01*
X108764Y1329000D02*
X352000D01*
X408500Y1272500D01*
X86500Y1290600D02*
X95856Y1299956D01*
X98056Y1302156D02*
Y1318292D01*
X95856Y1299956D02*
Y1299957D01*
X98056Y1302156D01*
Y1318292D02*
X108764Y1329000D01*
X358500Y1335500D02*
X414500Y1279500D01*
X86500Y1316000D02*
Y1327500D01*
X94500Y1335500D01*
X358500D01*
X282000Y1014301D02*
X464601Y831700D01*
X282000Y1014301D02*
Y1053500D01*
X383000Y1168500D02*
X414500Y1200000D01*
X369000Y1168500D02*
X383000D01*
X414500Y1200000D02*
Y1279500D01*
X402000Y1218500D02*
Y1266500D01*
X359790Y1190790D02*
X374290D01*
X402000Y1218500D01*
X366000Y1184000D02*
X382500D01*
X408500Y1210000D01*
Y1272500D01*
X359500Y1190500D02*
X359790Y1190790D01*
X258000Y1190641D02*
X267000Y1199641D01*
X262000Y1218500D02*
X267000Y1213500D01*
Y1199641D02*
Y1213500D01*
X258000Y1168000D02*
Y1190641D01*
Y1168000D02*
X383041Y1042959D01*
X245500Y975500D02*
X263000Y993000D01*
Y1067000D01*
X271861Y833939D02*
X274100Y831700D01*
X271861Y833939D02*
Y1056139D01*
X271000Y1057000D02*
X271861Y1056139D01*
X293000Y1058640D02*
Y1061782D01*
X294639Y1063421D01*
Y1069639D02*
X295500Y1070500D01*
X163000Y1242000D02*
X295500Y1109500D01*
Y1070500D02*
Y1109500D01*
X294639Y1063421D02*
Y1069639D01*
X83600Y890658D02*
X168442Y975500D01*
X245500D01*
X217000Y985500D02*
Y1032000D01*
X130000Y1119000D02*
X217000Y1032000D01*
X130000Y1119000D02*
Y1226500D01*
X80000D02*
X95500Y1242000D01*
X163000D01*
X293000Y1058640D02*
X407570Y944070D01*
X464486Y260200D02*
Y450700D01*
Y641200D02*
Y831585D01*
Y74074D02*
Y260200D01*
Y450700D02*
Y641200D01*
X272500Y1220000D02*
X279500Y1213000D01*
Y1153628D02*
X376853Y1056274D01*
X279500Y1153628D02*
Y1213000D01*
X376853Y1056274D02*
X544256D01*
X557571Y1042959D01*
X383041D02*
X532171D01*
X83600Y831700D02*
Y890658D01*
X654955Y164917D02*
Y831554D01*
X542731Y944070D02*
X655101Y831700D01*
X407570Y944070D02*
X542731D01*
X131225Y117326D02*
Y212575D01*
Y117326D02*
X178850Y69701D01*
X83600Y260200D02*
X131225Y212575D01*
X654955Y831554D02*
X655101Y831700D01*
X654808Y164771D02*
X654955Y164917D01*
X464371Y73959D02*
X464486Y74074D01*
Y831585D02*
X464601Y831700D01*
X274100Y641200D02*
Y831700D01*
Y450700D02*
Y641200D01*
Y260200D02*
Y450700D01*
X83600Y641200D02*
Y831700D01*
Y450700D02*
Y641200D01*
Y260200D02*
Y450700D01*
D60*
X718308Y190171D02*
D03*
X654808Y164771D02*
D03*
X527871Y99359D02*
D03*
X464371Y73959D02*
D03*
X242350Y95101D02*
D03*
X178850Y69701D02*
D03*
X528101Y285600D02*
D03*
X464601Y260200D02*
D03*
X337600Y285600D02*
D03*
X274100Y260200D02*
D03*
X147100Y285600D02*
D03*
X83600Y260200D02*
D03*
X718308Y571170D02*
D03*
X654808Y545770D02*
D03*
X528101Y476100D02*
D03*
X464601Y450700D02*
D03*
X337600Y476100D02*
D03*
X274100Y450700D02*
D03*
X147100Y476100D02*
D03*
X83600Y450700D02*
D03*
X718601Y857100D02*
D03*
X655101Y831700D02*
D03*
X528101Y666600D02*
D03*
X464601Y641200D02*
D03*
X337600Y666600D02*
D03*
X274100Y641200D02*
D03*
X147100Y666600D02*
D03*
X83600Y641200D02*
D03*
X528101Y857100D02*
D03*
X464601Y831700D02*
D03*
X337600Y857100D02*
D03*
X274100Y831700D02*
D03*
X147100Y857100D02*
D03*
X83600Y831700D02*
D03*
D61*
X543500Y1319500D02*
D03*
X478500D02*
D03*
X543500Y1274500D02*
D03*
X478500D02*
D03*
D62*
X166000Y1156500D02*
D03*
X44000D02*
D03*
D63*
X105000Y1081500D02*
D03*
X130000D02*
D03*
X80000D02*
D03*
X130000Y1226500D02*
D03*
X80000D02*
D03*
D64*
X750208Y96071D02*
D03*
Y334071D02*
D03*
X597808Y96571D02*
D03*
Y334571D02*
D03*
X323750Y190501D02*
D03*
X85750D02*
D03*
X323250Y38101D02*
D03*
X85250D02*
D03*
X750208Y477070D02*
D03*
Y715070D02*
D03*
X597808Y477570D02*
D03*
Y715570D02*
D03*
D65*
X532171Y1042959D02*
D03*
X633771D02*
D03*
X659171D02*
D03*
X608371D02*
D03*
X582971D02*
D03*
X557571D02*
D03*
D66*
X779500Y1323250D02*
D03*
Y1268750D02*
D03*
D67*
X749200Y1320250D02*
D03*
Y1271750D02*
D03*
D68*
X359500Y1190500D02*
D03*
X366000Y1184000D02*
D03*
X369000Y1168500D02*
D03*
X216000Y1097500D02*
D03*
X731000Y1304500D02*
D03*
D69*
X374000Y1136500D02*
D03*
X374500Y1152500D02*
D03*
X390000Y1114500D02*
D03*
X439500Y1261000D02*
D03*
X301000Y1234000D02*
D03*
X316000Y1233500D02*
D03*
X327500Y1052000D02*
D03*
X310500D02*
D03*
X193000Y1173000D02*
D03*
X262000Y1218500D02*
D03*
X263000Y1067000D02*
D03*
X271000Y1057000D02*
D03*
X282000Y1053500D02*
D03*
X295500Y1070500D02*
D03*
X374500Y1237000D02*
D03*
X650900Y1319740D02*
D03*
X660000Y1247000D02*
D03*
X616000D02*
D03*
X616000Y1233000D02*
D03*
X424000Y1263000D02*
D03*
X630667Y1233000D02*
D03*
X660000D02*
D03*
X645333D02*
D03*
X217000Y985500D02*
D03*
X272500Y1220000D02*
D03*
X250000Y1057000D02*
D03*
X235000Y1057500D02*
D03*
X728500Y1319000D02*
D03*
X115500Y1025290D02*
D03*
X159500Y1055790D02*
D03*
X109000D02*
D03*
X65000Y1025290D02*
D03*
X193500Y1189000D02*
D03*
X200500Y1239500D02*
D03*
D70*
X749200Y1320250D02*
D03*
Y1271750D02*
D03*
M02*
