G04*
G04 #@! TF.GenerationSoftware,Altium Limited,Altium Designer,22.9.1 (49)*
G04*
G04 Layer_Physical_Order=2*
G04 Layer_Color=36540*
%FSLAX44Y44*%
%MOMM*%
G71*
G04*
G04 #@! TF.SameCoordinates,E961C7B3-AF31-4016-A867-0A9A946A4240*
G04*
G04*
G04 #@! TF.FilePolarity,Positive*
G04*
G01*
G75*
%ADD43C,1.5240*%
%ADD61C,1.5000*%
%ADD62C,2.8000*%
%ADD63C,1.3000*%
%ADD65C,1.9050*%
%ADD66O,2.4000X1.2000*%
%ADD67O,1.4600X0.7300*%
%ADD68C,0.6000*%
%ADD69C,0.7000*%
G36*
X776000Y1361947D02*
X776000Y1361947D01*
X776000Y1361947D01*
X777977Y1361947D01*
X779780Y1361886D01*
X781528Y1361678D01*
X783246Y1361330D01*
X784947Y1360847D01*
X786603Y1360239D01*
X788206Y1359494D01*
X789757Y1358641D01*
X791209Y1357667D01*
X792591Y1356581D01*
X793875Y1355381D01*
X795080Y1354077D01*
X796171Y1352692D01*
X797149Y1351232D01*
X798011Y1349688D01*
X798743Y1348085D01*
X799364Y1346429D01*
X799834Y1344729D01*
X800195Y1343010D01*
X800390Y1341262D01*
X800466Y1339449D01*
X800448Y31047D01*
X800373Y29235D01*
X800178Y27486D01*
X799817Y25768D01*
X799347Y24068D01*
X798726Y22412D01*
X797994Y20808D01*
X797132Y19264D01*
X796154Y17804D01*
X795063Y16419D01*
X793858Y15115D01*
X792574Y13916D01*
X791193Y12829D01*
X789740Y11855D01*
X788189Y11002D01*
X786586Y10257D01*
X784930Y9650D01*
X783229Y9167D01*
X781511Y8819D01*
X779763Y8611D01*
X777960Y8549D01*
X38551D01*
X36725Y8626D01*
X34975Y8823D01*
X33256Y9181D01*
X31556Y9653D01*
X29900Y10271D01*
X28298Y11004D01*
X26753Y11868D01*
X25293Y12846D01*
X23912Y13931D01*
X22624Y15134D01*
X21420Y16425D01*
X20332Y17807D01*
X19353Y19268D01*
X18491Y20809D01*
X17760Y22412D01*
X17139Y24069D01*
X16669Y25770D01*
X16308Y27489D01*
X16119Y29183D01*
X16120Y1341307D01*
X16324Y1343012D01*
X16670Y1344730D01*
X17155Y1346432D01*
X17761Y1348089D01*
X18505Y1349689D01*
X19361Y1351239D01*
X20334Y1352694D01*
X21421Y1354076D01*
X22619Y1355361D01*
X23921Y1356564D01*
X25309Y1357654D01*
X26770Y1358633D01*
X28313Y1359497D01*
X29913Y1360229D01*
X31571Y1360847D01*
X33273Y1361319D01*
X34990Y1361677D01*
X36740Y1361875D01*
X38554Y1361951D01*
X776000Y1361947D01*
D02*
G37*
%LPC*%
G36*
X785500Y1331864D02*
X780770D01*
Y1324520D01*
X793947D01*
X793820Y1325479D01*
X792960Y1327557D01*
X791591Y1329341D01*
X789807Y1330710D01*
X787729Y1331570D01*
X785500Y1331864D01*
D02*
G37*
G36*
X778230D02*
X773500D01*
X771271Y1331570D01*
X769193Y1330710D01*
X767409Y1329341D01*
X766040Y1327557D01*
X765180Y1325479D01*
X765053Y1324520D01*
X778230D01*
Y1331864D01*
D02*
G37*
G36*
X752850Y1326561D02*
X750470D01*
Y1321520D01*
X758909D01*
X758681Y1322665D01*
X757313Y1324713D01*
X755265Y1326081D01*
X752850Y1326561D01*
D02*
G37*
G36*
X747930D02*
X745550D01*
X743135Y1326081D01*
X741087Y1324713D01*
X739719Y1322665D01*
X739491Y1321520D01*
X747930D01*
Y1326561D01*
D02*
G37*
G36*
X544822Y1329540D02*
X544770D01*
Y1320770D01*
X553540D01*
Y1320822D01*
X552856Y1323375D01*
X551534Y1325665D01*
X549665Y1327534D01*
X547375Y1328856D01*
X544822Y1329540D01*
D02*
G37*
G36*
X542230D02*
X542178D01*
X539625Y1328856D01*
X537335Y1327534D01*
X535466Y1325665D01*
X534144Y1323375D01*
X533460Y1320822D01*
Y1320770D01*
X542230D01*
Y1329540D01*
D02*
G37*
G36*
X479822D02*
X479770D01*
Y1320770D01*
X488540D01*
Y1320822D01*
X487856Y1323375D01*
X486534Y1325665D01*
X484665Y1327534D01*
X482375Y1328856D01*
X479822Y1329540D01*
D02*
G37*
G36*
X477230D02*
X477178D01*
X474625Y1328856D01*
X472335Y1327534D01*
X470466Y1325665D01*
X469144Y1323375D01*
X468460Y1320822D01*
Y1320770D01*
X477230D01*
Y1329540D01*
D02*
G37*
G36*
X793947Y1321980D02*
X780770D01*
Y1314636D01*
X785500D01*
X787729Y1314930D01*
X789807Y1315790D01*
X791591Y1317159D01*
X792960Y1318943D01*
X793820Y1321021D01*
X793947Y1321980D01*
D02*
G37*
G36*
X778230D02*
X765053D01*
X765180Y1321021D01*
X766040Y1318943D01*
X767409Y1317159D01*
X769193Y1315790D01*
X771271Y1314930D01*
X773500Y1314636D01*
X778230D01*
Y1321980D01*
D02*
G37*
G36*
X758909Y1318980D02*
X750470D01*
Y1313939D01*
X752850D01*
X755265Y1314419D01*
X757313Y1315787D01*
X758681Y1317835D01*
X758909Y1318980D01*
D02*
G37*
G36*
X747930D02*
X739491D01*
X739719Y1317835D01*
X741087Y1315787D01*
X743135Y1314419D01*
X745550Y1313939D01*
X747930D01*
Y1318980D01*
D02*
G37*
G36*
X553540Y1318230D02*
X544770D01*
Y1309460D01*
X544822D01*
X547375Y1310144D01*
X549665Y1311466D01*
X551534Y1313335D01*
X552856Y1315625D01*
X553540Y1318178D01*
Y1318230D01*
D02*
G37*
G36*
X542230D02*
X533460D01*
Y1318178D01*
X534144Y1315625D01*
X535466Y1313335D01*
X537335Y1311466D01*
X539625Y1310144D01*
X542178Y1309460D01*
X542230D01*
Y1318230D01*
D02*
G37*
G36*
X488540D02*
X479770D01*
Y1309460D01*
X479822D01*
X482375Y1310144D01*
X484665Y1311466D01*
X486534Y1313335D01*
X487856Y1315625D01*
X488540Y1318178D01*
Y1318230D01*
D02*
G37*
G36*
X477230D02*
X468460D01*
Y1318178D01*
X469144Y1315625D01*
X470466Y1313335D01*
X472335Y1311466D01*
X474625Y1310144D01*
X477178Y1309460D01*
X477230D01*
Y1318230D01*
D02*
G37*
G36*
X113238Y1326160D02*
X110562D01*
X107978Y1325468D01*
X105662Y1324130D01*
X103770Y1322238D01*
X102432Y1319922D01*
X101740Y1317338D01*
Y1314662D01*
X102432Y1312078D01*
X103770Y1309762D01*
X105662Y1307870D01*
X107978Y1306532D01*
X110562Y1305840D01*
X113238D01*
X115822Y1306532D01*
X118138Y1307870D01*
X120030Y1309762D01*
X121368Y1312078D01*
X122060Y1314662D01*
Y1317338D01*
X121368Y1319922D01*
X120030Y1322238D01*
X118138Y1324130D01*
X115822Y1325468D01*
X113238Y1326160D01*
D02*
G37*
G36*
X87838D02*
X85162D01*
X82578Y1325468D01*
X80262Y1324130D01*
X78370Y1322238D01*
X77032Y1319922D01*
X76340Y1317338D01*
Y1314662D01*
X77032Y1312078D01*
X78370Y1309762D01*
X80262Y1307870D01*
X82578Y1306532D01*
X85162Y1305840D01*
X87838D01*
X90422Y1306532D01*
X92738Y1307870D01*
X94630Y1309762D01*
X95968Y1312078D01*
X96660Y1314662D01*
Y1317338D01*
X95968Y1319922D01*
X94630Y1322238D01*
X92738Y1324130D01*
X90422Y1325468D01*
X87838Y1326160D01*
D02*
G37*
G36*
X62438D02*
X59762D01*
X57178Y1325468D01*
X54862Y1324130D01*
X52970Y1322238D01*
X51632Y1319922D01*
X50940Y1317338D01*
Y1314662D01*
X51632Y1312078D01*
X52970Y1309762D01*
X54862Y1307870D01*
X57178Y1306532D01*
X59762Y1305840D01*
X62438D01*
X65022Y1306532D01*
X67338Y1307870D01*
X69230Y1309762D01*
X70568Y1312078D01*
X71260Y1314662D01*
Y1317338D01*
X70568Y1319922D01*
X69230Y1322238D01*
X67338Y1324130D01*
X65022Y1325468D01*
X62438Y1326160D01*
D02*
G37*
G36*
X113238Y1300760D02*
X113170D01*
Y1291870D01*
X122060D01*
Y1291938D01*
X121368Y1294522D01*
X120030Y1296838D01*
X118138Y1298730D01*
X115822Y1300068D01*
X113238Y1300760D01*
D02*
G37*
G36*
X110630D02*
X110562D01*
X107978Y1300068D01*
X105662Y1298730D01*
X103770Y1296838D01*
X102432Y1294522D01*
X101740Y1291938D01*
Y1291870D01*
X110630D01*
Y1300760D01*
D02*
G37*
G36*
X122060Y1289330D02*
X113170D01*
Y1280440D01*
X113238D01*
X115822Y1281132D01*
X118138Y1282470D01*
X120030Y1284362D01*
X121368Y1286678D01*
X122060Y1289262D01*
Y1289330D01*
D02*
G37*
G36*
X110630D02*
X101740D01*
Y1289262D01*
X102432Y1286678D01*
X103770Y1284362D01*
X105662Y1282470D01*
X107978Y1281132D01*
X110562Y1280440D01*
X110630D01*
Y1289330D01*
D02*
G37*
G36*
X87838Y1300760D02*
X85162D01*
X82578Y1300068D01*
X80262Y1298730D01*
X78370Y1296838D01*
X77032Y1294522D01*
X76340Y1291938D01*
Y1289262D01*
X77032Y1286678D01*
X78370Y1284362D01*
X80262Y1282470D01*
X82578Y1281132D01*
X85162Y1280440D01*
X87838D01*
X90422Y1281132D01*
X92738Y1282470D01*
X94630Y1284362D01*
X95968Y1286678D01*
X96660Y1289262D01*
Y1291938D01*
X95968Y1294522D01*
X94630Y1296838D01*
X92738Y1298730D01*
X90422Y1300068D01*
X87838Y1300760D01*
D02*
G37*
G36*
X62438D02*
X59762D01*
X57178Y1300068D01*
X54862Y1298730D01*
X52970Y1296838D01*
X51632Y1294522D01*
X50940Y1291938D01*
Y1289262D01*
X51632Y1286678D01*
X52970Y1284362D01*
X54862Y1282470D01*
X57178Y1281132D01*
X59762Y1280440D01*
X62438D01*
X65022Y1281132D01*
X67338Y1282470D01*
X69230Y1284362D01*
X70568Y1286678D01*
X71260Y1289262D01*
Y1291938D01*
X70568Y1294522D01*
X69230Y1296838D01*
X67338Y1298730D01*
X65022Y1300068D01*
X62438Y1300760D01*
D02*
G37*
G36*
X752850Y1278061D02*
X750470D01*
Y1273020D01*
X758909D01*
X758681Y1274165D01*
X757313Y1276213D01*
X755265Y1277581D01*
X752850Y1278061D01*
D02*
G37*
G36*
X747930D02*
X745550D01*
X743135Y1277581D01*
X741087Y1276213D01*
X739719Y1274165D01*
X739491Y1273020D01*
X747930D01*
Y1278061D01*
D02*
G37*
G36*
X785500Y1277364D02*
X780770D01*
Y1270020D01*
X793947D01*
X793820Y1270979D01*
X792960Y1273057D01*
X791591Y1274841D01*
X789807Y1276210D01*
X787729Y1277070D01*
X785500Y1277364D01*
D02*
G37*
G36*
X778230D02*
X773500D01*
X771271Y1277070D01*
X769193Y1276210D01*
X767409Y1274841D01*
X766040Y1273057D01*
X765180Y1270979D01*
X765053Y1270020D01*
X778230D01*
Y1277364D01*
D02*
G37*
G36*
X758909Y1270480D02*
X750470D01*
Y1265439D01*
X752850D01*
X755265Y1265919D01*
X757313Y1267287D01*
X758681Y1269335D01*
X758909Y1270480D01*
D02*
G37*
G36*
X747930D02*
X739491D01*
X739719Y1269335D01*
X741087Y1267287D01*
X743135Y1265919D01*
X745550Y1265439D01*
X747930D01*
Y1270480D01*
D02*
G37*
G36*
X544822Y1284540D02*
X542178D01*
X539625Y1283856D01*
X537335Y1282534D01*
X535466Y1280665D01*
X534144Y1278375D01*
X533460Y1275822D01*
Y1273178D01*
X534144Y1270625D01*
X535466Y1268335D01*
X537335Y1266466D01*
X539625Y1265144D01*
X542178Y1264460D01*
X544822D01*
X547375Y1265144D01*
X549665Y1266466D01*
X551534Y1268335D01*
X552856Y1270625D01*
X553540Y1273178D01*
Y1275822D01*
X552856Y1278375D01*
X551534Y1280665D01*
X549665Y1282534D01*
X547375Y1283856D01*
X544822Y1284540D01*
D02*
G37*
G36*
X479822D02*
X477178D01*
X474625Y1283856D01*
X472335Y1282534D01*
X470466Y1280665D01*
X469144Y1278375D01*
X468460Y1275822D01*
Y1273178D01*
X469144Y1270625D01*
X470466Y1268335D01*
X472335Y1266466D01*
X474625Y1265144D01*
X477178Y1264460D01*
X479822D01*
X482375Y1265144D01*
X484665Y1266466D01*
X486534Y1268335D01*
X487856Y1270625D01*
X488540Y1273178D01*
Y1275822D01*
X487856Y1278375D01*
X486534Y1280665D01*
X484665Y1282534D01*
X482375Y1283856D01*
X479822Y1284540D01*
D02*
G37*
G36*
X793947Y1267480D02*
X780770D01*
Y1260136D01*
X785500D01*
X787729Y1260430D01*
X789807Y1261290D01*
X791591Y1262659D01*
X792960Y1264443D01*
X793820Y1266521D01*
X793947Y1267480D01*
D02*
G37*
G36*
X778230D02*
X765053D01*
X765180Y1266521D01*
X766040Y1264443D01*
X767409Y1262659D01*
X769193Y1261290D01*
X771271Y1260430D01*
X773500Y1260136D01*
X778230D01*
Y1267480D01*
D02*
G37*
G36*
X425201Y1269040D02*
X422799D01*
X420579Y1268120D01*
X418880Y1266421D01*
X417960Y1264201D01*
Y1261799D01*
X418880Y1259579D01*
X420579Y1257879D01*
X422799Y1256960D01*
X425201D01*
X427421Y1257879D01*
X429120Y1259579D01*
X430040Y1261799D01*
Y1264201D01*
X429120Y1266421D01*
X427421Y1268120D01*
X425201Y1269040D01*
D02*
G37*
G36*
X661201Y1253040D02*
X658799D01*
X656579Y1252121D01*
X654880Y1250421D01*
X653960Y1248201D01*
Y1245799D01*
X654880Y1243579D01*
X656579Y1241880D01*
X658799Y1240960D01*
X661201D01*
X663421Y1241880D01*
X665120Y1243579D01*
X666040Y1245799D01*
Y1248201D01*
X665120Y1250421D01*
X663421Y1252121D01*
X661201Y1253040D01*
D02*
G37*
G36*
X617201D02*
X614799D01*
X612579Y1252121D01*
X610880Y1250421D01*
X609960Y1248201D01*
Y1245799D01*
X610880Y1243579D01*
X612579Y1241880D01*
X614799Y1240960D01*
X617201D01*
X619421Y1241880D01*
X621120Y1243579D01*
X622040Y1245799D01*
Y1248201D01*
X621120Y1250421D01*
X619421Y1252121D01*
X617201Y1253040D01*
D02*
G37*
G36*
X317201Y1239540D02*
X314799D01*
X312579Y1238621D01*
X310879Y1236921D01*
X309960Y1234701D01*
Y1232299D01*
X310879Y1230079D01*
X312579Y1228380D01*
X314799Y1227460D01*
X317201D01*
X319421Y1228380D01*
X321120Y1230079D01*
X322040Y1232299D01*
Y1234701D01*
X321120Y1236921D01*
X319421Y1238621D01*
X317201Y1239540D01*
D02*
G37*
G36*
X661201Y1239040D02*
X658799D01*
X656579Y1238120D01*
X654880Y1236421D01*
X653960Y1234201D01*
Y1231799D01*
X654880Y1229579D01*
X656579Y1227879D01*
X658799Y1226960D01*
X661201D01*
X663421Y1227879D01*
X665120Y1229579D01*
X666040Y1231799D01*
Y1234201D01*
X665120Y1236421D01*
X663421Y1238120D01*
X661201Y1239040D01*
D02*
G37*
G36*
X646535D02*
X644132D01*
X641912Y1238120D01*
X640213Y1236421D01*
X639293Y1234201D01*
Y1231799D01*
X640213Y1229579D01*
X641912Y1227879D01*
X644132Y1226960D01*
X646535D01*
X648755Y1227879D01*
X650454Y1229579D01*
X651373Y1231799D01*
Y1234201D01*
X650454Y1236421D01*
X648755Y1238120D01*
X646535Y1239040D01*
D02*
G37*
G36*
X631868D02*
X629465D01*
X627245Y1238120D01*
X625546Y1236421D01*
X624627Y1234201D01*
Y1231799D01*
X625546Y1229579D01*
X627245Y1227879D01*
X629465Y1226960D01*
X631868D01*
X634088Y1227879D01*
X635787Y1229579D01*
X636707Y1231799D01*
Y1234201D01*
X635787Y1236421D01*
X634088Y1238120D01*
X631868Y1239040D01*
D02*
G37*
G36*
X617201D02*
X614799D01*
X612579Y1238120D01*
X610880Y1236421D01*
X609960Y1234201D01*
Y1231799D01*
X610880Y1229579D01*
X612579Y1227879D01*
X614799Y1226960D01*
X617201D01*
X619421Y1227879D01*
X621120Y1229579D01*
X622040Y1231799D01*
Y1234201D01*
X621120Y1236421D01*
X619421Y1238120D01*
X617201Y1239040D01*
D02*
G37*
G36*
X273701Y1226040D02*
X271299D01*
X269079Y1225120D01*
X267379Y1223421D01*
X267302Y1223233D01*
X266056Y1222986D01*
X265421Y1223621D01*
X263201Y1224540D01*
X260799D01*
X258579Y1223621D01*
X256880Y1221921D01*
X255960Y1219701D01*
Y1217299D01*
X256880Y1215079D01*
X258579Y1213380D01*
X260799Y1212460D01*
X263201D01*
X265421Y1213380D01*
X267120Y1215079D01*
X267198Y1215266D01*
X268444Y1215514D01*
X269079Y1214880D01*
X271299Y1213960D01*
X273701D01*
X275921Y1214880D01*
X277621Y1216579D01*
X278540Y1218799D01*
Y1221201D01*
X277621Y1223421D01*
X275921Y1225120D01*
X273701Y1226040D01*
D02*
G37*
G36*
X131190Y1235540D02*
X128810D01*
X126511Y1234924D01*
X124449Y1233734D01*
X122766Y1232051D01*
X121576Y1229989D01*
X120960Y1227690D01*
Y1225310D01*
X121576Y1223011D01*
X122766Y1220949D01*
X124449Y1219266D01*
X126511Y1218076D01*
X128810Y1217460D01*
X131190D01*
X133489Y1218076D01*
X135551Y1219266D01*
X137234Y1220949D01*
X138424Y1223011D01*
X139040Y1225310D01*
Y1227690D01*
X138424Y1229989D01*
X137234Y1232051D01*
X135551Y1233734D01*
X133489Y1234924D01*
X131190Y1235540D01*
D02*
G37*
G36*
X81190D02*
X78810D01*
X76511Y1234924D01*
X74449Y1233734D01*
X72766Y1232051D01*
X71576Y1229989D01*
X70960Y1227690D01*
Y1225310D01*
X71576Y1223011D01*
X72766Y1220949D01*
X74449Y1219266D01*
X76511Y1218076D01*
X78810Y1217460D01*
X81190D01*
X83489Y1218076D01*
X85551Y1219266D01*
X87234Y1220949D01*
X88424Y1223011D01*
X89040Y1225310D01*
Y1227690D01*
X88424Y1229989D01*
X87234Y1232051D01*
X85551Y1233734D01*
X83489Y1234924D01*
X81190Y1235540D01*
D02*
G37*
G36*
X360602Y1196040D02*
X358398D01*
X356362Y1195197D01*
X354803Y1193638D01*
X353960Y1191602D01*
Y1189398D01*
X354803Y1187362D01*
X356362Y1185803D01*
X358398Y1184960D01*
X360460D01*
Y1182898D01*
X361303Y1180862D01*
X362862Y1179303D01*
X364898Y1178460D01*
X367102D01*
X369138Y1179303D01*
X370697Y1180862D01*
X371540Y1182898D01*
Y1185102D01*
X370697Y1187138D01*
X369138Y1188697D01*
X367102Y1189540D01*
X365040D01*
Y1191602D01*
X364197Y1193638D01*
X362638Y1195197D01*
X360602Y1196040D01*
D02*
G37*
G36*
X194201Y1179040D02*
X191799D01*
X189579Y1178120D01*
X187880Y1176421D01*
X186960Y1174201D01*
Y1171799D01*
X187880Y1169579D01*
X189579Y1167879D01*
X191799Y1166960D01*
X194201D01*
X196421Y1167879D01*
X198120Y1169579D01*
X199040Y1171799D01*
Y1174201D01*
X198120Y1176421D01*
X196421Y1178120D01*
X194201Y1179040D01*
D02*
G37*
G36*
X370102Y1174040D02*
X367898D01*
X365862Y1173197D01*
X364303Y1171638D01*
X363460Y1169602D01*
Y1167398D01*
X364303Y1165362D01*
X365862Y1163803D01*
X367898Y1162960D01*
X370102D01*
X372138Y1163803D01*
X373697Y1165362D01*
X374540Y1167398D01*
Y1169602D01*
X373697Y1171638D01*
X372138Y1173197D01*
X370102Y1174040D01*
D02*
G37*
G36*
X167629Y1173040D02*
X167270D01*
Y1157770D01*
X182540D01*
Y1158129D01*
X181904Y1161325D01*
X180658Y1164335D01*
X178847Y1167044D01*
X176544Y1169347D01*
X173835Y1171158D01*
X170825Y1172404D01*
X167629Y1173040D01*
D02*
G37*
G36*
X45629D02*
X45270D01*
Y1157770D01*
X60540D01*
Y1158129D01*
X59904Y1161325D01*
X58657Y1164335D01*
X56847Y1167044D01*
X54544Y1169347D01*
X51835Y1171158D01*
X48825Y1172404D01*
X45629Y1173040D01*
D02*
G37*
G36*
X42730D02*
X42371D01*
X39175Y1172404D01*
X36165Y1171158D01*
X33456Y1169347D01*
X31153Y1167044D01*
X29342Y1164335D01*
X28096Y1161325D01*
X27460Y1158129D01*
Y1157770D01*
X42730D01*
Y1173040D01*
D02*
G37*
G36*
X164730D02*
X164371D01*
X161175Y1172404D01*
X158165Y1171158D01*
X155456Y1169347D01*
X153153Y1167044D01*
X151342Y1164335D01*
X150096Y1161325D01*
X149460Y1158129D01*
Y1157770D01*
X164730D01*
Y1173040D01*
D02*
G37*
G36*
X375701Y1158540D02*
X373299D01*
X371079Y1157620D01*
X369380Y1155921D01*
X368460Y1153701D01*
Y1151299D01*
X369380Y1149079D01*
X371079Y1147380D01*
X373299Y1146460D01*
X375701D01*
X377921Y1147380D01*
X379620Y1149079D01*
X380540Y1151299D01*
Y1153701D01*
X379620Y1155921D01*
X377921Y1157620D01*
X375701Y1158540D01*
D02*
G37*
G36*
X182540Y1155230D02*
X167270D01*
Y1139960D01*
X167629D01*
X170825Y1140596D01*
X173835Y1141842D01*
X176544Y1143653D01*
X178847Y1145956D01*
X180658Y1148665D01*
X181904Y1151675D01*
X182540Y1154871D01*
Y1155230D01*
D02*
G37*
G36*
X164730D02*
X149460D01*
Y1154871D01*
X150096Y1151675D01*
X151342Y1148665D01*
X153153Y1145956D01*
X155456Y1143653D01*
X158165Y1141842D01*
X161175Y1140596D01*
X164371Y1139960D01*
X164730D01*
Y1155230D01*
D02*
G37*
G36*
X60540D02*
X45270D01*
Y1139960D01*
X45629D01*
X48825Y1140596D01*
X51835Y1141842D01*
X54544Y1143653D01*
X56847Y1145956D01*
X58657Y1148665D01*
X59904Y1151675D01*
X60540Y1154871D01*
Y1155230D01*
D02*
G37*
G36*
X42730D02*
X27460D01*
Y1154871D01*
X28096Y1151675D01*
X29342Y1148665D01*
X31153Y1145956D01*
X33456Y1143653D01*
X36165Y1141842D01*
X39175Y1140596D01*
X42371Y1139960D01*
X42730D01*
Y1155230D01*
D02*
G37*
G36*
X106270Y1090519D02*
Y1082770D01*
X114019D01*
X113424Y1084989D01*
X112234Y1087051D01*
X110551Y1088734D01*
X108489Y1089924D01*
X106270Y1090519D01*
D02*
G37*
G36*
X103730D02*
X101511Y1089924D01*
X99449Y1088734D01*
X97766Y1087051D01*
X96576Y1084989D01*
X95981Y1082770D01*
X103730D01*
Y1090519D01*
D02*
G37*
G36*
X114019Y1080230D02*
X106270D01*
Y1072481D01*
X108489Y1073076D01*
X110551Y1074266D01*
X112234Y1075949D01*
X113424Y1078011D01*
X114019Y1080230D01*
D02*
G37*
G36*
X103730D02*
X95981D01*
X96576Y1078011D01*
X97766Y1075949D01*
X99449Y1074266D01*
X101511Y1073076D01*
X103730Y1072481D01*
Y1080230D01*
D02*
G37*
G36*
X131190Y1090540D02*
X128810D01*
X126511Y1089924D01*
X124449Y1088734D01*
X122766Y1087051D01*
X121576Y1084989D01*
X120960Y1082690D01*
Y1080310D01*
X121576Y1078011D01*
X122766Y1075949D01*
X124449Y1074266D01*
X126511Y1073076D01*
X128810Y1072460D01*
X131190D01*
X133489Y1073076D01*
X135551Y1074266D01*
X137234Y1075949D01*
X138424Y1078011D01*
X139040Y1080310D01*
Y1082690D01*
X138424Y1084989D01*
X137234Y1087051D01*
X135551Y1088734D01*
X133489Y1089924D01*
X131190Y1090540D01*
D02*
G37*
G36*
X81190D02*
X78810D01*
X76511Y1089924D01*
X74449Y1088734D01*
X72766Y1087051D01*
X71576Y1084989D01*
X70960Y1082690D01*
Y1080310D01*
X71576Y1078011D01*
X72766Y1075949D01*
X74449Y1074266D01*
X76511Y1073076D01*
X78810Y1072460D01*
X81190D01*
X83489Y1073076D01*
X85551Y1074266D01*
X87234Y1075949D01*
X88424Y1078011D01*
X89040Y1080310D01*
Y1082690D01*
X88424Y1084989D01*
X87234Y1087051D01*
X85551Y1088734D01*
X83489Y1089924D01*
X81190Y1090540D01*
D02*
G37*
G36*
X296701Y1076540D02*
X294299D01*
X292079Y1075620D01*
X290380Y1073921D01*
X289460Y1071701D01*
Y1069299D01*
X290380Y1067079D01*
X292079Y1065379D01*
X294299Y1064460D01*
X296701D01*
X298921Y1065379D01*
X300620Y1067079D01*
X301540Y1069299D01*
Y1071701D01*
X300620Y1073921D01*
X298921Y1075620D01*
X296701Y1076540D01*
D02*
G37*
G36*
X236201Y1063540D02*
X233799D01*
X231579Y1062620D01*
X229880Y1060921D01*
X228960Y1058701D01*
Y1056299D01*
X229880Y1054079D01*
X231579Y1052380D01*
X233799Y1051460D01*
X236201D01*
X238421Y1052380D01*
X240121Y1054079D01*
X241040Y1056299D01*
Y1058701D01*
X240121Y1060921D01*
X238421Y1062620D01*
X236201Y1063540D01*
D02*
G37*
G36*
X264201Y1073040D02*
X261799D01*
X259579Y1072121D01*
X257880Y1070421D01*
X256960Y1068201D01*
Y1065799D01*
X257880Y1063579D01*
X259579Y1061880D01*
X261799Y1060960D01*
X264201D01*
X264963Y1061276D01*
X265494Y1060781D01*
X265809Y1060251D01*
X264960Y1058201D01*
Y1055799D01*
X265879Y1053579D01*
X267579Y1051880D01*
X269799Y1050960D01*
X272201D01*
X274421Y1051880D01*
X274787Y1052245D01*
X276158Y1051820D01*
X276880Y1050079D01*
X278579Y1048380D01*
X280799Y1047460D01*
X283201D01*
X285421Y1048380D01*
X287120Y1050079D01*
X288040Y1052299D01*
Y1054701D01*
X287120Y1056921D01*
X285421Y1058621D01*
X283201Y1059540D01*
X280799D01*
X278579Y1058621D01*
X278213Y1058255D01*
X276842Y1058680D01*
X276120Y1060421D01*
X274421Y1062121D01*
X272201Y1063040D01*
X269799D01*
X269037Y1062724D01*
X268506Y1063219D01*
X268191Y1063749D01*
X269040Y1065799D01*
Y1068201D01*
X268120Y1070421D01*
X266421Y1072121D01*
X264201Y1073040D01*
D02*
G37*
G36*
X328701Y1058040D02*
X326299D01*
X324079Y1057121D01*
X322379Y1055421D01*
X321460Y1053201D01*
Y1050799D01*
X322379Y1048579D01*
X324079Y1046880D01*
X326299Y1045960D01*
X328701D01*
X330921Y1046880D01*
X332621Y1048579D01*
X333540Y1050799D01*
Y1053201D01*
X332621Y1055421D01*
X330921Y1057121D01*
X328701Y1058040D01*
D02*
G37*
G36*
X609960Y1055024D02*
X609641D01*
Y1044229D01*
X620436D01*
Y1044548D01*
X619614Y1047616D01*
X618026Y1050367D01*
X615779Y1052614D01*
X613028Y1054202D01*
X609960Y1055024D01*
D02*
G37*
G36*
X607101D02*
X606783D01*
X603714Y1054202D01*
X600963Y1052614D01*
X598717Y1050367D01*
X597128Y1047616D01*
X596306Y1044548D01*
Y1044229D01*
X607101D01*
Y1055024D01*
D02*
G37*
G36*
X660760D02*
X657583D01*
X654514Y1054202D01*
X651763Y1052614D01*
X649517Y1050367D01*
X647928Y1047616D01*
X647106Y1044548D01*
Y1041371D01*
X647928Y1038302D01*
X649517Y1035551D01*
X651763Y1033305D01*
X654514Y1031716D01*
X657583Y1030894D01*
X660760D01*
X663828Y1031716D01*
X666579Y1033305D01*
X668826Y1035551D01*
X670414Y1038302D01*
X671236Y1041371D01*
Y1044548D01*
X670414Y1047616D01*
X668826Y1050367D01*
X666579Y1052614D01*
X663828Y1054202D01*
X660760Y1055024D01*
D02*
G37*
G36*
X635360D02*
X632183D01*
X629114Y1054202D01*
X626363Y1052614D01*
X624117Y1050367D01*
X622528Y1047616D01*
X621706Y1044548D01*
Y1041371D01*
X622528Y1038302D01*
X624117Y1035551D01*
X626363Y1033305D01*
X629114Y1031716D01*
X632183Y1030894D01*
X635360D01*
X638428Y1031716D01*
X641179Y1033305D01*
X643426Y1035551D01*
X645014Y1038302D01*
X645836Y1041371D01*
Y1044548D01*
X645014Y1047616D01*
X643426Y1050367D01*
X641179Y1052614D01*
X638428Y1054202D01*
X635360Y1055024D01*
D02*
G37*
G36*
X620436Y1041689D02*
X609641D01*
Y1030894D01*
X609960D01*
X613028Y1031716D01*
X615779Y1033305D01*
X618026Y1035551D01*
X619614Y1038302D01*
X620436Y1041371D01*
Y1041689D01*
D02*
G37*
G36*
X607101D02*
X596306D01*
Y1041371D01*
X597128Y1038302D01*
X598717Y1035551D01*
X600963Y1033305D01*
X603714Y1031716D01*
X606783Y1030894D01*
X607101D01*
Y1041689D01*
D02*
G37*
G36*
X584560Y1055024D02*
X581383D01*
X578314Y1054202D01*
X575563Y1052614D01*
X573317Y1050367D01*
X571729Y1047616D01*
X570906Y1044548D01*
Y1041371D01*
X571729Y1038302D01*
X573317Y1035551D01*
X575563Y1033305D01*
X578314Y1031716D01*
X581383Y1030894D01*
X584560D01*
X587628Y1031716D01*
X590379Y1033305D01*
X592626Y1035551D01*
X594214Y1038302D01*
X595036Y1041371D01*
Y1044548D01*
X594214Y1047616D01*
X592626Y1050367D01*
X590379Y1052614D01*
X587628Y1054202D01*
X584560Y1055024D01*
D02*
G37*
G36*
X559160D02*
X555983D01*
X552914Y1054202D01*
X550163Y1052614D01*
X547917Y1050367D01*
X546329Y1047616D01*
X545506Y1044548D01*
Y1041371D01*
X546329Y1038302D01*
X547917Y1035551D01*
X550163Y1033305D01*
X552914Y1031716D01*
X555983Y1030894D01*
X559160D01*
X562228Y1031716D01*
X564979Y1033305D01*
X567226Y1035551D01*
X568814Y1038302D01*
X569636Y1041371D01*
Y1044548D01*
X568814Y1047616D01*
X567226Y1050367D01*
X564979Y1052614D01*
X562228Y1054202D01*
X559160Y1055024D01*
D02*
G37*
G36*
X533760D02*
X530583D01*
X527514Y1054202D01*
X524763Y1052614D01*
X522517Y1050367D01*
X520928Y1047616D01*
X520106Y1044548D01*
Y1041371D01*
X520928Y1038302D01*
X522517Y1035551D01*
X524763Y1033305D01*
X527514Y1031716D01*
X530583Y1030894D01*
X533760D01*
X536828Y1031716D01*
X539579Y1033305D01*
X541826Y1035551D01*
X543414Y1038302D01*
X544236Y1041371D01*
Y1044548D01*
X543414Y1047616D01*
X541826Y1050367D01*
X539579Y1052614D01*
X536828Y1054202D01*
X533760Y1055024D01*
D02*
G37*
G36*
X116701Y1031330D02*
X114299D01*
X112079Y1030411D01*
X110380Y1028712D01*
X109460Y1026492D01*
Y1024089D01*
X110380Y1021869D01*
X112079Y1020170D01*
X114299Y1019250D01*
X116701D01*
X118921Y1020170D01*
X120620Y1021869D01*
X121540Y1024089D01*
Y1026492D01*
X120620Y1028712D01*
X118921Y1030411D01*
X116701Y1031330D01*
D02*
G37*
G36*
X66201D02*
X63799D01*
X61579Y1030411D01*
X59880Y1028712D01*
X58960Y1026492D01*
Y1024089D01*
X59880Y1021869D01*
X61579Y1020170D01*
X63799Y1019250D01*
X66201D01*
X68421Y1020170D01*
X70121Y1021869D01*
X71040Y1024089D01*
Y1026492D01*
X70121Y1028712D01*
X68421Y1030411D01*
X66201Y1031330D01*
D02*
G37*
G36*
X218201Y991540D02*
X215799D01*
X213579Y990620D01*
X211880Y988921D01*
X210960Y986701D01*
Y984299D01*
X211880Y982079D01*
X213579Y980379D01*
X215799Y979460D01*
X218201D01*
X220421Y980379D01*
X222120Y982079D01*
X223040Y984299D01*
Y986701D01*
X222120Y988921D01*
X220421Y990620D01*
X218201Y991540D01*
D02*
G37*
G36*
X732755Y893549D02*
X729846D01*
X727036Y892796D01*
X724516Y891341D01*
X722459Y889284D01*
X721005Y886765D01*
X720252Y883955D01*
Y881045D01*
X721005Y878235D01*
X722459Y875716D01*
X724516Y873659D01*
X727036Y872204D01*
X729846Y871451D01*
X732755D01*
X735565Y872204D01*
X738085Y873659D01*
X740142Y875716D01*
X741597Y878235D01*
X742350Y881045D01*
Y883955D01*
X741597Y886765D01*
X740142Y889284D01*
X738085Y891341D01*
X735565Y892796D01*
X732755Y893549D01*
D02*
G37*
G36*
X631155D02*
X628246D01*
X625436Y892796D01*
X622916Y891341D01*
X620859Y889284D01*
X619405Y886765D01*
X618652Y883955D01*
Y881045D01*
X619405Y878235D01*
X620859Y875716D01*
X622916Y873659D01*
X625436Y872204D01*
X628246Y871451D01*
X631155D01*
X633965Y872204D01*
X636485Y873659D01*
X638542Y875716D01*
X639997Y878235D01*
X640750Y881045D01*
Y883955D01*
X639997Y886765D01*
X638542Y889284D01*
X636485Y891341D01*
X633965Y892796D01*
X631155Y893549D01*
D02*
G37*
G36*
X542255D02*
X539346D01*
X536536Y892796D01*
X534016Y891341D01*
X531959Y889284D01*
X530505Y886765D01*
X529752Y883955D01*
Y881045D01*
X530505Y878235D01*
X531959Y875716D01*
X534016Y873659D01*
X536536Y872204D01*
X539346Y871451D01*
X542255D01*
X545065Y872204D01*
X547585Y873659D01*
X549642Y875716D01*
X551097Y878235D01*
X551850Y881045D01*
Y883955D01*
X551097Y886765D01*
X549642Y889284D01*
X547585Y891341D01*
X545065Y892796D01*
X542255Y893549D01*
D02*
G37*
G36*
X440655D02*
X437746D01*
X434936Y892796D01*
X432416Y891341D01*
X430359Y889284D01*
X428905Y886765D01*
X428152Y883955D01*
Y881045D01*
X428905Y878235D01*
X430359Y875716D01*
X432416Y873659D01*
X434936Y872204D01*
X437746Y871451D01*
X440655D01*
X443465Y872204D01*
X445985Y873659D01*
X448042Y875716D01*
X449497Y878235D01*
X450250Y881045D01*
Y883955D01*
X449497Y886765D01*
X448042Y889284D01*
X445985Y891341D01*
X443465Y892796D01*
X440655Y893549D01*
D02*
G37*
G36*
X351754D02*
X348845D01*
X346035Y892796D01*
X343515Y891341D01*
X341458Y889284D01*
X340004Y886765D01*
X339251Y883955D01*
Y881045D01*
X340004Y878235D01*
X341458Y875716D01*
X343515Y873659D01*
X346035Y872204D01*
X348845Y871451D01*
X351754D01*
X354565Y872204D01*
X357084Y873659D01*
X359141Y875716D01*
X360596Y878235D01*
X361349Y881045D01*
Y883955D01*
X360596Y886765D01*
X359141Y889284D01*
X357084Y891341D01*
X354565Y892796D01*
X351754Y893549D01*
D02*
G37*
G36*
X250154D02*
X247245D01*
X244435Y892796D01*
X241915Y891341D01*
X239858Y889284D01*
X238404Y886765D01*
X237651Y883955D01*
Y881045D01*
X238404Y878235D01*
X239858Y875716D01*
X241915Y873659D01*
X244435Y872204D01*
X247245Y871451D01*
X250154D01*
X252964Y872204D01*
X255484Y873659D01*
X257541Y875716D01*
X258996Y878235D01*
X259749Y881045D01*
Y883955D01*
X258996Y886765D01*
X257541Y889284D01*
X255484Y891341D01*
X252964Y892796D01*
X250154Y893549D01*
D02*
G37*
G36*
X161255D02*
X158345D01*
X155535Y892796D01*
X153016Y891341D01*
X150959Y889284D01*
X149504Y886765D01*
X148751Y883955D01*
Y881045D01*
X149504Y878235D01*
X150959Y875716D01*
X153016Y873659D01*
X155535Y872204D01*
X158345Y871451D01*
X161255D01*
X164065Y872204D01*
X166584Y873659D01*
X168641Y875716D01*
X170096Y878235D01*
X170849Y881045D01*
Y883955D01*
X170096Y886765D01*
X168641Y889284D01*
X166584Y891341D01*
X164065Y892796D01*
X161255Y893549D01*
D02*
G37*
G36*
X59655D02*
X56745D01*
X53935Y892796D01*
X51416Y891341D01*
X49359Y889284D01*
X47904Y886765D01*
X47151Y883955D01*
Y881045D01*
X47904Y878235D01*
X49359Y875716D01*
X51416Y873659D01*
X53935Y872204D01*
X56745Y871451D01*
X59655D01*
X62465Y872204D01*
X64984Y873659D01*
X67041Y875716D01*
X68496Y878235D01*
X69249Y881045D01*
Y883955D01*
X68496Y886765D01*
X67041Y889284D01*
X64984Y891341D01*
X62465Y892796D01*
X59655Y893549D01*
D02*
G37*
G36*
X682715Y904979D02*
X678287D01*
X673944Y904115D01*
X669853Y902421D01*
X666171Y899961D01*
X663040Y896830D01*
X660580Y893148D01*
X658886Y889057D01*
X658022Y884714D01*
Y880286D01*
X658886Y875943D01*
X660580Y871852D01*
X663040Y868170D01*
X666171Y865039D01*
X669853Y862579D01*
X673944Y860885D01*
X678287Y860021D01*
X682715D01*
X687058Y860885D01*
X691149Y862579D01*
X694830Y865039D01*
X697961Y868170D01*
X700421Y871852D01*
X702116Y875943D01*
X702980Y880286D01*
Y884714D01*
X702116Y889057D01*
X700421Y893148D01*
X697961Y896830D01*
X694830Y899961D01*
X691149Y902421D01*
X687058Y904115D01*
X682715Y904979D01*
D02*
G37*
G36*
X492215D02*
X487787D01*
X483444Y904115D01*
X479353Y902421D01*
X475671Y899961D01*
X472540Y896830D01*
X470080Y893148D01*
X468386Y889057D01*
X467522Y884714D01*
Y880286D01*
X468386Y875943D01*
X470080Y871852D01*
X472540Y868170D01*
X475671Y865039D01*
X479353Y862579D01*
X483444Y860885D01*
X487787Y860021D01*
X492215D01*
X496558Y860885D01*
X500648Y862579D01*
X504330Y865039D01*
X507461Y868170D01*
X509921Y871852D01*
X511616Y875943D01*
X512480Y880286D01*
Y884714D01*
X511616Y889057D01*
X509921Y893148D01*
X507461Y896830D01*
X504330Y899961D01*
X500648Y902421D01*
X496558Y904115D01*
X492215Y904979D01*
D02*
G37*
G36*
X301714D02*
X297286D01*
X292943Y904115D01*
X288852Y902421D01*
X285170Y899961D01*
X282039Y896830D01*
X279579Y893148D01*
X277885Y889057D01*
X277021Y884714D01*
Y880286D01*
X277885Y875943D01*
X279579Y871852D01*
X282039Y868170D01*
X285170Y865039D01*
X288852Y862579D01*
X292943Y860885D01*
X297286Y860021D01*
X301714D01*
X306057Y860885D01*
X310147Y862579D01*
X313829Y865039D01*
X316960Y868170D01*
X319420Y871852D01*
X321115Y875943D01*
X321979Y880286D01*
Y884714D01*
X321115Y889057D01*
X319420Y893148D01*
X316960Y896830D01*
X313829Y899961D01*
X310147Y902421D01*
X306057Y904115D01*
X301714Y904979D01*
D02*
G37*
G36*
X111214D02*
X106786D01*
X102443Y904115D01*
X98352Y902421D01*
X94670Y899961D01*
X91539Y896830D01*
X89079Y893148D01*
X87385Y889057D01*
X86521Y884714D01*
Y880286D01*
X87385Y875943D01*
X89079Y871852D01*
X91539Y868170D01*
X94670Y865039D01*
X98352Y862579D01*
X102443Y860885D01*
X106786Y860021D01*
X111214D01*
X115557Y860885D01*
X119648Y862579D01*
X123329Y865039D01*
X126461Y868170D01*
X128921Y871852D01*
X130615Y875943D01*
X131479Y880286D01*
Y884714D01*
X130615Y889057D01*
X128921Y893148D01*
X126461Y896830D01*
X123329Y899961D01*
X119648Y902421D01*
X115557Y904115D01*
X111214Y904979D01*
D02*
G37*
G36*
X720057Y871890D02*
X717144D01*
X714287Y871322D01*
X711595Y870207D01*
X709173Y868588D01*
X707113Y866528D01*
X705494Y864106D01*
X704379Y861414D01*
X703811Y858557D01*
Y855643D01*
X704379Y852786D01*
X705494Y850094D01*
X707113Y847672D01*
X709173Y845612D01*
X711595Y843993D01*
X714287Y842878D01*
X717144Y842310D01*
X720057D01*
X722915Y842878D01*
X725606Y843993D01*
X728029Y845612D01*
X730089Y847672D01*
X731707Y850094D01*
X732822Y852786D01*
X733391Y855643D01*
Y858557D01*
X732822Y861414D01*
X731707Y864106D01*
X730089Y866528D01*
X728029Y868588D01*
X725606Y870207D01*
X722915Y871322D01*
X720057Y871890D01*
D02*
G37*
G36*
X529557D02*
X526644D01*
X523787Y871322D01*
X521095Y870207D01*
X518673Y868588D01*
X516613Y866528D01*
X514994Y864106D01*
X513879Y861414D01*
X513311Y858557D01*
Y855643D01*
X513879Y852786D01*
X514994Y850094D01*
X516613Y847672D01*
X518673Y845612D01*
X521095Y843993D01*
X523787Y842878D01*
X526644Y842310D01*
X529557D01*
X532415Y842878D01*
X535106Y843993D01*
X537529Y845612D01*
X539589Y847672D01*
X541207Y850094D01*
X542322Y852786D01*
X542891Y855643D01*
Y858557D01*
X542322Y861414D01*
X541207Y864106D01*
X539589Y866528D01*
X537529Y868588D01*
X535106Y870207D01*
X532415Y871322D01*
X529557Y871890D01*
D02*
G37*
G36*
X339056D02*
X336143D01*
X333286Y871322D01*
X330594Y870207D01*
X328172Y868588D01*
X326112Y866528D01*
X324493Y864106D01*
X323378Y861414D01*
X322810Y858557D01*
Y855643D01*
X323378Y852786D01*
X324493Y850094D01*
X326112Y847672D01*
X328172Y845612D01*
X330594Y843993D01*
X333286Y842878D01*
X336143Y842310D01*
X339056D01*
X341914Y842878D01*
X344605Y843993D01*
X347028Y845612D01*
X349088Y847672D01*
X350706Y850094D01*
X351821Y852786D01*
X352390Y855643D01*
Y858557D01*
X351821Y861414D01*
X350706Y864106D01*
X349088Y866528D01*
X347028Y868588D01*
X344605Y870207D01*
X341914Y871322D01*
X339056Y871890D01*
D02*
G37*
G36*
X148557D02*
X145643D01*
X142786Y871322D01*
X140094Y870207D01*
X137672Y868588D01*
X135612Y866528D01*
X133993Y864106D01*
X132878Y861414D01*
X132310Y858557D01*
Y855643D01*
X132878Y852786D01*
X133993Y850094D01*
X135612Y847672D01*
X137672Y845612D01*
X140094Y843993D01*
X142786Y842878D01*
X145643Y842310D01*
X148557D01*
X151414Y842878D01*
X154106Y843993D01*
X156528Y845612D01*
X158588Y847672D01*
X160207Y850094D01*
X161322Y852786D01*
X161890Y855643D01*
Y858557D01*
X161322Y861414D01*
X160207Y864106D01*
X158588Y866528D01*
X156528Y868588D01*
X154106Y870207D01*
X151414Y871322D01*
X148557Y871890D01*
D02*
G37*
G36*
X656557Y846490D02*
X653644D01*
X650787Y845922D01*
X648095Y844807D01*
X645673Y843188D01*
X643613Y841128D01*
X641994Y838706D01*
X640879Y836014D01*
X640311Y833157D01*
Y830243D01*
X640879Y827386D01*
X641994Y824694D01*
X643613Y822272D01*
X645673Y820212D01*
X648095Y818593D01*
X650787Y817478D01*
X653644Y816910D01*
X656557D01*
X659415Y817478D01*
X662106Y818593D01*
X664529Y820212D01*
X666589Y822272D01*
X668207Y824694D01*
X669322Y827386D01*
X669891Y830243D01*
Y833157D01*
X669322Y836014D01*
X668207Y838706D01*
X666589Y841128D01*
X664529Y843188D01*
X662106Y844807D01*
X659415Y845922D01*
X656557Y846490D01*
D02*
G37*
G36*
X466057D02*
X463144D01*
X460287Y845922D01*
X457595Y844807D01*
X455173Y843188D01*
X453113Y841128D01*
X451494Y838706D01*
X450379Y836014D01*
X449811Y833157D01*
Y830243D01*
X450379Y827386D01*
X451494Y824694D01*
X453113Y822272D01*
X455173Y820212D01*
X457595Y818593D01*
X460287Y817478D01*
X463144Y816910D01*
X466057D01*
X468915Y817478D01*
X471606Y818593D01*
X474029Y820212D01*
X476089Y822272D01*
X477707Y824694D01*
X478822Y827386D01*
X479391Y830243D01*
Y833157D01*
X478822Y836014D01*
X477707Y838706D01*
X476089Y841128D01*
X474029Y843188D01*
X471606Y844807D01*
X468915Y845922D01*
X466057Y846490D01*
D02*
G37*
G36*
X275556D02*
X272643D01*
X269786Y845922D01*
X267094Y844807D01*
X264672Y843188D01*
X262612Y841128D01*
X260993Y838706D01*
X259878Y836014D01*
X259310Y833157D01*
Y830243D01*
X259878Y827386D01*
X260993Y824694D01*
X262612Y822272D01*
X264672Y820212D01*
X267094Y818593D01*
X269786Y817478D01*
X272643Y816910D01*
X275556D01*
X278414Y817478D01*
X281105Y818593D01*
X283528Y820212D01*
X285588Y822272D01*
X287206Y824694D01*
X288321Y827386D01*
X288890Y830243D01*
Y833157D01*
X288321Y836014D01*
X287206Y838706D01*
X285588Y841128D01*
X283528Y843188D01*
X281105Y844807D01*
X278414Y845922D01*
X275556Y846490D01*
D02*
G37*
G36*
X85057D02*
X82143D01*
X79286Y845922D01*
X76594Y844807D01*
X74172Y843188D01*
X72112Y841128D01*
X70493Y838706D01*
X69378Y836014D01*
X68810Y833157D01*
Y830243D01*
X69378Y827386D01*
X70493Y824694D01*
X72112Y822272D01*
X74172Y820212D01*
X76594Y818593D01*
X79286Y817478D01*
X82143Y816910D01*
X85057D01*
X87914Y817478D01*
X90606Y818593D01*
X93028Y820212D01*
X95088Y822272D01*
X96707Y824694D01*
X97822Y827386D01*
X98390Y830243D01*
Y833157D01*
X97822Y836014D01*
X96707Y838706D01*
X95088Y841128D01*
X93028Y843188D01*
X90606Y844807D01*
X87914Y845922D01*
X85057Y846490D01*
D02*
G37*
G36*
X751961Y732860D02*
X748456D01*
X745019Y732176D01*
X741782Y730835D01*
X738868Y728888D01*
X736390Y726410D01*
X734443Y723497D01*
X733102Y720259D01*
X732418Y716822D01*
Y713318D01*
X733102Y709881D01*
X734443Y706643D01*
X736390Y703729D01*
X738868Y701252D01*
X741782Y699305D01*
X745019Y697964D01*
X748456Y697280D01*
X751961D01*
X755397Y697964D01*
X758635Y699305D01*
X761549Y701252D01*
X764027Y703729D01*
X765974Y706643D01*
X767315Y709881D01*
X767998Y713318D01*
Y716822D01*
X767315Y720259D01*
X765974Y723497D01*
X764027Y726410D01*
X761549Y728888D01*
X758635Y730835D01*
X755397Y732176D01*
X751961Y732860D01*
D02*
G37*
G36*
X600028Y738110D02*
X595588D01*
X591234Y737244D01*
X587132Y735545D01*
X583440Y733078D01*
X580300Y729938D01*
X577834Y726247D01*
X576135Y722145D01*
X575268Y717790D01*
Y713350D01*
X576135Y708995D01*
X577834Y704893D01*
X580300Y701202D01*
X583440Y698062D01*
X587132Y695595D01*
X591234Y693896D01*
X595588Y693030D01*
X600028D01*
X604383Y693896D01*
X608485Y695595D01*
X612177Y698062D01*
X615316Y701202D01*
X617783Y704893D01*
X619482Y708995D01*
X620348Y713350D01*
Y717790D01*
X619482Y722145D01*
X617783Y726247D01*
X615316Y729938D01*
X612177Y733078D01*
X608485Y735545D01*
X604383Y737244D01*
X600028Y738110D01*
D02*
G37*
G36*
X542255Y703049D02*
X539346D01*
X536536Y702296D01*
X534016Y700841D01*
X531959Y698784D01*
X530505Y696265D01*
X529752Y693455D01*
Y690545D01*
X530505Y687735D01*
X531959Y685216D01*
X534016Y683159D01*
X536536Y681704D01*
X539346Y680951D01*
X542255D01*
X545065Y681704D01*
X547585Y683159D01*
X549642Y685216D01*
X551097Y687735D01*
X551850Y690545D01*
Y693455D01*
X551097Y696265D01*
X549642Y698784D01*
X547585Y700841D01*
X545065Y702296D01*
X542255Y703049D01*
D02*
G37*
G36*
X440655D02*
X437746D01*
X434936Y702296D01*
X432416Y700841D01*
X430359Y698784D01*
X428905Y696265D01*
X428152Y693455D01*
Y690545D01*
X428905Y687735D01*
X430359Y685216D01*
X432416Y683159D01*
X434936Y681704D01*
X437746Y680951D01*
X440655D01*
X443465Y681704D01*
X445985Y683159D01*
X448042Y685216D01*
X449497Y687735D01*
X450250Y690545D01*
Y693455D01*
X449497Y696265D01*
X448042Y698784D01*
X445985Y700841D01*
X443465Y702296D01*
X440655Y703049D01*
D02*
G37*
G36*
X351754D02*
X348845D01*
X346035Y702296D01*
X343515Y700841D01*
X341458Y698784D01*
X340004Y696265D01*
X339251Y693455D01*
Y690545D01*
X340004Y687735D01*
X341458Y685216D01*
X343515Y683159D01*
X346035Y681704D01*
X348845Y680951D01*
X351754D01*
X354565Y681704D01*
X357084Y683159D01*
X359141Y685216D01*
X360596Y687735D01*
X361349Y690545D01*
Y693455D01*
X360596Y696265D01*
X359141Y698784D01*
X357084Y700841D01*
X354565Y702296D01*
X351754Y703049D01*
D02*
G37*
G36*
X250154D02*
X247245D01*
X244435Y702296D01*
X241915Y700841D01*
X239858Y698784D01*
X238404Y696265D01*
X237651Y693455D01*
Y690545D01*
X238404Y687735D01*
X239858Y685216D01*
X241915Y683159D01*
X244435Y681704D01*
X247245Y680951D01*
X250154D01*
X252964Y681704D01*
X255484Y683159D01*
X257541Y685216D01*
X258996Y687735D01*
X259749Y690545D01*
Y693455D01*
X258996Y696265D01*
X257541Y698784D01*
X255484Y700841D01*
X252964Y702296D01*
X250154Y703049D01*
D02*
G37*
G36*
X161255D02*
X158345D01*
X155535Y702296D01*
X153016Y700841D01*
X150959Y698784D01*
X149504Y696265D01*
X148751Y693455D01*
Y690545D01*
X149504Y687735D01*
X150959Y685216D01*
X153016Y683159D01*
X155535Y681704D01*
X158345Y680951D01*
X161255D01*
X164065Y681704D01*
X166584Y683159D01*
X168641Y685216D01*
X170096Y687735D01*
X170849Y690545D01*
Y693455D01*
X170096Y696265D01*
X168641Y698784D01*
X166584Y700841D01*
X164065Y702296D01*
X161255Y703049D01*
D02*
G37*
G36*
X59655D02*
X56745D01*
X53935Y702296D01*
X51416Y700841D01*
X49359Y698784D01*
X47904Y696265D01*
X47151Y693455D01*
Y690545D01*
X47904Y687735D01*
X49359Y685216D01*
X51416Y683159D01*
X53935Y681704D01*
X56745Y680951D01*
X59655D01*
X62465Y681704D01*
X64984Y683159D01*
X67041Y685216D01*
X68496Y687735D01*
X69249Y690545D01*
Y693455D01*
X68496Y696265D01*
X67041Y698784D01*
X64984Y700841D01*
X62465Y702296D01*
X59655Y703049D01*
D02*
G37*
G36*
X492215Y714479D02*
X487787D01*
X483444Y713615D01*
X479353Y711921D01*
X475671Y709461D01*
X472540Y706329D01*
X470080Y702648D01*
X468386Y698557D01*
X467522Y694214D01*
Y689786D01*
X468386Y685443D01*
X470080Y681352D01*
X472540Y677671D01*
X475671Y674539D01*
X479353Y672079D01*
X483444Y670385D01*
X487787Y669521D01*
X492215D01*
X496558Y670385D01*
X500648Y672079D01*
X504330Y674539D01*
X507461Y677671D01*
X509921Y681352D01*
X511616Y685443D01*
X512480Y689786D01*
Y694214D01*
X511616Y698557D01*
X509921Y702648D01*
X507461Y706329D01*
X504330Y709461D01*
X500648Y711921D01*
X496558Y713615D01*
X492215Y714479D01*
D02*
G37*
G36*
X301714D02*
X297286D01*
X292943Y713615D01*
X288852Y711921D01*
X285170Y709461D01*
X282039Y706329D01*
X279579Y702648D01*
X277885Y698557D01*
X277021Y694214D01*
Y689786D01*
X277885Y685443D01*
X279579Y681352D01*
X282039Y677671D01*
X285170Y674539D01*
X288852Y672079D01*
X292943Y670385D01*
X297286Y669521D01*
X301714D01*
X306057Y670385D01*
X310147Y672079D01*
X313829Y674539D01*
X316960Y677671D01*
X319420Y681352D01*
X321115Y685443D01*
X321979Y689786D01*
Y694214D01*
X321115Y698557D01*
X319420Y702648D01*
X316960Y706329D01*
X313829Y709461D01*
X310147Y711921D01*
X306057Y713615D01*
X301714Y714479D01*
D02*
G37*
G36*
X111214D02*
X106786D01*
X102443Y713615D01*
X98352Y711921D01*
X94670Y709461D01*
X91539Y706329D01*
X89079Y702648D01*
X87385Y698557D01*
X86521Y694214D01*
Y689786D01*
X87385Y685443D01*
X89079Y681352D01*
X91539Y677671D01*
X94670Y674539D01*
X98352Y672079D01*
X102443Y670385D01*
X106786Y669521D01*
X111214D01*
X115557Y670385D01*
X119648Y672079D01*
X123329Y674539D01*
X126461Y677671D01*
X128921Y681352D01*
X130615Y685443D01*
X131479Y689786D01*
Y694214D01*
X130615Y698557D01*
X128921Y702648D01*
X126461Y706329D01*
X123329Y709461D01*
X119648Y711921D01*
X115557Y713615D01*
X111214Y714479D01*
D02*
G37*
G36*
X529557Y681390D02*
X526644D01*
X523787Y680822D01*
X521095Y679707D01*
X518673Y678088D01*
X516613Y676028D01*
X514994Y673606D01*
X513879Y670914D01*
X513311Y668057D01*
Y665143D01*
X513879Y662286D01*
X514994Y659594D01*
X516613Y657172D01*
X518673Y655112D01*
X521095Y653493D01*
X523787Y652378D01*
X526644Y651810D01*
X529557D01*
X532415Y652378D01*
X535106Y653493D01*
X537529Y655112D01*
X539589Y657172D01*
X541207Y659594D01*
X542322Y662286D01*
X542891Y665143D01*
Y668057D01*
X542322Y670914D01*
X541207Y673606D01*
X539589Y676028D01*
X537529Y678088D01*
X535106Y679707D01*
X532415Y680822D01*
X529557Y681390D01*
D02*
G37*
G36*
X339056D02*
X336143D01*
X333286Y680822D01*
X330594Y679707D01*
X328172Y678088D01*
X326112Y676028D01*
X324493Y673606D01*
X323378Y670914D01*
X322810Y668057D01*
Y665143D01*
X323378Y662286D01*
X324493Y659594D01*
X326112Y657172D01*
X328172Y655112D01*
X330594Y653493D01*
X333286Y652378D01*
X336143Y651810D01*
X339056D01*
X341914Y652378D01*
X344605Y653493D01*
X347028Y655112D01*
X349088Y657172D01*
X350706Y659594D01*
X351821Y662286D01*
X352390Y665143D01*
Y668057D01*
X351821Y670914D01*
X350706Y673606D01*
X349088Y676028D01*
X347028Y678088D01*
X344605Y679707D01*
X341914Y680822D01*
X339056Y681390D01*
D02*
G37*
G36*
X148557D02*
X145643D01*
X142786Y680822D01*
X140094Y679707D01*
X137672Y678088D01*
X135612Y676028D01*
X133993Y673606D01*
X132878Y670914D01*
X132310Y668057D01*
Y665143D01*
X132878Y662286D01*
X133993Y659594D01*
X135612Y657172D01*
X137672Y655112D01*
X140094Y653493D01*
X142786Y652378D01*
X145643Y651810D01*
X148557D01*
X151414Y652378D01*
X154106Y653493D01*
X156528Y655112D01*
X158588Y657172D01*
X160207Y659594D01*
X161322Y662286D01*
X161890Y665143D01*
Y668057D01*
X161322Y670914D01*
X160207Y673606D01*
X158588Y676028D01*
X156528Y678088D01*
X154106Y679707D01*
X151414Y680822D01*
X148557Y681390D01*
D02*
G37*
G36*
X466057Y655990D02*
X463144D01*
X460287Y655422D01*
X457595Y654307D01*
X455173Y652688D01*
X453113Y650628D01*
X451494Y648206D01*
X450379Y645514D01*
X449811Y642657D01*
Y639743D01*
X450379Y636886D01*
X451494Y634194D01*
X453113Y631772D01*
X455173Y629712D01*
X457595Y628093D01*
X460287Y626978D01*
X463144Y626410D01*
X466057D01*
X468915Y626978D01*
X471606Y628093D01*
X474029Y629712D01*
X476089Y631772D01*
X477707Y634194D01*
X478822Y636886D01*
X479391Y639743D01*
Y642657D01*
X478822Y645514D01*
X477707Y648206D01*
X476089Y650628D01*
X474029Y652688D01*
X471606Y654307D01*
X468915Y655422D01*
X466057Y655990D01*
D02*
G37*
G36*
X275556D02*
X272643D01*
X269786Y655422D01*
X267094Y654307D01*
X264672Y652688D01*
X262612Y650628D01*
X260993Y648206D01*
X259878Y645514D01*
X259310Y642657D01*
Y639743D01*
X259878Y636886D01*
X260993Y634194D01*
X262612Y631772D01*
X264672Y629712D01*
X267094Y628093D01*
X269786Y626978D01*
X272643Y626410D01*
X275556D01*
X278414Y626978D01*
X281105Y628093D01*
X283528Y629712D01*
X285588Y631772D01*
X287206Y634194D01*
X288321Y636886D01*
X288890Y639743D01*
Y642657D01*
X288321Y645514D01*
X287206Y648206D01*
X285588Y650628D01*
X283528Y652688D01*
X281105Y654307D01*
X278414Y655422D01*
X275556Y655990D01*
D02*
G37*
G36*
X85057D02*
X82143D01*
X79286Y655422D01*
X76594Y654307D01*
X74172Y652688D01*
X72112Y650628D01*
X70493Y648206D01*
X69378Y645514D01*
X68810Y642657D01*
Y639743D01*
X69378Y636886D01*
X70493Y634194D01*
X72112Y631772D01*
X74172Y629712D01*
X76594Y628093D01*
X79286Y626978D01*
X82143Y626410D01*
X85057D01*
X87914Y626978D01*
X90606Y628093D01*
X93028Y629712D01*
X95088Y631772D01*
X96707Y634194D01*
X97822Y636886D01*
X98390Y639743D01*
Y642657D01*
X97822Y645514D01*
X96707Y648206D01*
X95088Y650628D01*
X93028Y652688D01*
X90606Y654307D01*
X87914Y655422D01*
X85057Y655990D01*
D02*
G37*
G36*
X732463Y607619D02*
X729554D01*
X726744Y606866D01*
X724224Y605411D01*
X722167Y603354D01*
X720712Y600835D01*
X719959Y598025D01*
Y595115D01*
X720712Y592305D01*
X722167Y589786D01*
X724224Y587729D01*
X726744Y586274D01*
X729554Y585521D01*
X732463D01*
X735273Y586274D01*
X737793Y587729D01*
X739850Y589786D01*
X741304Y592305D01*
X742057Y595115D01*
Y598025D01*
X741304Y600835D01*
X739850Y603354D01*
X737793Y605411D01*
X735273Y606866D01*
X732463Y607619D01*
D02*
G37*
G36*
X630863D02*
X627954D01*
X625144Y606866D01*
X622624Y605411D01*
X620567Y603354D01*
X619112Y600835D01*
X618359Y598025D01*
Y595115D01*
X619112Y592305D01*
X620567Y589786D01*
X622624Y587729D01*
X625144Y586274D01*
X627954Y585521D01*
X630863D01*
X633673Y586274D01*
X636193Y587729D01*
X638250Y589786D01*
X639704Y592305D01*
X640457Y595115D01*
Y598025D01*
X639704Y600835D01*
X638250Y603354D01*
X636193Y605411D01*
X633673Y606866D01*
X630863Y607619D01*
D02*
G37*
G36*
X682422Y619049D02*
X677994D01*
X673652Y618185D01*
X669560Y616491D01*
X665879Y614030D01*
X662748Y610900D01*
X660288Y607218D01*
X658593Y603127D01*
X657729Y598784D01*
Y594356D01*
X658593Y590013D01*
X660288Y585922D01*
X662748Y582240D01*
X665879Y579109D01*
X669560Y576649D01*
X673652Y574955D01*
X677994Y574091D01*
X682422D01*
X686765Y574955D01*
X690856Y576649D01*
X694538Y579109D01*
X697669Y582240D01*
X700129Y585922D01*
X701824Y590013D01*
X702687Y594356D01*
Y598784D01*
X701824Y603127D01*
X700129Y607218D01*
X697669Y610900D01*
X694538Y614030D01*
X690856Y616491D01*
X686765Y618185D01*
X682422Y619049D01*
D02*
G37*
G36*
X719765Y585960D02*
X716852D01*
X713994Y585392D01*
X711303Y584277D01*
X708880Y582658D01*
X706820Y580598D01*
X705202Y578176D01*
X704087Y575484D01*
X703518Y572627D01*
Y569713D01*
X704087Y566856D01*
X705202Y564164D01*
X706820Y561742D01*
X708880Y559682D01*
X711303Y558063D01*
X713994Y556948D01*
X716852Y556380D01*
X719765D01*
X722622Y556948D01*
X725314Y558063D01*
X727736Y559682D01*
X729797Y561742D01*
X731415Y564164D01*
X732530Y566856D01*
X733098Y569713D01*
Y572627D01*
X732530Y575484D01*
X731415Y578176D01*
X729797Y580598D01*
X727736Y582658D01*
X725314Y584277D01*
X722622Y585392D01*
X719765Y585960D01*
D02*
G37*
G36*
X656265Y560560D02*
X653352D01*
X650494Y559992D01*
X647803Y558877D01*
X645380Y557258D01*
X643320Y555198D01*
X641702Y552776D01*
X640587Y550084D01*
X640018Y547227D01*
Y544313D01*
X640587Y541456D01*
X641702Y538764D01*
X643320Y536342D01*
X645380Y534282D01*
X647803Y532663D01*
X650494Y531548D01*
X653352Y530980D01*
X656265D01*
X659122Y531548D01*
X661814Y532663D01*
X664236Y534282D01*
X666296Y536342D01*
X667915Y538764D01*
X669030Y541456D01*
X669598Y544313D01*
Y547227D01*
X669030Y550084D01*
X667915Y552776D01*
X666296Y555198D01*
X664236Y557258D01*
X661814Y558877D01*
X659122Y559992D01*
X656265Y560560D01*
D02*
G37*
G36*
X542255Y512549D02*
X539346D01*
X536536Y511796D01*
X534016Y510341D01*
X531959Y508284D01*
X530505Y505765D01*
X529752Y502955D01*
Y500045D01*
X530505Y497235D01*
X531959Y494716D01*
X534016Y492659D01*
X536536Y491204D01*
X539346Y490451D01*
X542255D01*
X545065Y491204D01*
X547585Y492659D01*
X549642Y494716D01*
X551097Y497235D01*
X551850Y500045D01*
Y502955D01*
X551097Y505765D01*
X549642Y508284D01*
X547585Y510341D01*
X545065Y511796D01*
X542255Y512549D01*
D02*
G37*
G36*
X440655D02*
X437746D01*
X434936Y511796D01*
X432416Y510341D01*
X430359Y508284D01*
X428905Y505765D01*
X428152Y502955D01*
Y500045D01*
X428905Y497235D01*
X430359Y494716D01*
X432416Y492659D01*
X434936Y491204D01*
X437746Y490451D01*
X440655D01*
X443465Y491204D01*
X445985Y492659D01*
X448042Y494716D01*
X449497Y497235D01*
X450250Y500045D01*
Y502955D01*
X449497Y505765D01*
X448042Y508284D01*
X445985Y510341D01*
X443465Y511796D01*
X440655Y512549D01*
D02*
G37*
G36*
X351754D02*
X348845D01*
X346035Y511796D01*
X343515Y510341D01*
X341458Y508284D01*
X340004Y505765D01*
X339251Y502955D01*
Y500045D01*
X340004Y497235D01*
X341458Y494716D01*
X343515Y492659D01*
X346035Y491204D01*
X348845Y490451D01*
X351754D01*
X354565Y491204D01*
X357084Y492659D01*
X359141Y494716D01*
X360596Y497235D01*
X361349Y500045D01*
Y502955D01*
X360596Y505765D01*
X359141Y508284D01*
X357084Y510341D01*
X354565Y511796D01*
X351754Y512549D01*
D02*
G37*
G36*
X250154D02*
X247245D01*
X244435Y511796D01*
X241915Y510341D01*
X239858Y508284D01*
X238404Y505765D01*
X237651Y502955D01*
Y500045D01*
X238404Y497235D01*
X239858Y494716D01*
X241915Y492659D01*
X244435Y491204D01*
X247245Y490451D01*
X250154D01*
X252964Y491204D01*
X255484Y492659D01*
X257541Y494716D01*
X258996Y497235D01*
X259749Y500045D01*
Y502955D01*
X258996Y505765D01*
X257541Y508284D01*
X255484Y510341D01*
X252964Y511796D01*
X250154Y512549D01*
D02*
G37*
G36*
X161255D02*
X158345D01*
X155535Y511796D01*
X153016Y510341D01*
X150959Y508284D01*
X149504Y505765D01*
X148751Y502955D01*
Y500045D01*
X149504Y497235D01*
X150959Y494716D01*
X153016Y492659D01*
X155535Y491204D01*
X158345Y490451D01*
X161255D01*
X164065Y491204D01*
X166584Y492659D01*
X168641Y494716D01*
X170096Y497235D01*
X170849Y500045D01*
Y502955D01*
X170096Y505765D01*
X168641Y508284D01*
X166584Y510341D01*
X164065Y511796D01*
X161255Y512549D01*
D02*
G37*
G36*
X59655D02*
X56745D01*
X53935Y511796D01*
X51416Y510341D01*
X49359Y508284D01*
X47904Y505765D01*
X47151Y502955D01*
Y500045D01*
X47904Y497235D01*
X49359Y494716D01*
X51416Y492659D01*
X53935Y491204D01*
X56745Y490451D01*
X59655D01*
X62465Y491204D01*
X64984Y492659D01*
X67041Y494716D01*
X68496Y497235D01*
X69249Y500045D01*
Y502955D01*
X68496Y505765D01*
X67041Y508284D01*
X64984Y510341D01*
X62465Y511796D01*
X59655Y512549D01*
D02*
G37*
G36*
X492215Y523979D02*
X487787D01*
X483444Y523115D01*
X479353Y521421D01*
X475671Y518961D01*
X472540Y515830D01*
X470080Y512148D01*
X468386Y508057D01*
X467522Y503714D01*
Y499286D01*
X468386Y494943D01*
X470080Y490852D01*
X472540Y487170D01*
X475671Y484039D01*
X479353Y481579D01*
X483444Y479885D01*
X487787Y479021D01*
X492215D01*
X496558Y479885D01*
X500648Y481579D01*
X504330Y484039D01*
X507461Y487170D01*
X509921Y490852D01*
X511616Y494943D01*
X512480Y499286D01*
Y503714D01*
X511616Y508057D01*
X509921Y512148D01*
X507461Y515830D01*
X504330Y518961D01*
X500648Y521421D01*
X496558Y523115D01*
X492215Y523979D01*
D02*
G37*
G36*
X301714D02*
X297286D01*
X292943Y523115D01*
X288852Y521421D01*
X285170Y518961D01*
X282039Y515830D01*
X279579Y512148D01*
X277885Y508057D01*
X277021Y503714D01*
Y499286D01*
X277885Y494943D01*
X279579Y490852D01*
X282039Y487170D01*
X285170Y484039D01*
X288852Y481579D01*
X292943Y479885D01*
X297286Y479021D01*
X301714D01*
X306057Y479885D01*
X310147Y481579D01*
X313829Y484039D01*
X316960Y487170D01*
X319420Y490852D01*
X321115Y494943D01*
X321979Y499286D01*
Y503714D01*
X321115Y508057D01*
X319420Y512148D01*
X316960Y515830D01*
X313829Y518961D01*
X310147Y521421D01*
X306057Y523115D01*
X301714Y523979D01*
D02*
G37*
G36*
X111214D02*
X106786D01*
X102443Y523115D01*
X98352Y521421D01*
X94670Y518961D01*
X91539Y515830D01*
X89079Y512148D01*
X87385Y508057D01*
X86521Y503714D01*
Y499286D01*
X87385Y494943D01*
X89079Y490852D01*
X91539Y487170D01*
X94670Y484039D01*
X98352Y481579D01*
X102443Y479885D01*
X106786Y479021D01*
X111214D01*
X115557Y479885D01*
X119648Y481579D01*
X123329Y484039D01*
X126461Y487170D01*
X128921Y490852D01*
X130615Y494943D01*
X131479Y499286D01*
Y503714D01*
X130615Y508057D01*
X128921Y512148D01*
X126461Y515830D01*
X123329Y518961D01*
X119648Y521421D01*
X115557Y523115D01*
X111214Y523979D01*
D02*
G37*
G36*
X529557Y490890D02*
X526644D01*
X523787Y490322D01*
X521095Y489207D01*
X518673Y487588D01*
X516613Y485528D01*
X514994Y483106D01*
X513879Y480414D01*
X513311Y477557D01*
Y474643D01*
X513879Y471786D01*
X514994Y469094D01*
X516613Y466672D01*
X518673Y464612D01*
X521095Y462993D01*
X523787Y461878D01*
X526644Y461310D01*
X529557D01*
X532415Y461878D01*
X535106Y462993D01*
X537529Y464612D01*
X539589Y466672D01*
X541207Y469094D01*
X542322Y471786D01*
X542891Y474643D01*
Y477557D01*
X542322Y480414D01*
X541207Y483106D01*
X539589Y485528D01*
X537529Y487588D01*
X535106Y489207D01*
X532415Y490322D01*
X529557Y490890D01*
D02*
G37*
G36*
X339056D02*
X336143D01*
X333286Y490322D01*
X330594Y489207D01*
X328172Y487588D01*
X326112Y485528D01*
X324493Y483106D01*
X323378Y480414D01*
X322810Y477557D01*
Y474643D01*
X323378Y471786D01*
X324493Y469094D01*
X326112Y466672D01*
X328172Y464612D01*
X330594Y462993D01*
X333286Y461878D01*
X336143Y461310D01*
X339056D01*
X341914Y461878D01*
X344605Y462993D01*
X347028Y464612D01*
X349088Y466672D01*
X350706Y469094D01*
X351821Y471786D01*
X352390Y474643D01*
Y477557D01*
X351821Y480414D01*
X350706Y483106D01*
X349088Y485528D01*
X347028Y487588D01*
X344605Y489207D01*
X341914Y490322D01*
X339056Y490890D01*
D02*
G37*
G36*
X148557D02*
X145643D01*
X142786Y490322D01*
X140094Y489207D01*
X137672Y487588D01*
X135612Y485528D01*
X133993Y483106D01*
X132878Y480414D01*
X132310Y477557D01*
Y474643D01*
X132878Y471786D01*
X133993Y469094D01*
X135612Y466672D01*
X137672Y464612D01*
X140094Y462993D01*
X142786Y461878D01*
X145643Y461310D01*
X148557D01*
X151414Y461878D01*
X154106Y462993D01*
X156528Y464612D01*
X158588Y466672D01*
X160207Y469094D01*
X161322Y471786D01*
X161890Y474643D01*
Y477557D01*
X161322Y480414D01*
X160207Y483106D01*
X158588Y485528D01*
X156528Y487588D01*
X154106Y489207D01*
X151414Y490322D01*
X148557Y490890D01*
D02*
G37*
G36*
X751961Y494860D02*
X748456D01*
X745019Y494176D01*
X741782Y492835D01*
X738868Y490888D01*
X736390Y488410D01*
X734443Y485497D01*
X733102Y482259D01*
X732418Y478822D01*
Y475318D01*
X733102Y471881D01*
X734443Y468643D01*
X736390Y465729D01*
X738868Y463252D01*
X741782Y461305D01*
X745019Y459964D01*
X748456Y459280D01*
X751961D01*
X755397Y459964D01*
X758635Y461305D01*
X761549Y463252D01*
X764027Y465729D01*
X765974Y468643D01*
X767315Y471881D01*
X767998Y475318D01*
Y478822D01*
X767315Y482259D01*
X765974Y485497D01*
X764027Y488410D01*
X761549Y490888D01*
X758635Y492835D01*
X755397Y494176D01*
X751961Y494860D01*
D02*
G37*
G36*
X600028Y500110D02*
X595588D01*
X591234Y499244D01*
X587132Y497545D01*
X583440Y495078D01*
X580300Y491938D01*
X577834Y488247D01*
X576135Y484145D01*
X575268Y479790D01*
Y475350D01*
X576135Y470995D01*
X577834Y466893D01*
X580300Y463202D01*
X583440Y460062D01*
X587132Y457595D01*
X591234Y455896D01*
X595588Y455030D01*
X600028D01*
X604383Y455896D01*
X608485Y457595D01*
X612177Y460062D01*
X615316Y463202D01*
X617783Y466893D01*
X619482Y470995D01*
X620348Y475350D01*
Y479790D01*
X619482Y484145D01*
X617783Y488247D01*
X615316Y491938D01*
X612177Y495078D01*
X608485Y497545D01*
X604383Y499244D01*
X600028Y500110D01*
D02*
G37*
G36*
X466057Y465490D02*
X463144D01*
X460287Y464922D01*
X457595Y463807D01*
X455173Y462188D01*
X453113Y460128D01*
X451494Y457706D01*
X450379Y455014D01*
X449811Y452157D01*
Y449243D01*
X450379Y446386D01*
X451494Y443694D01*
X453113Y441272D01*
X455173Y439212D01*
X457595Y437593D01*
X460287Y436478D01*
X463144Y435910D01*
X466057D01*
X468915Y436478D01*
X471606Y437593D01*
X474029Y439212D01*
X476089Y441272D01*
X477707Y443694D01*
X478822Y446386D01*
X479391Y449243D01*
Y452157D01*
X478822Y455014D01*
X477707Y457706D01*
X476089Y460128D01*
X474029Y462188D01*
X471606Y463807D01*
X468915Y464922D01*
X466057Y465490D01*
D02*
G37*
G36*
X275556D02*
X272643D01*
X269786Y464922D01*
X267094Y463807D01*
X264672Y462188D01*
X262612Y460128D01*
X260993Y457706D01*
X259878Y455014D01*
X259310Y452157D01*
Y449243D01*
X259878Y446386D01*
X260993Y443694D01*
X262612Y441272D01*
X264672Y439212D01*
X267094Y437593D01*
X269786Y436478D01*
X272643Y435910D01*
X275556D01*
X278414Y436478D01*
X281105Y437593D01*
X283528Y439212D01*
X285588Y441272D01*
X287206Y443694D01*
X288321Y446386D01*
X288890Y449243D01*
Y452157D01*
X288321Y455014D01*
X287206Y457706D01*
X285588Y460128D01*
X283528Y462188D01*
X281105Y463807D01*
X278414Y464922D01*
X275556Y465490D01*
D02*
G37*
G36*
X85057D02*
X82143D01*
X79286Y464922D01*
X76594Y463807D01*
X74172Y462188D01*
X72112Y460128D01*
X70493Y457706D01*
X69378Y455014D01*
X68810Y452157D01*
Y449243D01*
X69378Y446386D01*
X70493Y443694D01*
X72112Y441272D01*
X74172Y439212D01*
X76594Y437593D01*
X79286Y436478D01*
X82143Y435910D01*
X85057D01*
X87914Y436478D01*
X90606Y437593D01*
X93028Y439212D01*
X95088Y441272D01*
X96707Y443694D01*
X97822Y446386D01*
X98390Y449243D01*
Y452157D01*
X97822Y455014D01*
X96707Y457706D01*
X95088Y460128D01*
X93028Y462188D01*
X90606Y463807D01*
X87914Y464922D01*
X85057Y465490D01*
D02*
G37*
G36*
X751961Y351861D02*
X748456D01*
X745019Y351177D01*
X741782Y349836D01*
X738868Y347889D01*
X736390Y345411D01*
X734443Y342498D01*
X733102Y339260D01*
X732418Y335823D01*
Y332319D01*
X733102Y328882D01*
X734443Y325644D01*
X736390Y322730D01*
X738868Y320253D01*
X741782Y318306D01*
X745019Y316965D01*
X748456Y316281D01*
X751961D01*
X755397Y316965D01*
X758635Y318306D01*
X761549Y320253D01*
X764027Y322730D01*
X765974Y325644D01*
X767315Y328882D01*
X767998Y332319D01*
Y335823D01*
X767315Y339260D01*
X765974Y342498D01*
X764027Y345411D01*
X761549Y347889D01*
X758635Y349836D01*
X755397Y351177D01*
X751961Y351861D01*
D02*
G37*
G36*
X600028Y357111D02*
X595588D01*
X591234Y356245D01*
X587132Y354546D01*
X583440Y352079D01*
X580300Y348939D01*
X577834Y345248D01*
X576135Y341146D01*
X575268Y336791D01*
Y332351D01*
X576135Y327996D01*
X577834Y323894D01*
X580300Y320203D01*
X583440Y317063D01*
X587132Y314596D01*
X591234Y312897D01*
X595588Y312031D01*
X600028D01*
X604383Y312897D01*
X608485Y314596D01*
X612177Y317063D01*
X615316Y320203D01*
X617783Y323894D01*
X619482Y327996D01*
X620348Y332351D01*
Y336791D01*
X619482Y341146D01*
X617783Y345248D01*
X615316Y348939D01*
X612177Y352079D01*
X608485Y354546D01*
X604383Y356245D01*
X600028Y357111D01*
D02*
G37*
G36*
X542255Y322049D02*
X539346D01*
X536536Y321296D01*
X534016Y319841D01*
X531959Y317784D01*
X530505Y315265D01*
X529752Y312455D01*
Y309545D01*
X530505Y306735D01*
X531959Y304216D01*
X534016Y302159D01*
X536536Y300704D01*
X539346Y299951D01*
X542255D01*
X545065Y300704D01*
X547585Y302159D01*
X549642Y304216D01*
X551097Y306735D01*
X551850Y309545D01*
Y312455D01*
X551097Y315265D01*
X549642Y317784D01*
X547585Y319841D01*
X545065Y321296D01*
X542255Y322049D01*
D02*
G37*
G36*
X440655D02*
X437746D01*
X434936Y321296D01*
X432416Y319841D01*
X430359Y317784D01*
X428905Y315265D01*
X428152Y312455D01*
Y309545D01*
X428905Y306735D01*
X430359Y304216D01*
X432416Y302159D01*
X434936Y300704D01*
X437746Y299951D01*
X440655D01*
X443465Y300704D01*
X445985Y302159D01*
X448042Y304216D01*
X449497Y306735D01*
X450250Y309545D01*
Y312455D01*
X449497Y315265D01*
X448042Y317784D01*
X445985Y319841D01*
X443465Y321296D01*
X440655Y322049D01*
D02*
G37*
G36*
X351754D02*
X348845D01*
X346035Y321296D01*
X343515Y319841D01*
X341458Y317784D01*
X340004Y315265D01*
X339251Y312455D01*
Y309545D01*
X340004Y306735D01*
X341458Y304216D01*
X343515Y302159D01*
X346035Y300704D01*
X348845Y299951D01*
X351754D01*
X354565Y300704D01*
X357084Y302159D01*
X359141Y304216D01*
X360596Y306735D01*
X361349Y309545D01*
Y312455D01*
X360596Y315265D01*
X359141Y317784D01*
X357084Y319841D01*
X354565Y321296D01*
X351754Y322049D01*
D02*
G37*
G36*
X250154D02*
X247245D01*
X244435Y321296D01*
X241915Y319841D01*
X239858Y317784D01*
X238404Y315265D01*
X237651Y312455D01*
Y309545D01*
X238404Y306735D01*
X239858Y304216D01*
X241915Y302159D01*
X244435Y300704D01*
X247245Y299951D01*
X250154D01*
X252964Y300704D01*
X255484Y302159D01*
X257541Y304216D01*
X258996Y306735D01*
X259749Y309545D01*
Y312455D01*
X258996Y315265D01*
X257541Y317784D01*
X255484Y319841D01*
X252964Y321296D01*
X250154Y322049D01*
D02*
G37*
G36*
X161255D02*
X158345D01*
X155535Y321296D01*
X153016Y319841D01*
X150959Y317784D01*
X149504Y315265D01*
X148751Y312455D01*
Y309545D01*
X149504Y306735D01*
X150959Y304216D01*
X153016Y302159D01*
X155535Y300704D01*
X158345Y299951D01*
X161255D01*
X164065Y300704D01*
X166584Y302159D01*
X168641Y304216D01*
X170096Y306735D01*
X170849Y309545D01*
Y312455D01*
X170096Y315265D01*
X168641Y317784D01*
X166584Y319841D01*
X164065Y321296D01*
X161255Y322049D01*
D02*
G37*
G36*
X59655D02*
X56745D01*
X53935Y321296D01*
X51416Y319841D01*
X49359Y317784D01*
X47904Y315265D01*
X47151Y312455D01*
Y309545D01*
X47904Y306735D01*
X49359Y304216D01*
X51416Y302159D01*
X53935Y300704D01*
X56745Y299951D01*
X59655D01*
X62465Y300704D01*
X64984Y302159D01*
X67041Y304216D01*
X68496Y306735D01*
X69249Y309545D01*
Y312455D01*
X68496Y315265D01*
X67041Y317784D01*
X64984Y319841D01*
X62465Y321296D01*
X59655Y322049D01*
D02*
G37*
G36*
X492215Y333479D02*
X487787D01*
X483444Y332615D01*
X479353Y330921D01*
X475671Y328461D01*
X472540Y325330D01*
X470080Y321648D01*
X468386Y317557D01*
X467522Y313214D01*
Y308786D01*
X468386Y304443D01*
X470080Y300352D01*
X472540Y296670D01*
X475671Y293539D01*
X479353Y291079D01*
X483444Y289385D01*
X487787Y288521D01*
X492215D01*
X496558Y289385D01*
X500648Y291079D01*
X504330Y293539D01*
X507461Y296670D01*
X509921Y300352D01*
X511616Y304443D01*
X512480Y308786D01*
Y313214D01*
X511616Y317557D01*
X509921Y321648D01*
X507461Y325330D01*
X504330Y328461D01*
X500648Y330921D01*
X496558Y332615D01*
X492215Y333479D01*
D02*
G37*
G36*
X301714D02*
X297286D01*
X292943Y332615D01*
X288852Y330921D01*
X285170Y328461D01*
X282039Y325330D01*
X279579Y321648D01*
X277885Y317557D01*
X277021Y313214D01*
Y308786D01*
X277885Y304443D01*
X279579Y300352D01*
X282039Y296670D01*
X285170Y293539D01*
X288852Y291079D01*
X292943Y289385D01*
X297286Y288521D01*
X301714D01*
X306057Y289385D01*
X310147Y291079D01*
X313829Y293539D01*
X316960Y296670D01*
X319420Y300352D01*
X321115Y304443D01*
X321979Y308786D01*
Y313214D01*
X321115Y317557D01*
X319420Y321648D01*
X316960Y325330D01*
X313829Y328461D01*
X310147Y330921D01*
X306057Y332615D01*
X301714Y333479D01*
D02*
G37*
G36*
X111214D02*
X106786D01*
X102443Y332615D01*
X98352Y330921D01*
X94670Y328461D01*
X91539Y325330D01*
X89079Y321648D01*
X87385Y317557D01*
X86521Y313214D01*
Y308786D01*
X87385Y304443D01*
X89079Y300352D01*
X91539Y296670D01*
X94670Y293539D01*
X98352Y291079D01*
X102443Y289385D01*
X106786Y288521D01*
X111214D01*
X115557Y289385D01*
X119648Y291079D01*
X123329Y293539D01*
X126461Y296670D01*
X128921Y300352D01*
X130615Y304443D01*
X131479Y308786D01*
Y313214D01*
X130615Y317557D01*
X128921Y321648D01*
X126461Y325330D01*
X123329Y328461D01*
X119648Y330921D01*
X115557Y332615D01*
X111214Y333479D01*
D02*
G37*
G36*
X529557Y300390D02*
X526644D01*
X523787Y299822D01*
X521095Y298707D01*
X518673Y297088D01*
X516613Y295028D01*
X514994Y292606D01*
X513879Y289914D01*
X513311Y287057D01*
Y284143D01*
X513879Y281286D01*
X514994Y278594D01*
X516613Y276172D01*
X518673Y274112D01*
X521095Y272493D01*
X523787Y271378D01*
X526644Y270810D01*
X529557D01*
X532415Y271378D01*
X535106Y272493D01*
X537529Y274112D01*
X539589Y276172D01*
X541207Y278594D01*
X542322Y281286D01*
X542891Y284143D01*
Y287057D01*
X542322Y289914D01*
X541207Y292606D01*
X539589Y295028D01*
X537529Y297088D01*
X535106Y298707D01*
X532415Y299822D01*
X529557Y300390D01*
D02*
G37*
G36*
X339056D02*
X336143D01*
X333286Y299822D01*
X330594Y298707D01*
X328172Y297088D01*
X326112Y295028D01*
X324493Y292606D01*
X323378Y289914D01*
X322810Y287057D01*
Y284143D01*
X323378Y281286D01*
X324493Y278594D01*
X326112Y276172D01*
X328172Y274112D01*
X330594Y272493D01*
X333286Y271378D01*
X336143Y270810D01*
X339056D01*
X341914Y271378D01*
X344605Y272493D01*
X347028Y274112D01*
X349088Y276172D01*
X350706Y278594D01*
X351821Y281286D01*
X352390Y284143D01*
Y287057D01*
X351821Y289914D01*
X350706Y292606D01*
X349088Y295028D01*
X347028Y297088D01*
X344605Y298707D01*
X341914Y299822D01*
X339056Y300390D01*
D02*
G37*
G36*
X148557D02*
X145643D01*
X142786Y299822D01*
X140094Y298707D01*
X137672Y297088D01*
X135612Y295028D01*
X133993Y292606D01*
X132878Y289914D01*
X132310Y287057D01*
Y284143D01*
X132878Y281286D01*
X133993Y278594D01*
X135612Y276172D01*
X137672Y274112D01*
X140094Y272493D01*
X142786Y271378D01*
X145643Y270810D01*
X148557D01*
X151414Y271378D01*
X154106Y272493D01*
X156528Y274112D01*
X158588Y276172D01*
X160207Y278594D01*
X161322Y281286D01*
X161890Y284143D01*
Y287057D01*
X161322Y289914D01*
X160207Y292606D01*
X158588Y295028D01*
X156528Y297088D01*
X154106Y298707D01*
X151414Y299822D01*
X148557Y300390D01*
D02*
G37*
G36*
X466057Y274990D02*
X463144D01*
X460287Y274422D01*
X457595Y273307D01*
X455173Y271688D01*
X453113Y269628D01*
X451494Y267206D01*
X450379Y264514D01*
X449811Y261657D01*
Y258743D01*
X450379Y255886D01*
X451494Y253194D01*
X453113Y250772D01*
X455173Y248712D01*
X457595Y247093D01*
X460287Y245978D01*
X463144Y245410D01*
X466057D01*
X468915Y245978D01*
X471606Y247093D01*
X474029Y248712D01*
X476089Y250772D01*
X477707Y253194D01*
X478822Y255886D01*
X479391Y258743D01*
Y261657D01*
X478822Y264514D01*
X477707Y267206D01*
X476089Y269628D01*
X474029Y271688D01*
X471606Y273307D01*
X468915Y274422D01*
X466057Y274990D01*
D02*
G37*
G36*
X275556D02*
X272643D01*
X269786Y274422D01*
X267094Y273307D01*
X264672Y271688D01*
X262612Y269628D01*
X260993Y267206D01*
X259878Y264514D01*
X259310Y261657D01*
Y258743D01*
X259878Y255886D01*
X260993Y253194D01*
X262612Y250772D01*
X264672Y248712D01*
X267094Y247093D01*
X269786Y245978D01*
X272643Y245410D01*
X275556D01*
X278414Y245978D01*
X281105Y247093D01*
X283528Y248712D01*
X285588Y250772D01*
X287206Y253194D01*
X288321Y255886D01*
X288890Y258743D01*
Y261657D01*
X288321Y264514D01*
X287206Y267206D01*
X285588Y269628D01*
X283528Y271688D01*
X281105Y273307D01*
X278414Y274422D01*
X275556Y274990D01*
D02*
G37*
G36*
X85057D02*
X82143D01*
X79286Y274422D01*
X76594Y273307D01*
X74172Y271688D01*
X72112Y269628D01*
X70493Y267206D01*
X69378Y264514D01*
X68810Y261657D01*
Y258743D01*
X69378Y255886D01*
X70493Y253194D01*
X72112Y250772D01*
X74172Y248712D01*
X76594Y247093D01*
X79286Y245978D01*
X82143Y245410D01*
X85057D01*
X87914Y245978D01*
X90606Y247093D01*
X93028Y248712D01*
X95088Y250772D01*
X96707Y253194D01*
X97822Y255886D01*
X98390Y258743D01*
Y261657D01*
X97822Y264514D01*
X96707Y267206D01*
X95088Y269628D01*
X93028Y271688D01*
X90606Y273307D01*
X87914Y274422D01*
X85057Y274990D01*
D02*
G37*
G36*
X732463Y226620D02*
X729554D01*
X726744Y225867D01*
X724224Y224412D01*
X722167Y222355D01*
X720712Y219836D01*
X719959Y217026D01*
Y214116D01*
X720712Y211306D01*
X722167Y208787D01*
X724224Y206730D01*
X726744Y205275D01*
X729554Y204522D01*
X732463D01*
X735273Y205275D01*
X737793Y206730D01*
X739850Y208787D01*
X741304Y211306D01*
X742057Y214116D01*
Y217026D01*
X741304Y219836D01*
X739850Y222355D01*
X737793Y224412D01*
X735273Y225867D01*
X732463Y226620D01*
D02*
G37*
G36*
X630863D02*
X627954D01*
X625144Y225867D01*
X622624Y224412D01*
X620567Y222355D01*
X619112Y219836D01*
X618359Y217026D01*
Y214116D01*
X619112Y211306D01*
X620567Y208787D01*
X622624Y206730D01*
X625144Y205275D01*
X627954Y204522D01*
X630863D01*
X633673Y205275D01*
X636193Y206730D01*
X638250Y208787D01*
X639704Y211306D01*
X640457Y214116D01*
Y217026D01*
X639704Y219836D01*
X638250Y222355D01*
X636193Y224412D01*
X633673Y225867D01*
X630863Y226620D01*
D02*
G37*
G36*
X682422Y238050D02*
X677994D01*
X673652Y237186D01*
X669560Y235492D01*
X665879Y233032D01*
X662748Y229900D01*
X660288Y226219D01*
X658593Y222128D01*
X657729Y217785D01*
Y213357D01*
X658593Y209014D01*
X660288Y204923D01*
X662748Y201241D01*
X665879Y198110D01*
X669560Y195650D01*
X673652Y193956D01*
X677994Y193092D01*
X682422D01*
X686765Y193956D01*
X690856Y195650D01*
X694538Y198110D01*
X697669Y201241D01*
X700129Y204923D01*
X701824Y209014D01*
X702687Y213357D01*
Y217785D01*
X701824Y222128D01*
X700129Y226219D01*
X697669Y229900D01*
X694538Y233032D01*
X690856Y235492D01*
X686765Y237186D01*
X682422Y238050D01*
D02*
G37*
G36*
X719765Y204961D02*
X716852D01*
X713994Y204393D01*
X711303Y203278D01*
X708880Y201659D01*
X706820Y199599D01*
X705202Y197177D01*
X704087Y194485D01*
X703518Y191628D01*
Y188714D01*
X704087Y185857D01*
X705202Y183165D01*
X706820Y180743D01*
X708880Y178683D01*
X711303Y177064D01*
X713994Y175949D01*
X716852Y175381D01*
X719765D01*
X722622Y175949D01*
X725314Y177064D01*
X727736Y178683D01*
X729797Y180743D01*
X731415Y183165D01*
X732530Y185857D01*
X733098Y188714D01*
Y191628D01*
X732530Y194485D01*
X731415Y197177D01*
X729797Y199599D01*
X727736Y201659D01*
X725314Y203278D01*
X722622Y204393D01*
X719765Y204961D01*
D02*
G37*
G36*
X325502Y208291D02*
X321997D01*
X318561Y207607D01*
X315323Y206266D01*
X312409Y204319D01*
X309931Y201842D01*
X307984Y198928D01*
X306643Y195690D01*
X305960Y192253D01*
Y188749D01*
X306643Y185312D01*
X307984Y182074D01*
X309931Y179161D01*
X312409Y176683D01*
X315323Y174736D01*
X318561Y173395D01*
X321997Y172711D01*
X325502D01*
X328939Y173395D01*
X332176Y174736D01*
X335090Y176683D01*
X337568Y179161D01*
X339515Y182074D01*
X340856Y185312D01*
X341540Y188749D01*
Y192253D01*
X340856Y195690D01*
X339515Y198928D01*
X337568Y201842D01*
X335090Y204319D01*
X332176Y206266D01*
X328939Y207607D01*
X325502Y208291D01*
D02*
G37*
G36*
X87502D02*
X83997D01*
X80561Y207607D01*
X77323Y206266D01*
X74409Y204319D01*
X71931Y201842D01*
X69984Y198928D01*
X68643Y195690D01*
X67960Y192253D01*
Y188749D01*
X68643Y185312D01*
X69984Y182074D01*
X71931Y179161D01*
X74409Y176683D01*
X77323Y174736D01*
X80561Y173395D01*
X83997Y172711D01*
X87502D01*
X90939Y173395D01*
X94176Y174736D01*
X97090Y176683D01*
X99568Y179161D01*
X101515Y182074D01*
X102856Y185312D01*
X103540Y188749D01*
Y192253D01*
X102856Y195690D01*
X101515Y198928D01*
X99568Y201842D01*
X97090Y204319D01*
X94176Y206266D01*
X90939Y207607D01*
X87502Y208291D01*
D02*
G37*
G36*
X656265Y179561D02*
X653352D01*
X650494Y178993D01*
X647803Y177878D01*
X645380Y176259D01*
X643320Y174199D01*
X641702Y171777D01*
X640587Y169085D01*
X640018Y166228D01*
Y163314D01*
X640587Y160457D01*
X641702Y157765D01*
X643320Y155343D01*
X645380Y153283D01*
X647803Y151664D01*
X650494Y150549D01*
X653352Y149981D01*
X656265D01*
X659122Y150549D01*
X661814Y151664D01*
X664236Y153283D01*
X666296Y155343D01*
X667915Y157765D01*
X669030Y160457D01*
X669598Y163314D01*
Y166228D01*
X669030Y169085D01*
X667915Y171777D01*
X666296Y174199D01*
X664236Y176259D01*
X661814Y177878D01*
X659122Y178993D01*
X656265Y179561D01*
D02*
G37*
G36*
X542026Y135808D02*
X539117D01*
X536306Y135055D01*
X533787Y133601D01*
X531730Y131544D01*
X530275Y129024D01*
X529522Y126214D01*
Y123305D01*
X530275Y120494D01*
X531730Y117975D01*
X533787Y115918D01*
X536306Y114463D01*
X539117Y113710D01*
X542026D01*
X544836Y114463D01*
X547355Y115918D01*
X549413Y117975D01*
X550867Y120494D01*
X551620Y123305D01*
Y126214D01*
X550867Y129024D01*
X549413Y131544D01*
X547355Y133601D01*
X544836Y135055D01*
X542026Y135808D01*
D02*
G37*
G36*
X440426D02*
X437517D01*
X434706Y135055D01*
X432187Y133601D01*
X430130Y131544D01*
X428675Y129024D01*
X427922Y126214D01*
Y123305D01*
X428675Y120494D01*
X430130Y117975D01*
X432187Y115918D01*
X434706Y114463D01*
X437517Y113710D01*
X440426D01*
X443236Y114463D01*
X445756Y115918D01*
X447813Y117975D01*
X449267Y120494D01*
X450020Y123305D01*
Y126214D01*
X449267Y129024D01*
X447813Y131544D01*
X445756Y133601D01*
X443236Y135055D01*
X440426Y135808D01*
D02*
G37*
G36*
X256504Y131550D02*
X253595D01*
X250785Y130797D01*
X248265Y129342D01*
X246208Y127285D01*
X244754Y124766D01*
X244001Y121956D01*
Y119046D01*
X244754Y116236D01*
X246208Y113717D01*
X248265Y111660D01*
X250785Y110205D01*
X253595Y109452D01*
X256504D01*
X259314Y110205D01*
X261834Y111660D01*
X263891Y113717D01*
X265346Y116236D01*
X266099Y119046D01*
Y121956D01*
X265346Y124766D01*
X263891Y127285D01*
X261834Y129342D01*
X259314Y130797D01*
X256504Y131550D01*
D02*
G37*
G36*
X154904D02*
X151995D01*
X149185Y130797D01*
X146665Y129342D01*
X144608Y127285D01*
X143154Y124766D01*
X142401Y121956D01*
Y119046D01*
X143154Y116236D01*
X144608Y113717D01*
X146665Y111660D01*
X149185Y110205D01*
X151995Y109452D01*
X154904D01*
X157715Y110205D01*
X160234Y111660D01*
X162291Y113717D01*
X163746Y116236D01*
X164499Y119046D01*
Y121956D01*
X163746Y124766D01*
X162291Y127285D01*
X160234Y129342D01*
X157715Y130797D01*
X154904Y131550D01*
D02*
G37*
G36*
X491985Y147238D02*
X487557D01*
X483214Y146374D01*
X479123Y144680D01*
X475442Y142220D01*
X472311Y139089D01*
X469851Y135407D01*
X468156Y131316D01*
X467292Y126973D01*
Y122545D01*
X468156Y118202D01*
X469851Y114111D01*
X472311Y110430D01*
X475442Y107299D01*
X479123Y104839D01*
X483214Y103144D01*
X487557Y102280D01*
X491985D01*
X496328Y103144D01*
X500419Y104839D01*
X504101Y107299D01*
X507232Y110430D01*
X509692Y114111D01*
X511386Y118202D01*
X512250Y122545D01*
Y126973D01*
X511386Y131316D01*
X509692Y135407D01*
X507232Y139089D01*
X504101Y142220D01*
X500419Y144680D01*
X496328Y146374D01*
X491985Y147238D01*
D02*
G37*
G36*
X206464Y142980D02*
X202036D01*
X197693Y142116D01*
X193602Y140422D01*
X189920Y137962D01*
X186789Y134831D01*
X184329Y131149D01*
X182635Y127058D01*
X181771Y122715D01*
Y118287D01*
X182635Y113944D01*
X184329Y109853D01*
X186789Y106172D01*
X189920Y103040D01*
X193602Y100580D01*
X197693Y98886D01*
X202036Y98022D01*
X206464D01*
X210807Y98886D01*
X214897Y100580D01*
X218579Y103040D01*
X221710Y106172D01*
X224170Y109853D01*
X225865Y113944D01*
X226729Y118287D01*
Y122715D01*
X225865Y127058D01*
X224170Y131149D01*
X221710Y134831D01*
X218579Y137962D01*
X214897Y140422D01*
X210807Y142116D01*
X206464Y142980D01*
D02*
G37*
G36*
X529328Y114149D02*
X526415D01*
X523557Y113581D01*
X520866Y112466D01*
X518443Y110847D01*
X516383Y108787D01*
X514765Y106365D01*
X513650Y103673D01*
X513081Y100816D01*
Y97902D01*
X513650Y95045D01*
X514765Y92353D01*
X516383Y89931D01*
X518443Y87871D01*
X520866Y86252D01*
X523557Y85138D01*
X526415Y84569D01*
X529328D01*
X532185Y85138D01*
X534877Y86252D01*
X537299Y87871D01*
X539359Y89931D01*
X540978Y92353D01*
X542093Y95045D01*
X542661Y97902D01*
Y100816D01*
X542093Y103673D01*
X540978Y106365D01*
X539359Y108787D01*
X537299Y110847D01*
X534877Y112466D01*
X532185Y113581D01*
X529328Y114149D01*
D02*
G37*
G36*
X243806Y109891D02*
X240893D01*
X238036Y109323D01*
X235344Y108208D01*
X232922Y106589D01*
X230862Y104529D01*
X229243Y102107D01*
X228128Y99415D01*
X227560Y96558D01*
Y93644D01*
X228128Y90787D01*
X229243Y88095D01*
X230862Y85673D01*
X232922Y83613D01*
X235344Y81994D01*
X238036Y80879D01*
X240893Y80311D01*
X243806D01*
X246664Y80879D01*
X249355Y81994D01*
X251778Y83613D01*
X253838Y85673D01*
X255456Y88095D01*
X256571Y90787D01*
X257140Y93644D01*
Y96558D01*
X256571Y99415D01*
X255456Y102107D01*
X253838Y104529D01*
X251778Y106589D01*
X249355Y108208D01*
X246664Y109323D01*
X243806Y109891D01*
D02*
G37*
G36*
X751961Y113861D02*
X748456D01*
X745019Y113177D01*
X741782Y111836D01*
X738868Y109889D01*
X736390Y107411D01*
X734443Y104498D01*
X733102Y101260D01*
X732418Y97823D01*
Y94319D01*
X733102Y90882D01*
X734443Y87644D01*
X736390Y84731D01*
X738868Y82253D01*
X741782Y80306D01*
X745019Y78965D01*
X748456Y78281D01*
X751961D01*
X755397Y78965D01*
X758635Y80306D01*
X761549Y82253D01*
X764027Y84731D01*
X765974Y87644D01*
X767315Y90882D01*
X767998Y94319D01*
Y97823D01*
X767315Y101260D01*
X765974Y104498D01*
X764027Y107411D01*
X761549Y109889D01*
X758635Y111836D01*
X755397Y113177D01*
X751961Y113861D01*
D02*
G37*
G36*
X600028Y119111D02*
X595588D01*
X591234Y118245D01*
X587132Y116546D01*
X583440Y114079D01*
X580300Y110939D01*
X577834Y107248D01*
X576135Y103146D01*
X575268Y98791D01*
Y94351D01*
X576135Y89996D01*
X577834Y85894D01*
X580300Y82203D01*
X583440Y79063D01*
X587132Y76596D01*
X591234Y74897D01*
X595588Y74031D01*
X600028D01*
X604383Y74897D01*
X608485Y76596D01*
X612177Y79063D01*
X615316Y82203D01*
X617783Y85894D01*
X619482Y89996D01*
X620348Y94351D01*
Y98791D01*
X619482Y103146D01*
X617783Y107248D01*
X615316Y110939D01*
X612177Y114079D01*
X608485Y116546D01*
X604383Y118245D01*
X600028Y119111D01*
D02*
G37*
G36*
X465828Y88749D02*
X462915D01*
X460057Y88181D01*
X457366Y87066D01*
X454943Y85447D01*
X452883Y83387D01*
X451265Y80965D01*
X450150Y78273D01*
X449581Y75416D01*
Y72502D01*
X450150Y69645D01*
X451265Y66954D01*
X452883Y64531D01*
X454943Y62471D01*
X457366Y60852D01*
X460057Y59738D01*
X462915Y59169D01*
X465828D01*
X468685Y59738D01*
X471377Y60852D01*
X473799Y62471D01*
X475859Y64531D01*
X477478Y66954D01*
X478593Y69645D01*
X479161Y72502D01*
Y75416D01*
X478593Y78273D01*
X477478Y80965D01*
X475859Y83387D01*
X473799Y85447D01*
X471377Y87066D01*
X468685Y88181D01*
X465828Y88749D01*
D02*
G37*
G36*
X180306Y84491D02*
X177393D01*
X174536Y83923D01*
X171844Y82808D01*
X169422Y81189D01*
X167362Y79129D01*
X165743Y76707D01*
X164628Y74015D01*
X164060Y71158D01*
Y68244D01*
X164628Y65387D01*
X165743Y62695D01*
X167362Y60273D01*
X169422Y58213D01*
X171844Y56594D01*
X174536Y55479D01*
X177393Y54911D01*
X180306D01*
X183164Y55479D01*
X185855Y56594D01*
X188278Y58213D01*
X190338Y60273D01*
X191956Y62695D01*
X193071Y65387D01*
X193640Y68244D01*
Y71158D01*
X193071Y74015D01*
X191956Y76707D01*
X190338Y79129D01*
X188278Y81189D01*
X185855Y82808D01*
X183164Y83923D01*
X180306Y84491D01*
D02*
G37*
G36*
X325470Y60641D02*
X321030D01*
X316675Y59775D01*
X312573Y58076D01*
X308881Y55609D01*
X305742Y52469D01*
X303275Y48778D01*
X301576Y44676D01*
X300710Y40321D01*
Y35881D01*
X301576Y31526D01*
X303275Y27424D01*
X305742Y23733D01*
X308881Y20593D01*
X312573Y18126D01*
X316675Y16427D01*
X321030Y15561D01*
X325470D01*
X329824Y16427D01*
X333926Y18126D01*
X337618Y20593D01*
X340758Y23733D01*
X343224Y27424D01*
X344924Y31526D01*
X345790Y35881D01*
Y40321D01*
X344924Y44676D01*
X343224Y48778D01*
X340758Y52469D01*
X337618Y55609D01*
X333926Y58076D01*
X329824Y59775D01*
X325470Y60641D01*
D02*
G37*
G36*
X87470D02*
X83030D01*
X78675Y59775D01*
X74573Y58076D01*
X70881Y55609D01*
X67742Y52469D01*
X65275Y48778D01*
X63576Y44676D01*
X62710Y40321D01*
Y35881D01*
X63576Y31526D01*
X65275Y27424D01*
X67742Y23733D01*
X70881Y20593D01*
X74573Y18126D01*
X78675Y16427D01*
X83030Y15561D01*
X87470D01*
X91824Y16427D01*
X95926Y18126D01*
X99618Y20593D01*
X102758Y23733D01*
X105224Y27424D01*
X106924Y31526D01*
X107790Y35881D01*
Y40321D01*
X106924Y44676D01*
X105224Y48778D01*
X102758Y52469D01*
X99618Y55609D01*
X95926Y58076D01*
X91824Y59775D01*
X87470Y60641D01*
D02*
G37*
%LPD*%
D43*
X111900Y1290600D02*
D03*
D61*
X543500Y1319500D02*
D03*
X478500D02*
D03*
D62*
X166000Y1156500D02*
D03*
X44000D02*
D03*
D63*
X105000Y1081500D02*
D03*
D65*
X608371Y1042959D02*
D03*
D66*
X779500Y1323250D02*
D03*
Y1268750D02*
D03*
D67*
X749200Y1320250D02*
D03*
Y1271750D02*
D03*
D68*
X216000Y1097500D02*
D03*
X731000Y1304500D02*
D03*
D69*
X374000Y1136500D02*
D03*
X390000Y1114500D02*
D03*
X439500Y1261000D02*
D03*
X301000Y1234000D02*
D03*
X310500Y1052000D02*
D03*
X374500Y1237000D02*
D03*
X650900Y1319740D02*
D03*
X250000Y1057000D02*
D03*
X728500Y1319000D02*
D03*
X159500Y1055790D02*
D03*
X109000D02*
D03*
X193500Y1189000D02*
D03*
X200500Y1239500D02*
D03*
M02*
